<?xml version="1.0" encoding="UTF-8"?>
<svg width="187px" height="317px" viewBox="0 0 187 317" version="1.1" xmlns="http://www.w3.org/2000/svg" xmlns:xlink="http://www.w3.org/1999/xlink">
    <title>man icon 3</title>
    <defs>
        <linearGradient x1="81.6157021%" y1="-27.45041%" x2="12.8396744%" y2="139.061745%" id="linearGradient-1">
            <stop stop-color="#FF9E00" offset="0%"></stop>
            <stop stop-color="#FF5900" offset="49.9207823%"></stop>
            <stop stop-color="#D50001" offset="100%"></stop>
        </linearGradient>
    </defs>
    <g id="man-icon-3" stroke="none" stroke-width="1" fill="none" fill-rule="evenodd">
        <g id="Group-23" transform="translate(4.000000, 0.000000)">
            <polyline id="Fill-130" fill="#FFFFFF" points="141.502017 134 183 130.700607 178.496701 78 137 81.2993926 141.502017 134"></polyline>
            <polyline id="Fill-131" stroke="url(#linearGradient-1)" fill="#FFFFFF" points="141.305723 135 180 131.719084 175.694277 78 137 81.2809162 141.305723 135"></polyline>
            <polyline id="Fill-132" fill="#676767" points="144.027035 106 164 105.165017 163.973943 105 144 105.833333 144.027035 106"></polyline>
            <polyline id="Fill-133" fill="#676767" points="144.026708 109 164 108.166667 163.973943 108 144 108.834983 144.026708 109"></polyline>
            <polyline id="Fill-134" fill="#676767" points="144.027034 110 164 109.165017 163.973943 109 144 109.833333 144.027034 110"></polyline>
            <polyline id="Fill-136" fill="#676767" points="147.058904 107 160 106.401447 159.941096 106 147 106.600362 147.058904 107"></polyline>
            <polyline id="Fill-137" fill="#FFFFFF" points="167.759908 109 177 108.164101 176.240092 98 167 98.8358991 167.759908 109"></polyline>
            <polyline id="Fill-138" fill="#FF5900" points="174 101.532208 172.039044 105 169 100 172.289627 102.714196 174 101.532208"></polyline>
            <polyline id="Fill-139" fill="#676767" points="146.027034 125 166 124.166667 165.973943 124 146 124.833333 146.027034 125"></polyline>
            <polyline id="Fill-140" fill="#676767" points="146.027032 125 166 124.165017 165.970688 124 146 124.833333 146.027032 125"></polyline>
            <polyline id="Fill-141" fill="#676767" points="146.027033 127 166 126.165017 165.973944 126 146 126.833333 146.027033 127"></polyline>
            <polyline id="Fill-142" fill="#676767" points="148.060307 123 159 122.448276 158.939693 122 148 122.551724 148.060307 123"></polyline>
            <polyline id="Fill-143" fill="#676767" points="146.058582 122 159 121.400362 158.941096 121 146 121.599638 146.058582 122"></polyline>
            <polyline id="Fill-144" fill="#FFFFFF" points="168.759908 127 178 126.164101 177.240092 116 168 116.835899 168.759908 127"></polyline>
            <polyline id="Fill-145" fill="#FF5900" points="175 118.529081 173.039044 122 170 117 173.286713 119.714196 175 118.529081"></polyline>
            <polyline id="Fill-146" fill="#676767" points="143.027036 92 163 91.1666667 162.973941 91 143 91.8349835 143.027036 92"></polyline>
            <polyline id="Fill-147" fill="#676767" points="143.027034 94 163 93.1650165 162.973943 93 143 93.8333333 143.027034 94"></polyline>
            <polyline id="Fill-148" fill="#676767" points="143.027035 94 163 93.1650165 162.973942 93 143 93.8333333 143.027035 94"></polyline>
            <polyline id="Fill-150" fill="#676767" points="145.058583 93 158 92.4003623 157.941417 92 145 92.5996377 145.058583 93"></polyline>
            <polyline id="Fill-151" fill="#FFFFFF" points="164.835625 95 175 94.1641009 174.160773 84 164 84.8358991 164.835625 95"></polyline>
            <polyline id="Fill-152" fill="#FF5900" points="173 88.5290807 171.039044 92 168 87 171.289627 89.7141964 173 88.5290807"></polyline>
            <path d="M136.24712,100.438605 C136.976489,99.9694342 137.54392,98.9212239 138.2928,98.1402627 C138.849175,97.5612231 139.905671,97 139.905671,97 C139.905671,97 140.01428,98.3600009 140.127441,99.4586915 C142.338961,98.7044552 145.664532,98.0096076 150.974001,98.9420099 C152.037325,99.1290843 153.001146,99.6784296 153.586137,100.512841 C154.12723,101.281924 154.329814,102.244021 152.975132,103.013104 C150.265443,104.551271 151.051068,103.630747 147.285533,105.8697 C143.519999,108.111623 138.909333,108.681754 136.15477,107.110923 L132.458498,106.546731 L132,100.993889 C132,100.993889 134.106813,100.765243 136.24712,100.438605" id="Fill-153" fill="#FFB27D"></path>
            <path d="M60,53.0695569 C60,53.0695569 68.5308851,63.2025815 79.3954363,58.963437 C79.3954363,58.963437 81.7326041,53.3041265 81.7657102,49.1325482 C81.7692118,48.6187898 81.7755784,48.1216042 81.7835366,47.6483218 C81.8417907,42.9505554 82,40.3145157 82,40.3145157 C82,40.3145157 81.9968167,40.3132409 81.9888585,40.3122848 C81.4948127,40.1057615 65.3810247,33.4823572 65.3943945,34.0324484 C65.6707037,46.7384084 60,53.0695569 60,53.0695569" id="Fill-154" fill="#FFAC80"></path>
            <path d="M68.0097866,36.1222237 C69.4601547,39.0853174 74.4370479,44.8824753 81.7979409,47 C81.8523186,42.1728558 82,39.4642188 82,39.4642188 C82,39.4642188 81.9970285,39.4629088 81.9895999,39.4619264 C81.5732988,39.3384641 67.5780339,35.2488185 68.0097866,36.1222237" id="Fill-155" fill="#FFAC80"></path>
            <path d="M85.199118,39.2313777 C85.199118,39.2313777 67.1931187,43.4012831 64.7294595,32.3160145 C62.2661166,21.2310575 58.2826368,14.3035436 69.6751234,11.1726874 C81.0672936,8.04183116 84.2483208,11.7883279 85.9844904,15.2914971 C87.7203438,18.7943547 89.8196256,37.8611413 85.199118,39.2313777" id="Fill-156" fill="#FFAC80"></path>
            <path d="M66.4611357,34.9117425 C66.2165681,35.070931 62.3610878,36.2737951 55.0593135,21.5018693 C53.9132767,19.1830874 53.1323602,14.1667317 55.8040328,9.73406714 C58.4757053,5.30172223 67.94963,1.8168366 75.8204882,0.300070657 C83.6916611,-1.21637563 85.5814729,3.28149868 87.4350874,7.80174888 C89.3806114,12.5470366 95,16.4538677 95,16.4538677 C88.2125416,20.3044394 80.0376264,14.7970926 77.2054268,15.702677 C74.3732273,16.608581 73.3729239,21.1412978 73.1604617,22.5944523 C72.9479995,24.0476068 72.6212799,25.2549461 69.060099,23.9574639 C65.4986033,22.6593424 67.4494783,29.0825025 68.0198212,30.3109391 C68.0198212,30.3109391 68.5039202,33.5826144 66.4611357,34.9117425" id="Fill-157" fill="#000000"></path>
            <path d="M89,148.787751 C89,148.787751 87.4611768,168.920402 85.6523735,193.12059 C83.193852,225.994882 80.2373181,266.375927 79.9446294,274.02488 C79.439363,287.308858 77.4100971,308.555949 77.4100971,308.555949 C77.4100971,308.555949 72.5996582,313.605646 62.97058,311.475977 C62.97058,311.475977 54.3901977,281.144722 51.9392457,249.050868 C51.9010826,248.525065 51.8632349,247.995954 51.8253873,247.466844 C49.5453805,214.794275 46,146 46,146 L89,148.787751" id="Fill-160" fill="#000000"></path>
            <path d="M89,147.813427 C89,147.813427 87.4611768,168.131506 85.6523735,192.554586 L51.9392457,249 C51.9010826,248.469354 51.8632349,247.93537 51.8253873,247.401386 C49.5453805,214.427893 46,145 46,145 L89,147.813427" id="Fill-161" fill="#000000"></path>
            <path d="M35.6354561,260.516147 C17.2428703,295.118158 10.6653941,309 10.6653941,309 C10.6653941,309 0.957937237,307.792093 0,304.776398 C0,304.776398 7.03314212,230.529518 19.350205,214.242093 C26.3101978,205.041384 34.4860586,177.4259 34.8689791,167.771 C35.2522176,158.112761 37.3598703,139 37.3598703,139 L82,152.278409 C82,152.278409 54.0280418,225.910795 35.6354561,260.516147 Z" id="Fill-162" fill="#000000"></path>
            <path d="M18.7710141,138.592574 L18.4634298,142.943767 C18.4634298,142.943767 21.5564705,150.673426 12.8902017,154.641051 C12.8902017,154.641051 9.18066956,156.028032 9.0301848,153.349195 C8.88003077,150.670357 9.35463657,151.676839 9.0533363,147.902532 C8.7517053,144.131293 10.3504819,140.565646 13.0403557,139.362778 L15.2473554,137 L18.7710141,138.592574" id="Fill-163" fill="#FFB27D"></path>
            <path d="M14.9178482,142.2084 C18.0673323,143.201419 18.5717026,142.978626 18.5717026,142.978626 C18.5717026,142.978626 33.9008094,115.521025 35.4537137,113.006651 C37.005971,110.49546 68,82.2198911 68,82.2198911 L60.0348949,53 C60.0348949,53 24.7833199,97.9076756 20.9764397,104.352748 C14.6858831,115.002236 11,139.732219 11,139.732219 C11,139.732219 12.444201,141.425443 14.9178482,142.2084" id="Fill-164" fill="#FF5900"></path>
            <path d="M95.9638701,94.2219558 C95.854963,100.22433 95.5062695,106.968249 95.0359312,113.820377 C95.0069531,114.224566 94.9782933,114.631938 94.9496336,115.039311 C94.6487063,119.28171 93.3590178,134.08396 93.2918266,134.682288 C91.7620332,150.219717 90.1586797,162.494987 89.8612553,162.685943 C89.5058744,162.921455 89.1059118,163.039211 88.6674177,162.988289 C84.5904099,162.475891 72.4262593,163.402027 62.4673167,161.234679 C54.0633245,159.465156 46.8276945,156.104336 39.1599393,151.575503 C38.1425184,150.977175 35.8220344,149.382695 36.0108703,148.192404 C36.1965217,146.884358 36.5388465,144.993896 36.9741561,142.61968 C38.4848431,134.354481 41.0928798,120.137828 41.9826056,103.499221 C42.1555194,100.399373 42.408362,97.3377164 42.7344462,94.3269814 C43.5891435,86.4882496 44.9587608,79.043523 46.7955319,72.4291355 C50.2104996,60.1408174 55.2281839,50.7314748 61.5231374,47.0498487 C62.3456721,46.5893272 66.7713734,49.4040144 70.835962,52.0105598 C74.5897515,54.4159652 78.5419302,55.0811276 82.3855203,54.7453638 L85.768007,58.4842766 C89.8644397,63.2432111 94.2261343,69.5794398 95.4167874,78.5861841 C95.5062695,79.2513465 95.5830139,79.9582008 95.6473391,80.7099298 C95.9769262,84.378189 96.056855,89.0215953 95.9638701,94.2219558" id="Fill-165" fill="#FF5900"></path>
            <path d="M95.9637742,94.2979165 C95.8545781,100.267054 95.5049591,106.97363 95.0333725,113.787816 C95.0043174,114.189767 94.9755816,114.594884 94.9468458,115 C71.5967655,100.510757 68,74 68,74 C79.4869802,74.4994326 88.6128348,77.1168647 95.6464031,80.8607103 C95.9768649,84.5086574 96.0570059,89.1263519 95.9637742,94.2979165" id="Fill-166" fill="#FF8340"></path>
            <path d="M136.982175,101.841686 C137.175362,98.3844961 135.734538,97.8072346 135.734538,97.8072346 C135.734538,97.8072346 107.445542,91.4350338 105.040577,90.4941933 C102.635868,89.5533528 82.0725717,62.961693 82.0725717,62.961693 C82.0725717,62.961693 74.1906288,51.911761 67.7366819,54.3518865 C62.1283468,56.4721263 59.9360676,61.9101842 59.19,67.0908664 C58.300517,73.2646935 60.5897747,79.4783866 64.890439,82.7569765 C74.5444208,90.1178571 93.8716262,104.619557 98.4234598,106.277988 C108.554124,109.971186 135.773278,106.574592 135.773278,106.574592 C135.773278,106.574592 136.830036,104.558961 136.982175,101.841686" id="Fill-167" fill="#FF5900"></path>
        </g>
        <rect id="Rectangle" fill="#C4C4C4" x="0" y="306" width="187" height="7" rx="3.5"></rect>
    </g>
</svg>