<?xml version="1.0" encoding="UTF-8"?>
<svg width="204px" height="363px" viewBox="0 0 204 363" version="1.1" xmlns="http://www.w3.org/2000/svg" xmlns:xlink="http://www.w3.org/1999/xlink">
    <title>man icon 2</title>
    <defs>
        <linearGradient x1="103.778613%" y1="-14.5863229%" x2="-7.38544103%" y2="126.120536%" id="linearGradient-1">
            <stop stop-color="#FF9E00" offset="0%"></stop>
            <stop stop-color="#FF5900" offset="49.9207823%"></stop>
            <stop stop-color="#D50001" offset="100%"></stop>
        </linearGradient>
        <linearGradient x1="123.087192%" y1="30.5223887%" x2="-44.7326363%" y2="74.0705826%" id="linearGradient-2">
            <stop stop-color="#FF9E00" offset="0%"></stop>
            <stop stop-color="#FF5900" offset="49.9207823%"></stop>
            <stop stop-color="#D50001" offset="100%"></stop>
        </linearGradient>
    </defs>
    <g id="man-icon-2" stroke="none" stroke-width="1" fill="none" fill-rule="evenodd">
        <g id="Group-22">
            <path d="M137.025015,33.001 C137.025015,14.7755166 151.799532,0.000999999999 170.025015,0.000999999999 C188.250499,0.000999999999 203.025015,14.7755166 203.025015,33.001 C203.025015,51.2264834 188.250499,66.001 170.025015,66.001 C151.799532,66.001 137.025015,51.2264834 137.025015,33.001" id="Fill-549" stroke="url(#linearGradient-1)" stroke-width="2"></path>
            <path d="M156.132707,25.5079443 L157.033737,25.5079443 L157.033737,24.1548462 L161.693216,24.1548462 L161.693216,25.5079443 L162.594246,25.5079443 L162.594246,45.0971538 L156.132707,45.0971538 L156.132707,25.5079443 Z M170.39009,15.9048462 L184.563477,22.8281067 L155.486554,22.8856154 L170.39009,15.9048462 Z M183.917323,25.5079443 L183.917323,45.0971538 L178.101938,45.0971538 L178.101938,25.5079443 L178.981486,25.5079443 L178.981486,24.1548462 L183.037775,24.1548462 L183.037775,25.5079443 L183.917323,25.5079443 Z M164.532707,25.5079443 L165.399138,25.5079443 L165.399138,24.1548462 L174.650892,24.1548462 L174.650892,25.5079443 L175.517323,25.5079443 L175.517323,45.0971538 L164.532707,45.0971538 L164.532707,25.5079443 Z M190.465648,46.4448924 L190.465648,45.8884467 L190.058169,45.8884467 L190.058169,45.3323391 L185.991761,45.3323391 L185.991761,25.8192163 L186.874108,25.8192163 L186.874108,24.4713737 L190.934231,24.4713737 L170.360915,14.001 L149.025015,24.4713737 L153.083393,24.4713737 L153.083393,25.8192163 L153.96574,25.8192163 L153.96574,45.3323391 L150.302969,45.3323391 L150.302969,45.8884467 L149.89549,45.8884467 L149.89549,46.4448924 L149.336124,46.4448924 L149.336124,47.001 L191.025015,47.001 L191.025015,46.4448924 L190.465648,46.4448924 L190.465648,46.4448924 Z" id="Fill-550" fill="#FF5900"></path>
            <path d="M177.700499,105.2762 C176.291849,108.896071 173.850466,113.099363 171.2884,114.143557 C168.383709,115.326976 167.172034,117.001 167.172034,117.001 L164.826364,115.698244 L162.025015,114.143557 C162.025015,114.143557 162.091252,113.845216 162.228233,113.36124 C162.363133,112.88058 162.573633,112.207655 162.857652,111.461803 C162.857652,111.461803 163.716991,110.407665 163.190568,109.081705 C162.664144,107.755745 162.769221,105.707137 163.668094,104.45742 C164.566967,103.211018 165.433589,100.134791 165.974924,100.227608 C167.28474,100.439762 165.330939,104.669574 165.891348,105.45189 C166.398351,106.161279 167.032625,105.919291 167.150186,105.862938 L167.172034,105.852993 C170.847633,104.30825 175.304892,95.9808906 177.278459,97.104973 C178.015729,97.5259653 178.300442,103.734772 177.700499,105.2762" id="Fill-552" fill="#FFB27D"></path>
            <path d="M164.333976,110.550282 L168.978647,113.867045 C169.30681,114.101671 169.76407,114.019908 169.994625,113.685743 L181.893182,96.4833668 C182.123736,96.149202 182.043969,95.6870592 181.715805,95.4517219 L177.071135,92.1349587 C176.742971,91.9006879 176.286061,91.9817406 176.055157,92.3151944 L164.1566,109.519348 C163.926395,109.853513 164.006162,110.315656 164.333976,110.550282" id="Fill-553" fill="#B6B6B6"></path>
            <path d="M168.261333,113.109999 L170.996137,114.906729 C171.246673,115.070964 171.596298,115.015124 171.77234,114.781911 L183.924178,98.6179105 C184.100571,98.384697 184.039431,98.0562271 183.788544,97.8919922 L181.054091,96.0952623 C180.803204,95.9303704 180.453931,95.9875242 180.277537,96.2220516 L168.125699,112.384081 C167.949657,112.620579 168.010446,112.945764 168.261333,113.109999" id="Fill-554" fill="#B6B6B6"></path>
            <path d="M98.5661429,86.001 C98.5661429,86.001 121.611825,127.260982 129.972691,134.852502 L160.628743,111.391624 C160.628743,111.391624 165.077137,112.792273 167.025015,117.375898 C167.025015,117.375898 148.409305,156.306951 130.079807,157.959717 C111.750309,159.608982 86.0250151,111.293578 86.0250151,111.293578 L98.5661429,86.001" id="Fill-555" fill="#FF5900"></path>
            <path d="M119.025015,190.756353 C119.025015,190.756353 117.450439,210.646558 115.599599,234.556134 C113.083612,267.031414 110.058644,306.925482 109.759243,314.482038 C109.242096,327.607851 107.165684,348.600197 107.165684,348.600197 C107.165684,348.600197 102.243264,353.587387 92.3902577,351.482986 C92.3902577,351.482986 83.6103312,321.518521 81.1021696,289.811296 C81.0633836,289.291223 81.0245976,288.767706 80.9858116,288.244189 C78.6528674,255.968672 75.0250151,188.001 75.0250151,188.001 L119.025015,190.756353" id="Fill-558" fill="#000000"></path>
            <path d="M119.025015,190.761487 C119.025015,190.761487 117.450439,210.688754 115.599599,234.642881 L81.1021696,290.001 C81.0633836,289.479958 81.0245976,288.955465 80.9858116,288.430973 C78.6528674,256.095317 75.0250151,188.001 75.0250151,188.001 L119.025015,190.761487" id="Fill-559" fill="#000000"></path>
            <path d="M63.5295067,306.347494 C44.6884012,342.039377 38.8004914,352.001986 38.8004914,352.001986 C38.8004914,352.001986 27.213718,352.112326 26.232457,349 C26.232457,349 34.229745,275.413076 46.8473816,258.616682 C53.9768941,249.123542 62.3521308,220.640489 62.7447039,210.678866 C63.1369335,200.717243 65.295914,181.001 65.295914,181.001 L111.025015,194.699594 C111.025015,194.699594 82.3706121,270.651979 63.5295067,306.347494 Z" id="Fill-560" fill="#000000"></path>
            <rect id="Rectangle" fill="#C4C4C4" x="0" y="349" width="204" height="7" rx="3.5"></rect>
            <path d="M104.025015,88.2067208 C93.4038559,91.7806285 75.0250151,82.1352122 75.0250151,82.1352122 C75.0250151,82.1352122 84.8183103,74.2974212 84.3051715,58.001 L98.0967141,69.8521847 C98.0967141,69.8521847 98.0735822,72.6780974 97.4640058,77.6312617 C97.3030594,78.9337386 97.1030167,80.3859534 96.8498682,81.9729671 C101.409473,84.6421936 104.025015,88.2067208 104.025015,88.2067208" id="Fill-561" fill="#FFAC80"></path>
            <path d="M98.0250151,70.0648135 C98.0250151,70.0648135 97.9999185,72.9477995 97.3385697,78.001 C90.6321176,76.8469549 83.0250151,65.9778068 83.0250151,65.9778068 C86.4392153,64.9892835 89.4292474,64.8117109 91.972489,65.1746538 L98.0250151,70.0648135" id="Fill-562" fill="#FFAC80"></path>
            <path d="M101.378457,70.6179909 C101.378457,70.6179909 82.6904236,73.7928537 80.936143,61.8610337 C79.1818625,49.9292137 75.5882769,42.302942 87.4458947,39.7714982 C99.3038597,37.2400544 102.296721,41.4355863 103.829591,45.2726773 C105.362461,49.1094135 106.19466,69.4844663 101.378457,70.6179909" id="Fill-563" fill="#FFAC80"></path>
            <path d="M120.651171,193.050363 C120.312938,193.333422 119.92023,193.502566 119.469942,193.502566 C115.248756,193.443883 102.93998,195.791197 92.5247557,194.721098 C83.7444954,193.875375 75.973072,191.272618 67.6275839,187.527272 C66.5191045,187.030193 63.9683951,185.66668 64.0259739,184.427437 C64.0628658,183.067375 64.198021,181.099774 64.366965,178.617835 C64.9579241,169.994908 65.9871033,155.158503 64.9834381,138.047275 C64.8027715,134.85769 64.7083008,131.699172 64.6969229,128.585529 C64.610727,105.391996 69.2046243,84.9903867 78.435172,78.0858319 C79.224037,77.5200602 84.0644546,79.8887761 88.5118188,82.0852406 C92.6209503,84.1146315 96.7304266,84.3386619 100.613035,83.5519666 L104.495644,86.9887103 C109.224007,91.3840556 114.403002,97.3593502 116.654094,106.431028 C118.569367,114.149549 119.693707,128.071191 120.312938,142.500268 C120.593937,149.034776 120.820805,155.631418 120.878039,161.886319 L120.878039,162.110695 C120.932515,162.732043 120.932515,163.408621 120.932515,164.026517 C121.159037,180.088358 120.932515,192.822536 120.651171,193.050363" id="Fill-564" fill="#FF5900"></path>
            <path d="M64.0250151,179.001 C64.6163932,170.396647 65.6463018,155.592201 64.6419252,138.517831 C64.4611306,135.335116 64.3665929,132.183402 64.3552069,129.076466 C68.2033045,119.759102 71.348235,113.001 71.348235,113.001 L81.0473179,113.001 C81.0473179,113.001 88.1583455,161.489179 64.0250151,179.001" id="Fill-565" fill="#FF8340"></path>
            <path d="M30.9658475,192.994746 C31.0447201,192.447914 31.4736333,192.036919 31.993634,191.953327 C32.1143858,191.932429 32.2375806,191.928946 32.3656613,191.946361 L34.2237038,192.21107 L41.1086519,193.193278 L44.8617303,193.726178 C45.5370331,193.820219 46.0078257,194.450644 45.9115034,195.119381 L45.3545094,199.027316 L30.4088535,196.899198 L30.9658475,192.994746 Z M63.3168712,206.914033 L63.3168712,206.910542 C62.149465,203.967403 59.6292675,201.642218 56.4340604,200.856683 L56.4312883,200.856683 L56.4240115,200.853192 C56.1111092,200.776384 55.7930093,200.713541 55.4648603,200.664663 L47.1925278,199.481123 L47.7455644,195.56392 C47.8703095,194.691103 47.6478474,193.818286 47.1190668,193.109559 C46.5906327,192.400831 45.8199852,191.939984 44.9536998,191.817789 L42.7959561,191.507066 L34.1098857,190.260684 L32.5439882,190.033751 C30.7504309,189.778889 29.0795396,191.039236 28.8251982,192.847713 L28.2718151,196.761425 L13.9926596,194.712051 C8.56590138,193.933498 3.49362711,197.770402 2.71812842,203.237728 L0.124816446,221.587834 C-0.648603159,227.05516 3.15854792,232.166377 8.58565269,232.944929 L50.0554278,238.901033 C50.7869192,239.005771 51.5111338,239.026719 52.2183692,238.970858 L52.225646,238.970858 C53.3608264,238.883577 54.452346,238.597293 55.4627813,238.146919 C58.5110663,236.788816 60.8257809,233.925976 61.329959,230.371865 L63.9256966,212.02525 C64.1779589,210.234229 63.9405967,208.488595 63.3168712,206.914033 L63.3168712,206.914033 Z" id="Fill-567" fill="url(#linearGradient-2)"></path>
            <path d="M48.0250151,179.758101 C48.0250151,179.758101 45.0842252,182.579086 44.9674716,183.705462 C44.1772832,191.341287 49.023959,192.397055 36.4748141,196.6403 C36.4748141,196.6403 31.1176914,198.109633 31.0266236,195.11717 C30.9355558,192.124707 34.7445256,192.074272 34.04774,187.881461 C33.2444752,183.046448 33.3257357,182.999376 37.733885,180.474275 L40.6527252,177.001 L48.0250151,179.758101" id="Fill-568" fill="#FFB27D"></path>
            <path d="M40.8634159,182.543163 C44.3824424,183.22096 48.1976763,182.945712 48.1976763,182.945712 C48.1976763,182.945712 58.645938,151.003214 59.9906915,148.085588 C61.335445,145.167963 91.0250151,110.634695 91.0250151,110.634695 L78.6566207,80.001 C78.6566207,80.001 46.5441997,133.084588 43.2834854,140.543801 C37.8954323,152.871458 36.0250151,180.50633 36.0250151,180.50633 C36.0250151,180.50633 38.0991618,182.00987 40.8634159,182.543163" id="Fill-569" fill="#FF5900"></path>
            <path d="M81.5026943,60.001 C81.5026943,60.001 83.3911959,59.6873263 83.0863564,57.1035917 C82.7818586,54.5195177 82.7856178,51.1420936 84.9006986,51.7718173 C87.0157794,52.4012016 87.1210379,54.083294 87.990104,53.100857 C88.8591702,52.1187595 88.8745489,47.9802353 95.1675038,47.6923615 C101.460459,47.4041484 104.017762,49.5798355 106.944153,48.3020564 C109.870545,47.0239378 110.025015,42.6240188 110.025015,42.6240188 C110.025015,42.6240188 109.192858,44.1951032 107.935565,44.6948085 C107.935565,44.6948085 112.817783,38.0618313 107.165265,33.5132229 C101.512746,28.9649538 95.7495013,31.9424779 92.4779439,32.1393727 C85.2711538,32.5725411 80.6151737,33.0023149 78.2608691,37.7067418 C75.9065644,42.4108293 76.8778133,55.4727599 81.5026943,60.001" id="Fill-570" fill="#000000"></path>
            <path d="M42.1877842,183.001 C42.1877842,183.001 44.0046228,185.268169 44.1194115,186.211626 C44.4874546,189.239301 45.3323355,190.545075 44.9091458,190.875106 C44.0291989,191.560279 42.8639287,189.318222 42.307668,187.305751 C41.7514073,185.296867 42.1877842,183.001 42.1877842,183.001" id="Fill-571" fill="#FFB27D"></path>
        </g>
    </g>
</svg>