<?xml version="1.0" encoding="UTF-8"?>
<svg width="117px" height="70px" viewBox="0 0 117 70" version="1.1" xmlns="http://www.w3.org/2000/svg" xmlns:xlink="http://www.w3.org/1999/xlink">
    <title>BOB World</title>
    <g id="Page-1" stroke="none" stroke-width="1" fill="none" fill-rule="evenodd">
        <g id="-" transform="translate(-327.000000, -159.000000)" fill="#FF5900">
            <g id="BOB-World" transform="translate(327.000000, 159.000000)">
                <path d="M33.054,69.0187105 L32.4820263,56.5421316 L34.0634737,56.5421316 C34.1491316,60.1314737 34.3849211,66.1321316 34.2946579,67.3460789 L34.3130789,67.3460789 C34.7772895,65.9626579 37.9401842,59.6525263 39.3751842,56.5421316 L40.8903158,56.5421316 C41.0201842,59.3135789 41.3250526,65.8954211 41.2467632,67.2806842 L41.2651842,67.2806842 C41.8030789,65.8272632 44.5137368,60.3267368 46.2508421,56.5421316 L47.8599211,56.5421316 L41.7128158,69.0187105 L39.9987368,69.0187105 C39.8845263,66.2804211 39.6155789,60.2539737 39.6662368,58.6559474 L39.6487368,58.6559474 C38.9717632,60.5238421 36.1026842,66.2260789 34.7570263,69.0187105 L33.054,69.0187105 Z" id="Fill-5163"></path>
                <path d="M47.9878553,65.5206447 C47.9878553,67.0274868 48.7035132,67.9273553 50.01325,67.9273553 C52.1804868,67.9273553 53.1337763,65.3401184 53.1337763,63.4399868 C53.1337763,61.9165658 52.4770658,61.0056447 51.1056184,61.0056447 C49.0148289,61.0056447 47.9878553,63.5873553 47.9878553,65.5206447 M54.7106184,63.5026184 C54.7106184,65.8955132 53.3539079,69.1984079 49.8456184,69.1984079 C47.63325,69.1984079 46.4146974,67.7965658 46.4146974,65.52525 C46.4146974,63.0089342 47.9556184,59.7355132 51.2474605,59.7355132 C53.3281184,59.7355132 54.7106184,61.0738026 54.7106184,63.5026184" id="Fill-5165"></path>
                <path d="M56.6771579,62.6100263 C56.8632105,61.7175263 57.0538684,60.7531842 57.204,59.9150263 L58.6693947,59.9150263 C58.6509737,60.1480526 58.5118947,61.0525263 58.3396579,61.8280526 C59.0009737,60.5496316 60.1320263,59.7354211 61.5311053,59.7354211 L61.1949211,61.3122632 C59.4633421,61.4366053 58.1628158,62.7279211 57.7317632,64.7671316 L56.8328158,69.0187105 L55.3112368,69.0187105 L56.6771579,62.6100263 Z" id="Fill-5167"></path>
                <polygon id="Fill-5169" points="61.0348421 69.0187105 63.8201053 55.8513421 65.3407632 55.8513421 62.5555 69.0187105"></polygon>
                <path d="M66.6593421,65.5053553 C66.6593421,67.1024605 67.3593421,67.86325 68.5484211,67.86325 C70.4190789,67.86325 71.3898684,66.1804868 71.7868421,64.1633816 C72.1755263,62.2752237 71.6053947,61.0714079 69.8710526,61.0714079 C67.7627632,61.0714079 66.6593421,63.5223289 66.6593421,65.5053553 L66.6593421,65.5053553 Z M75.0059211,55.8508816 L72.7585526,66.4844342 C72.5798684,67.3391711 72.3938158,68.1985132 72.2501316,69.01825 L70.7736842,69.01825 C70.7921053,68.7493026 70.8943421,68.1681184 71.0113158,67.5924605 C70.4080263,68.5448289 69.5136842,69.1978553 68.0105263,69.1978553 C66.0532895,69.1978553 65.0686842,67.7315395 65.0686842,65.6527237 C65.0686842,62.9733816 66.6630263,59.7349605 69.8360526,59.7349605 C71.3677632,59.7349605 72.1727632,60.5500921 72.3652632,61.1303553 L73.4843421,55.8508816 L75.0059211,55.8508816 Z" id="Fill-5171"></path>
                <path d="M65.8719342,37.8603289 C64.0371974,40.6805921 61.3928553,42.1708553 58.2216711,42.1699346 L58.1802237,42.1699346 C56.0249605,42.1607237 54.24825,41.4128289 53.0416711,40.0073026 C51.8415395,38.6073026 51.2124605,36.5717763 51.2224716,34.1199342 C51.2364079,30.8253289 52.1979868,27.5436184 53.8604868,25.1166447 C55.1665395,23.2100658 57.5106184,20.9424342 61.2703553,20.9424342 L61.3081184,20.9424342 C65.8700921,20.9608553 68.3716711,23.7507237 68.3506203,28.7990132 C68.3375921,32.1571711 67.4331184,35.4600658 65.8719342,37.8603289 M73.3794342,18.2382237 C70.6678553,15.5100658 66.7543026,14.0575658 62.0633816,14.0382237 L61.9629868,14.0382237 C56.0046974,14.0382237 50.9481184,16.2238816 47.3375921,20.3621711 C44.0945658,24.0795395 42.2966711,29.0486184 42.2753033,34.3538816 C42.2570658,38.7205921 43.62575,42.4140132 46.23325,45.0353289 C48.8950921,47.7109868 52.7911447,49.1284868 57.4977237,49.1340132 L57.5483816,49.1340132 C63.87325,49.1340132 69.1029868,46.8940132 72.6739079,42.6534868 C75.6618026,39.1055921 77.3869342,34.1724342 77.4073777,29.1195395 C77.4256184,24.6708553 76.0320658,20.9074342 73.3794342,18.2382237" id="Fill-5173"></path>
                <path d="M27.5551316,14.2039211 C27.5247368,14.2039211 27.4943421,14.2039211 27.4639474,14.2039211 C22.1181579,14.2039211 19.1155263,16.1464211 17.1288158,18.1395789 L15.0573684,27.5260263 C16.8810526,23.6253684 19.9905263,21.4618158 23.9630263,21.4618158 L24.0081579,21.4618158 C26.2675,21.4710263 27.9825,22.1562895 29.1052632,23.4991842 C30.1534211,24.7518158 30.6793421,26.5570789 30.6701316,28.8633947 C30.6563158,32.1755 29.6975,35.4590526 28.0377632,37.8703684 C26.7151316,39.7935263 24.3157895,42.0814211 20.3884211,42.0814211 L20.3469737,42.0814211 C17.9034211,42.0712895 16.0668421,41.3326053 14.8878947,39.8847105 C13.9207895,38.6993158 13.4243421,37.0469474 13.4031579,35.0233947 L11.2451316,44.8040526 C12.3531579,46.7437895 14.9339474,49.2665526 20.8609211,49.2914211 C20.8913158,49.2914211 20.9217105,49.2914211 20.9511842,49.2914211 C26.7768421,49.2914211 31.6722368,46.9952368 35.1151316,42.6460263 C38.1840789,38.7683947 39.8871053,33.5193158 39.9102966,27.8631316 C39.9432895,19.7237895 34.9778947,14.2343158 27.5551316,14.2039211" id="Fill-5175"></path>
                <polygon id="Fill-5177" points="19.4682895 0.301736842 5.85328947 0.301736842 4.23407895 7.82397368 9.12302632 7.82397368 0.282763158 48.3963421 8.84763158 48.4313421"></polygon>
                <path d="M104.018895,14.2039211 C103.9885,14.2039211 103.958105,14.2039211 103.927711,14.2039211 C98.5819211,14.2039211 95.5792895,16.1464211 93.5925789,18.1395789 L91.5211316,27.5260263 C93.3448158,23.6253684 96.4542895,21.4618158 100.426789,21.4618158 L100.471921,21.4618158 C102.731263,21.4710263 104.446263,22.1562895 105.569026,23.4991842 C106.617184,24.7518158 107.143105,26.5570789 107.133895,28.8633947 C107.120079,32.1755 106.161263,35.4590526 104.501526,37.8703684 C103.178895,39.7935263 100.779553,42.0814211 96.8521842,42.0814211 L96.8107368,42.0814211 C94.3671842,42.0712895 92.5306053,41.3326053 91.3516579,39.8847105 C90.3845526,38.6993158 89.8881053,37.0469474 89.8669211,35.0233947 L87.7088947,44.8040526 C88.8169211,46.7437895 91.3977105,49.2665526 97.3256053,49.2914211 C97.3550789,49.2914211 97.3854737,49.2914211 97.4149474,49.2914211 C103.240605,49.2914211 108.136921,46.9952368 111.578895,42.6460263 C114.648763,38.7683947 116.350868,33.5193158 116.37406,27.8631316 C116.407053,19.7237895 111.441658,14.2343158 104.018895,14.2039211" id="Fill-5179"></path>
                <polygon id="Fill-5181" points="95.9320526 0.301736842 82.3170526 0.301736842 80.6978421 7.82397368 85.5867895 7.82397368 76.7474474 48.3963421 85.3113947 48.4313421"></polygon>
            </g>
        </g>
    </g>
</svg>