<?xml version="1.0" encoding="UTF-8"?>
<svg width="208px" height="70px" viewBox="0 0 208 70" version="1.1" xmlns="http://www.w3.org/2000/svg" xmlns:xlink="http://www.w3.org/1999/xlink">
    <title>BOB Group logo</title>
    <g id="Page-1" stroke="none" stroke-width="1" fill="none" fill-rule="evenodd">
        <g id="-" transform="translate(-75.000000, -159.000000)">
            <g id="BOB-Group-logo" transform="translate(75.000000, 159.000000)">
                <path d="M33.3018966,50.5601842 L8.96603448,50.5807014 L9.14103448,49.722598 L26.8751724,49.2144946 C30.2737931,49.0853566 33.577069,48.905529 36.7741379,47.8169083 C43.3263793,45.6288049 48.5462069,41.1681152 50.0825862,35.6429428 C51.7312069,29.7231152 47.9427586,23.9613911 40.8075862,23.4641497 C46.852931,21.6948394 52.0063793,17.8629428 53.3786207,12.9303566 C55.16,6.52656352 51.9363793,3.28966696 46.492069,2.10208076 C55.5486207,1.95966696 62.6306897,5.00466696 60.2205172,13.6689773 C58.8482759,18.6015635 53.572931,22.352598 47.5625862,23.9915635 C54.6168966,24.5165635 58.485,31.2377704 56.6155172,37.0912187 C54.6687931,43.1872532 49.7518966,46.9744946 43.1996552,49.1613911 C40.0025862,50.2512187 36.6993103,50.4310463 33.3018966,50.5601842" id="Fill-331" fill="#FF5900"></path>
                <path d="M20.5281034,47.4958739 L9.10724138,48.0631152 C9.10362069,47.7710463 9.11931034,47.8374256 9.08672414,47.5550118 L38.0136207,38.9981152 L38.1089655,37.9529428 L8.55810345,45.592598 C8.46758621,45.312598 8.45793103,45.3886325 8.33724138,45.125529 L39.2675862,27.9984601 L38.9562069,27.1439773 L7.35241379,43.4841497 C7.16293103,43.2150118 7.245,43.329667 7.02293103,43.0858739 L43.7910345,8.74846007 L43.3408621,7.81794283 L5.67,41.8693221 C5.49017241,41.742598 5.37551724,41.6520808 5.18482759,41.5386325 L32.1408621,2.73570145 L31.0063793,2.74535662 L3.41793103,40.7312187 C3.26344828,40.6781152 3.09327586,40.6322532 2.93396552,40.5863911 L18.9518966,2.67656352 L17.9344828,2.67656352 L0.697586207,40.2979428 C0.487586207,40.295529 -1.71510316e-14,40.3003566 -1.71510316e-14,40.3003566 L11.1541379,0.00811524069 L31.9875862,0.0720807579 C41.8431034,-0.492746828 49.6263793,2.16846007 47.0653448,11.374667 C45.6943103,16.3072532 40.5408621,20.1391497 34.532931,21.7769083 L34.4955172,21.9084601 C41.6306897,22.4069083 45.6508621,28.1529428 44.0046552,34.0715635 C42.4682759,39.595529 36.9768966,43.9101842 30.4258621,46.0970808 C27.2287931,47.1869083 23.9267241,47.3667359 20.5281034,47.4958739" id="Fill-333" fill="#FF5900"></path>
                <path d="M132.529069,2.87135662 C131.76631,5.79687386 130.425448,5.9573911 128.746655,5.9573911 L125.475966,5.9573911 C122.742345,5.9573911 122.523897,4.78790834 123.075448,2.87135662 L126.30631,2.87135662 C125.998552,3.86704628 125.596655,4.77704628 127.31769,4.77704628 C128.448552,4.77704628 128.828724,4.50428765 129.263207,2.92687386 L132.529069,2.87135662 Z M163.344759,18.1277359 L160.891138,14.9511842 L160.67631,15.7561842 C160.051138,18.1868739 160.078897,19.1849773 161.569414,19.1849773 C162.396138,19.1849773 162.925966,18.861529 163.344759,18.1277359 L163.344759,18.1277359 Z M161.750448,13.4473911 L164.204069,16.6323911 L164.443034,15.7646325 C164.940276,13.8311842 165.326483,12.4830808 163.564414,12.4661842 C162.668897,12.4577359 162.129414,12.8234256 161.750448,13.4473911 L161.750448,13.4473911 Z M177.89269,11.8530808 L178.550448,9.05790834 L169.370793,9.05790834 L165.900966,22.5594601 L162.799241,22.5594601 L163.617517,19.6122187 C162.726828,20.5499773 161.172345,20.8468739 159.922,20.8468739 C156.541483,20.8468739 157.099069,17.5954946 157.610793,15.6041152 C158.112862,13.6525635 159.149586,10.7958394 162.435966,10.7958394 C163.617517,10.7958394 164.922172,11.1132532 165.380793,11.9363566 L166.112172,9.05790834 L158.595621,9.05790834 L159.059069,7.57463248 L181.119931,7.57463248 L178.409241,4.22187386 L180.670966,2.563598 L183.56269,7.57463248 L184.438897,7.57463248 L182.121655,1.48342559 L184.855276,0.268080758 L186.453207,7.57463248 L207.280621,7.57463248 L206.817172,9.05790834 L205.075621,9.05790834 L201.602172,22.5703221 L198.502862,22.5703221 L201.975103,9.05790834 L199.282517,9.05790834 L198.203552,12.4891152 L193.870793,12.4891152 C192.458724,12.4891152 192.070103,14.1787704 191.490793,16.6710118 C190.795621,19.6677359 190.258552,21.4720463 192.206483,21.4720463 C192.340448,21.4720463 192.55769,21.416529 192.828034,21.3260118 C192.625276,19.4818739 193.684931,17.3299773 195.867,17.3299773 C197.860793,17.3299773 197.865621,18.4246325 197.592862,19.386529 C197.213897,20.7430808 196.517517,21.4732532 195.174241,21.8522187 C195.865793,23.155667 197.533724,23.2570463 197.533724,23.2570463 L194.199069,25.0879083 C193.435103,24.181529 192.974069,23.3789428 192.838897,22.4544601 C192.019414,22.6717014 191.115448,22.735667 190.42631,22.735667 C186.419414,22.735667 187.088034,18.8229083 187.763897,16.1725635 C188.457862,13.448598 189.643034,11.0613566 192.930621,11.0613566 C194.109759,11.0613566 195.436138,11.1361842 195.436138,11.1361842 L196.02631,9.05790834 L187.290793,9.05790834 L183.817345,22.5703221 L180.718034,22.5703221 L184.189069,9.05790834 L181.705276,9.05790834 L180.468207,13.8227359 L177.355621,13.8227359 C177.61631,12.7751497 177.133552,12.3901497 175.813207,12.3901497 C174.613552,12.3901497 174.257517,12.5579083 173.76631,14.265667 C173.41269,15.7260118 173.829069,16.0337704 175.276138,15.9975635 L177.753897,15.9975635 C179.571483,15.9975635 179.898552,16.6830808 179.256483,19.386529 C178.45631,22.431529 176.969414,22.6089428 175.109586,22.6077359 L171.485276,22.6077359 C168.317172,22.6089428 168.198897,21.1908394 168.914586,18.8904946 L172.493034,18.8904946 C172.163552,20.1022187 171.446655,21.300667 173.526138,21.300667 C174.780103,21.300667 175.198897,20.9989428 175.682862,19.2501497 C176.07631,17.9889428 176.169241,17.3348049 174.257517,17.3348049 C174.257517,17.3348049 172.566655,17.3046325 171.754414,17.3058394 C169.630276,17.3058394 169.967,15.5075635 170.353207,14.0194601 C171.105103,11.2677359 171.643379,10.9141152 174.811483,10.9141152 C176.754586,10.9141152 177.61631,11.1253221 177.89269,11.8530808 L177.89269,11.8530808 Z M86.842,19.2103221 C87.9523448,19.2103221 88.4206207,18.1953221 89.047,15.7646325 C89.5430345,13.8311842 89.909931,12.4903221 88.5678621,12.4903221 C87.1557931,12.4903221 86.8347586,13.8311842 86.3375172,15.7646325 C85.7123448,18.1953221 85.6604483,19.2103221 86.842,19.2103221 L86.842,19.2103221 Z M87.4201034,22.5522187 C88.2383793,19.6049773 88.2202759,19.6122186 88.2202759,19.6122186 L87.4201034,22.5522187 Z M76.6606207,18.0010118 L74.1828621,14.7918739 C74.0935517,15.093598 74.0102759,15.4170463 73.9221724,15.7561842 C73.2982069,18.1868739 73.3235517,19.1849773 74.8164828,19.1849773 C75.689069,19.1849773 76.2309655,18.8229083 76.6606207,18.0010118 L76.6606207,18.0010118 Z M74.8056207,13.3291152 L77.229069,16.4742877 L77.4221724,15.7646325 C77.9194138,13.8311842 78.3044138,12.4830808 76.5423448,12.4661842 C75.7047586,12.4577359 75.1797586,12.7763566 74.8056207,13.3291152 L74.8056207,13.3291152 Z M77.1904483,7.57463248 L74.4785517,4.22187386 L76.7402759,2.563598 L79.6332069,7.57463248 L80.5082069,7.57463248 L78.1933793,1.48342559 L80.927,0.268080758 L82.5225172,7.57463248 L100.599414,7.57463248 L100.134759,9.05790834 L93.854069,9.05790834 L93.0828621,12.1910118 C93.9264828,11.2532532 94.9607931,10.8911842 96.2111379,10.8911842 C99.5916552,10.8911842 98.8506207,14.0870463 98.3401034,16.0772187 C97.8380345,18.0299773 96.9895862,20.8517014 93.702,20.8517014 C93.0551034,20.8517014 92.4697586,20.7213566 92.1366552,20.4220463 L92.3695862,19.5482532 C92.4528621,19.5627359 92.5747586,19.6267014 92.6761379,19.6267014 C94.087,19.6267014 94.4707931,17.9358394 94.9668276,16.0023911 C95.5932069,13.5717014 95.6438966,12.5567014 94.4635517,12.5567014 C93.4787241,12.5567014 92.8957931,13.2880808 92.3406207,15.1527359 L90.5037241,22.5594601 L87.4201034,22.5522187 L88.2202759,19.6122187 C87.3307931,20.5499773 86.3435517,20.8758394 85.0932069,20.8758394 C81.7138966,20.8758394 82.4838966,17.5037704 82.9956207,15.513598 C83.4964828,13.5596325 84.3195862,10.8260118 87.6071724,10.8260118 C88.7875172,10.8260118 89.5237241,11.1132532 89.9847586,11.9363566 L90.714931,9.05790834 L82.3487241,9.05790834 L78.8788966,22.5594601 L75.7771724,22.5594601 L76.5942414,19.6122187 C75.7059655,20.5499773 74.1502759,20.8468739 72.9011379,20.8468739 C69.5206207,20.8468739 70.194069,17.4023911 70.7045862,15.4110118 C71.2066552,13.4582532 72.1263103,10.7958394 75.4138966,10.7958394 C76.5942414,10.7958394 77.8988966,11.1132532 78.3587241,11.9363566 L79.0901034,9.05790834 L71.524069,9.05790834 L71.9875172,7.57463248 L77.1904483,7.57463248 Z M111.285276,22.5449773 L106.654414,22.5449773 L107.045448,21.0146325 L111.08131,21.0146325 C112.102345,21.0146325 113.609759,20.4401497 114.129931,18.4149773 C114.459414,17.1308394 113.907862,15.6463566 112.064931,15.6463566 L109.032,15.6463566 L109.437517,13.9748049 L112.952,13.9748049 C114.198724,13.9748049 115.154586,12.9151497 115.514241,11.5103221 C115.788207,10.4482532 115.723034,9.02652903 113.87769,9.02652903 L110.106138,9.02652903 L110.495966,7.4973911 L115.03269,7.4973911 C117.331828,7.4973911 119.828897,8.48704628 119.16269,11.2472187 C118.666655,13.3013566 117.609414,14.3320463 115.187172,14.7194601 C117.695103,15.0610118 118.189931,16.7277359 117.679414,18.7142877 C116.736828,22.3844601 112.839759,22.5449773 111.285276,22.5449773 L111.285276,22.5449773 Z M139.230966,9.05790834 L136.778552,9.05790834 L134.864414,16.4272187 C134.642345,17.2901497 134.665276,17.9213566 135.706828,17.9213566 C136.748379,17.9213566 137.144241,16.9389428 137.367517,16.0772187 L139.230966,9.05790834 Z M120.813724,7.57463248 L148.583207,7.57463248 L148.118552,9.05790834 L142.498034,9.05790834 L141.573552,12.6194601 C142.440103,11.7710118 143.48769,11.3896325 144.706655,11.3896325 C146.25631,11.3896325 147.427,12.1548049 147.081828,13.4944601 L145.089241,21.2475635 L141.824586,21.2475635 L143.535966,14.5854946 C143.758034,13.7249773 143.744759,13.0551497 142.703207,13.0551497 C141.952517,13.0551497 141.434759,13.6851497 141.120966,14.3598049 L140.311138,17.4796325 C140.148207,18.1120463 139.246655,21.9246325 139.153724,22.5570463 L135.773207,22.5570463 L136.80631,18.418598 C135.890276,19.2791152 134.932,19.585667 133.704586,19.585667 C132.152517,19.585667 130.984241,18.8204946 131.328207,17.4796325 L133.515103,9.05790834 L130.929931,9.05790834 L127.45769,22.5703221 L124.357172,22.5703221 L127.828207,9.05790834 L125.375793,9.05790834 L121.903552,22.5703221 L118.803034,22.5703221 L120.627862,15.4737704 L118.106655,15.4725635 L118.527862,13.961529 L121.015276,13.961529 L122.275276,9.05790834 L120.349069,9.05790834 L120.813724,7.57463248 Z M83.7692414,3.8948049 L86.7201034,3.8948049 L86.0563103,6.35204628 L83.1066552,6.35204628 L83.7692414,3.8948049 Z M131.008379,21.5601497 L133.959241,21.5601497 L133.295448,24.0173911 L130.344586,24.0173911 L131.008379,21.5601497 Z M171.435793,23.9823911 L174.386655,23.9823911 L173.722862,26.4396325 L170.772,26.4396325 L171.435793,23.9823911 Z" id="Fill-335" fill="#FF5900"></path>
                <path d="M76.993,37.7552532 C78.3411034,37.7552532 78.8805862,37.2978394 79.1714483,35.7542187 L79.2897241,35.1568049 C79.5298966,33.8147359 79.2752414,33.0881842 77.7726552,33.0881842 L77.0002414,33.0881842 L76.0311034,37.7552532 L76.993,37.7552532 Z M74.2123103,46.3640463 L75.3974828,46.3640463 C76.7467931,46.3640463 77.4673103,45.7847359 77.7798966,43.9659428 L77.9802414,42.9388739 C78.2433448,41.3759428 77.9235172,40.5781842 76.200069,40.5781842 L75.4348966,40.5781842 L74.2123103,46.3640463 Z M74.0240345,30.1795635 L78.6923103,30.1795635 C82.1247241,30.1795635 83.4571379,32.1757704 82.8452414,35.342667 L82.7354138,35.9171497 C82.3202414,38.0147359 81.2255862,38.9621497 79.9752414,39.3230118 C81.2738621,39.9566325 82.0740345,41.3397359 81.6492069,43.5712877 L81.4898966,44.3823221 C80.8598966,47.7519773 79.1533448,49.2388739 75.4662759,49.2388739 L70.0135172,49.2388739 L74.0240345,30.1795635 Z" id="Fill-337" fill="#FF5900"></path>
                <path d="M88.8238448,42.4643221 C88.5281552,42.4969083 88.2372931,42.5343221 87.9753966,42.6019083 C86.8481552,42.8782877 86.2253966,43.3200118 85.9297069,44.6403566 C85.7185,45.6179428 85.8247069,46.4482877 86.7262586,46.4482877 C87.7291897,46.4482877 88.1841897,45.5793221 88.5076379,43.9982877 L88.8238448,42.4643221 Z M91.8193621,45.3584601 C91.5671207,46.5919083 91.1362586,48.6062187 91.0566034,49.2386325 L87.5047069,49.2386325 C87.5300517,48.9670808 87.5891897,48.4819083 87.666431,48.0582877 C86.9121207,49.0250118 86.1059138,49.4727704 84.8145345,49.4727704 C82.3271207,49.4727704 81.7466034,47.2412187 82.2728103,44.7067359 C82.9631552,41.4650118 84.6926379,40.5200118 87.9452241,40.0372532 C88.3978103,39.9612187 88.8660862,39.9129428 89.3440172,39.8670808 L89.6529828,38.4477704 C89.8545345,37.4750118 89.8074655,36.7689773 88.8962586,36.7689773 C88.1298793,36.7689773 87.8703966,37.3748394 87.6362586,38.3331152 L87.5590172,38.662598 L84.0469483,38.662598 L84.0891897,38.464667 C84.6081552,36.0943221 85.6183276,34.100529 89.1738448,34.100529 C92.4879828,34.100529 93.8590172,35.6489773 93.2157414,38.7036325 L91.8193621,45.3584601 Z" id="Fill-339" fill="#FF5900"></path>
                <path d="M95.0151034,38.9008394 C95.6185517,36.0163566 95.8297586,34.9373911 95.9371724,34.3279083 L99.5288966,34.3279083 C99.4878621,34.6827359 99.4226897,35.1498049 99.3430345,35.5360118 C99.954931,34.7479083 100.902345,34.1010118 102.355448,34.1010118 C104.537517,34.1010118 105.436655,35.6892877 104.894759,38.263598 L102.582345,49.2379083 L98.9133793,49.2379083 L101.082172,38.8851497 C101.336828,37.7011842 101.093034,37.0989428 100.282,37.0989428 C99.394931,37.0989428 98.9411379,37.691529 98.5911379,39.383598 L96.514069,49.2379083 L92.8451034,49.2379083 L95.0151034,38.9008394 Z" id="Fill-341" fill="#FF5900"></path>
                <path d="M109.910379,40.3575635 L109.956241,40.3575635 C110.977276,38.6582532 112.528138,36.1334256 113.666241,34.3279083 L117.620034,34.3279083 C116.279172,36.2637704 114.821241,38.1561842 113.526241,40.0111842 C113.521414,40.4879083 114.677621,48.7394601 114.677621,49.2379083 L110.970034,49.2379083 C110.974862,48.9687704 110.424517,43.2673911 110.424517,43.0513566 C110.00331,43.6717014 109.306931,44.5454946 108.967793,44.9860118 L108.066241,49.2379083 L104.433483,49.2379083 L108.621414,29.3120463 L112.251759,29.3120463 L109.910379,40.3575635 Z" id="Fill-343" fill="#FF5900"></path>
                <path d="M124.041931,39.8884428 L123.218828,43.8120635 C122.825379,45.7298221 123.084862,46.5468911 124.049172,46.5468911 C124.959172,46.5468911 125.437103,45.5693049 125.824517,43.7493049 L126.647621,39.8329256 C127.004862,38.1372359 127.036241,37.0220635 125.853483,37.0220635 C124.821586,37.0220635 124.365379,38.3158566 124.041931,39.8884428 M130.206759,40.376029 L129.523655,43.6575808 C128.766931,47.3349946 127.274,49.4724083 123.695552,49.4724083 C120.249862,49.4724083 118.799172,47.3349946 119.642793,43.2665463 L120.377793,39.7846497 C121.162276,35.9720635 123.061931,34.1013739 126.13469,34.1013739 C129.654,34.1013739 131.006931,36.4874083 130.206759,40.376029" id="Fill-345" fill="#FF5900"></path>
                <path d="M130.24731,49.2383911 L132.749207,37.3480463 L131.206793,37.3480463 L131.847655,34.3283911 L133.384034,34.3283911 L133.610931,33.2361497 C134.12869,30.8054601 135.054379,29.1278739 137.954552,29.1278739 C138.497655,29.1278739 139.358172,29.2377014 139.646621,29.3294256 L139.03231,32.2078739 C138.833172,32.1668394 138.626793,32.1499428 138.420414,32.1499428 C137.679379,32.1499428 137.438,32.567529 137.267828,33.3701152 L137.063862,34.3283911 L138.804207,34.3283911 L138.162138,37.3480463 L136.431448,37.3480463 L133.928345,49.2383911 L130.24731,49.2383911 Z" id="Fill-347" fill="#FF5900"></path>
                <path d="M147.1085,37.7552532 C148.45781,37.7552532 148.996086,37.2978394 149.288155,35.7542187 L149.406431,35.1568049 C149.645397,33.8147359 149.391948,33.0881842 147.888155,33.0881842 L147.115741,33.0881842 L146.146603,37.7552532 L147.1085,37.7552532 Z M144.329017,46.3640463 L145.51419,46.3640463 C146.8635,46.3640463 147.584017,45.7847359 147.896603,43.9659428 L148.095741,42.9388739 C148.360052,41.3759428 148.039017,40.5781842 146.315569,40.5781842 L145.550397,40.5781842 L144.329017,46.3640463 Z M144.139534,30.1795635 L148.809017,30.1795635 C152.240224,30.1795635 153.572638,32.1757704 152.961948,35.342667 L152.852121,35.9171497 C152.436948,38.0147359 151.342293,38.9621497 150.090741,39.3230118 C151.390569,39.9566325 152.189534,41.3397359 151.765914,43.5712877 L151.605397,44.3823221 C150.975397,47.7519773 149.270052,49.2388739 145.582983,49.2388739 L140.130224,49.2388739 L144.139534,30.1795635 Z" id="Fill-349" fill="#FF5900"></path>
                <path d="M158.940552,42.4643221 C158.643655,42.4969083 158.352793,42.5343221 158.090897,42.6019083 C156.963655,42.8782877 156.340897,43.3200118 156.045207,44.6403566 C155.834,45.6179428 155.940207,46.4482877 156.841759,46.4482877 C157.84469,46.4482877 158.29969,45.5793221 158.623138,43.9982877 L158.940552,42.4643221 Z M161.934862,45.3584601 C161.682621,46.5919083 161.251759,48.6062187 161.172103,49.2386325 L157.620207,49.2386325 C157.645552,48.9670808 157.70469,48.4819083 157.781931,48.0582877 C157.027621,49.0250118 156.222621,49.4727704 154.930034,49.4727704 C152.443828,49.4727704 151.862103,47.2412187 152.38831,44.7067359 C153.078655,41.4650118 154.808138,40.5200118 158.060724,40.0372532 C158.51331,39.9612187 158.981586,39.9129428 159.459517,39.8670808 L159.768483,38.4477704 C159.971241,37.4750118 159.922966,36.7689773 159.011759,36.7689773 C158.245379,36.7689773 157.985897,37.3748394 157.751759,38.3331152 L157.674517,38.662598 L154.162448,38.662598 L154.20469,38.464667 C154.723655,36.0943221 155.733828,34.100529 159.289345,34.100529 C162.60469,34.100529 163.974517,35.6489773 163.331241,38.7036325 L161.934862,45.3584601 Z" id="Fill-351" fill="#FF5900"></path>
                <path d="M165.030431,39.3881842 C165.550603,36.8609428 165.884914,35.3318049 166.050259,34.327667 L169.545431,34.327667 C169.495948,34.8080118 169.388534,35.5562877 169.174914,36.5797359 C170.013707,34.758529 171.349741,34.1043911 172.925948,34.1007704 L172.013534,38.3152532 C169.75181,38.2030118 168.742845,39.0816325 168.165948,41.8273221 L166.629569,49.2388739 L162.96181,49.2388739 L165.030431,39.3881842 Z" id="Fill-353" fill="#FF5900"></path>
                <path d="M176.214259,39.8884428 L175.389948,43.8120635 C174.9965,45.7298221 175.25719,46.5468911 176.220293,46.5468911 C177.1315,46.5468911 177.609431,45.5693049 177.996845,43.7493049 L178.819948,39.8329256 C179.17719,38.1372359 179.208569,37.0220635 178.02581,37.0220635 C176.992707,37.0220635 176.537707,38.3158566 176.214259,39.8884428 M182.379086,40.376029 L181.695983,43.6575808 C180.939259,47.3349946 179.446328,49.4724083 175.867879,49.4724083 C172.42219,49.4724083 170.9715,47.3349946 171.815121,43.2665463 L172.550121,39.7846497 C173.334603,35.9720635 175.234259,34.1013739 178.30581,34.1013739 C181.825121,34.1013739 183.179259,36.4874083 182.379086,40.376029" id="Fill-355" fill="#FF5900"></path>
                <path d="M187.317948,39.9421497 L186.562431,43.5037014 C186.1545,45.4697359 186.351224,46.4316325 187.284155,46.4316325 C188.371569,46.4316325 188.812086,45.4057704 189.2695,43.2237014 L189.938121,40.0543911 C190.360534,38.0774946 190.336397,37.0987014 189.188638,37.0987014 C188.302776,37.0987014 187.723466,38.0111152 187.317948,39.9421497 L187.317948,39.9421497 Z M195.792776,29.3118049 L192.493121,44.9773221 C192.046569,47.0869773 191.796741,48.408529 191.660362,49.2388739 L188.073466,49.2388739 C188.106052,48.840598 188.147086,48.3964601 188.23881,47.9571497 C187.462776,48.9938739 186.685534,49.4730118 185.302431,49.4730118 C182.804155,49.4730118 182.073983,47.2028394 182.913983,43.2804256 L183.652603,39.7840463 C184.440707,36.158529 185.882948,34.1007704 188.415017,34.1007704 C189.594155,34.1007704 190.508983,34.5364601 190.858983,35.2593911 L192.108121,29.3118049 L195.792776,29.3118049 Z" id="Fill-357" fill="#FF5900"></path>
                <path d="M200.453569,42.4643221 C200.156672,42.4969083 199.86581,42.5343221 199.603914,42.6019083 C198.476672,42.8782877 197.853914,43.3200118 197.558224,44.6403566 C197.347017,45.6179428 197.453224,46.4482877 198.354776,46.4482877 C199.357707,46.4482877 199.812707,45.5793221 200.136155,43.9982877 L200.453569,42.4643221 Z M203.447879,45.3584601 C203.195638,46.5919083 202.764776,48.6062187 202.685121,49.2386325 L199.133224,49.2386325 C199.158569,48.9670808 199.217707,48.4819083 199.294948,48.0582877 C198.540638,49.0250118 197.735638,49.4727704 196.443052,49.4727704 C193.956845,49.4727704 193.373914,47.2412187 193.902534,44.7067359 C194.591672,41.4650118 196.322362,40.5200118 199.573741,40.0372532 C200.026328,39.9612187 200.494603,39.9129428 200.972534,39.8670808 L201.2815,38.4477704 C201.484259,37.4750118 201.435983,36.7689773 200.524776,36.7689773 C199.758397,36.7689773 199.498914,37.3748394 199.264776,38.3331152 L199.187534,38.662598 L195.675466,38.662598 L195.717707,38.464667 C196.236672,36.0943221 197.246845,34.100529 200.802362,34.100529 C204.117707,34.100529 205.487534,35.6489773 204.844259,38.7036325 L203.447879,45.3584601 Z" id="Fill-359" fill="#FF5900"></path>
                <polygon id="Fill-361" fill="#FFE000" points="69.2027241 68.9234773 132.664966 68.9234773 132.664966 56.2933049 69.2027241 56.2933049"></polygon>
                <polygon id="Fill-363" fill="#C3272A" points="69.2027241 68.9246842 79.8077241 68.9246842 79.8077241 56.2933049 69.2027241 56.2933049"></polygon>
                <polygon id="Fill-364" fill="#263276" points="69.1435862 53.7443394 204.548931 53.7443394 204.548931 53.4293394 69.1435862 53.4293394"></polygon>
                <polygon id="Fill-365" fill="#263276" points="136.735828 68.8824428 137.050828 68.8824428 137.050828 56.3089946 136.735828 56.3089946"></polygon>
                <path d="M73.1460172,61.9520808 C73.0398103,61.9919083 72.9408448,62.0788049 72.8720517,62.1789773 C72.9698103,62.2344946 73.0711897,62.310529 73.1291207,62.3853566 C73.1532586,62.252598 73.1544655,62.0848394 73.1460172,61.9520808 M74.3456724,59.884667 C74.3915345,59.814667 74.4168793,59.8050118 74.4627414,59.7350118 C74.362569,59.5660463 74.3722241,59.370529 74.3480862,59.207598 C74.2672241,59.1967359 74.2141207,59.1303566 74.2213621,58.8358739 C74.2273966,58.6113911 74.2273966,58.4786325 74.3782586,58.4786325 C74.3046379,58.239667 74.3939483,57.9838049 74.5786034,57.7786325 C74.7173966,57.6241497 75.0987759,57.5650118 75.4487759,57.5770808 C75.8748103,57.5915635 76.2658448,57.7279428 76.1705,57.9958739 C76.2211897,58.0200118 76.2827414,58.0272532 76.3020517,58.0682877 C76.4142931,58.2963911 76.4215345,58.554667 76.2803276,58.8310463 C76.2332586,59.3536325 75.9942931,59.7929428 75.5682586,60.1489773 C75.7432586,60.2419083 75.913431,60.3179428 76.0787759,60.4313911 C76.193431,60.5110463 76.2429138,60.6413911 76.3237759,60.9093221 C76.4806724,61.4343221 76.6146379,61.9617359 76.5156724,62.5688049 C76.2694655,62.8077704 75.9870517,62.9972532 75.6720517,63.115529 C75.5779138,63.150529 75.5380862,63.0998394 75.5139483,63.0624256 C75.4246379,63.3086325 75.3317069,63.5536325 75.2303276,63.7986325 C75.1965345,63.8179428 75.1723966,63.8263911 75.1217069,63.8324256 C74.9406724,65.0477704 74.7511897,66.2486325 74.8103276,67.4651842 C74.8911897,67.5991497 74.9732586,67.7331152 75.0541207,67.8658739 C74.8067069,67.8731152 74.513431,67.8888049 74.2672241,67.8550118 C74.2744655,67.7439773 74.3372241,67.6051842 74.3806724,67.490529 C74.2648103,66.872598 74.2117069,66.2486325 74.0946379,65.6294946 C74.0017069,66.2751842 73.9341207,66.9112187 73.8399828,67.5569083 C73.8882586,67.6269083 73.907569,67.7053566 73.9256724,67.7874256 C73.6348103,67.8658739 73.4332586,67.8284601 73.3161897,67.770529 C73.3511897,67.6667359 73.3837759,67.6100118 73.4308448,67.5436325 C73.4356724,66.6541497 73.4042931,65.764667 73.3548103,64.8739773 C73.2099828,64.294667 73.1846379,63.7394946 73.2123966,63.1963911 C72.6029138,62.9260463 72.2118793,62.6086325 72.0405,62.2441497 C72.5582586,60.887598 73.3282586,60.105529 74.3456724,59.884667" id="Fill-366" fill="#263276"></path>
                <path d="M75.3263966,60.3751497 C75.3855345,60.336529 75.4446724,60.2979083 75.5026034,60.2580808 C75.6776034,60.3618739 75.8550172,60.4608394 76.0276034,60.5694601 C76.1338103,60.6370463 76.1736379,60.7408394 76.1446724,60.8808394 C76.1193276,61.0039428 76.0843276,61.1234256 76.0396724,61.2368739 C75.9298448,61.2417014 75.8260517,61.2248049 75.7246724,61.2042877 L75.7246724,61.0039428 C75.7246724,60.9170463 75.5931207,60.9629083 75.5895,61.0099773 C75.5810517,61.1596325 75.5726034,61.3080808 75.5617414,61.4577359 C75.5545,61.5796325 75.7005345,61.5313566 75.7077759,61.4287704 C75.7101897,61.3973911 75.7126034,61.3660118 75.7162241,61.3346325 L75.9853621,61.3503221 C75.8489828,61.9525635 75.6051897,62.6453221 75.1779483,63.5673911 C75.1501897,63.6253221 75.1272586,63.6723911 75.0608793,63.6723911 C74.9908793,63.673598 74.9136379,63.6796325 74.8436379,63.6699773 C74.9776034,63.2922187 75.0886379,62.8951497 75.1634655,62.5113566 C75.1743276,62.5391152 75.2008793,62.5608394 75.2334655,62.5608394 C75.2757069,62.5608394 75.3082931,62.5258394 75.3082931,62.4823911 C75.3082931,62.4377359 75.2757069,62.4039428 75.2334655,62.4039428 C75.2117414,62.4039428 75.1936379,62.4123911 75.1791552,62.4268739 C75.2117414,62.250667 75.2395,62.0744601 75.2600172,61.8970463 C75.2720862,61.9260118 75.2998448,61.9453221 75.3300172,61.9453221 C75.3722586,61.9453221 75.4048448,61.9091152 75.4048448,61.8668739 C75.4048448,61.8234256 75.3722586,61.7884256 75.3300172,61.7884256 C75.3046724,61.7884256 75.2841552,61.8004946 75.2696724,61.8198049 C75.2926034,61.6254946 75.3070862,61.4311842 75.3167414,61.235667 C75.3300172,61.2598049 75.3553621,61.2779083 75.3843276,61.2779083 C75.426569,61.2779083 75.4603621,61.2429083 75.4603621,61.1994601 C75.4603621,61.1560118 75.426569,61.1210118 75.3843276,61.1210118 C75.3577759,61.1210118 75.3348448,61.1342877 75.321569,61.1560118 C75.3336379,60.896529 75.3348448,60.6370463 75.3263966,60.3751497 M73.4351897,60.4668739 C73.6946724,60.2254946 74.0036379,60.0975635 74.3307069,60.0094601 C74.5720862,60.2122187 74.8484655,60.3582532 75.1731207,60.4234256 C75.2563966,61.6049773 75.1308793,62.6996325 74.6939828,63.6651497 C74.2389828,63.708598 73.8226034,63.6530808 73.4219138,63.5770463 C73.3627759,63.5661842 73.3253621,63.5529083 73.326569,63.4672187 C73.3289828,63.3417014 73.3422586,63.2210118 73.361569,63.0991152 C73.6126034,63.1063566 73.8467414,63.1148049 74.1158793,63.1232532 C74.2027759,63.125667 74.2450172,62.9832532 74.1327759,62.9723911 C73.9577759,62.9554946 73.7972586,62.938598 73.6307069,62.9217014 C73.4991552,62.7768739 73.3676034,62.6320463 73.2360517,62.4872187 C73.2589828,62.2892877 73.2589828,62.0829083 73.2445,61.8704946 C73.4255345,61.7594601 73.571569,61.6617014 73.7019138,61.5687704 C73.8226034,61.1282532 73.7079483,60.7698049 73.4351897,60.4668739 M74.4972586,59.8260118 C74.5153621,59.8332532 75.0355345,60.173598 75.2612241,60.208598 C75.2527759,60.2484256 75.2455345,60.2894601 75.2370862,60.3292877 C74.8895,60.266529 74.6239828,60.150667 74.4501897,59.963598 C74.411569,59.9225635 74.4779483,59.8199773 74.4972586,59.8260118 M75.8972586,62.0563566 C75.9093276,62.1541152 75.9057069,62.2518739 75.8851897,62.3496325 C75.7681207,62.518598 75.6426034,62.6742877 75.5460517,62.856529 C75.507431,62.9313566 75.5376034,63.0604946 75.6534655,63.0267014 C75.9757069,62.9301497 76.1977759,62.7189428 76.4101897,62.4992877 C76.5091552,61.8029083 76.3788103,61.4094601 76.242431,61.0473911 C76.242431,61.0473911 75.8851897,61.958598 75.8972586,62.0563566 M73.2843276,60.5513566 C73.5003621,60.7118739 73.6850172,60.9580808 73.6282931,61.3780808 C73.6162241,61.4613566 73.5498448,61.5373911 73.4798448,61.5808394 C73.1467414,61.783598 72.8957069,61.9827359 72.7110517,62.2313566 C73.011569,62.390667 73.2384655,62.6284256 73.4122586,62.9180808 C73.2843276,62.8903221 73.2191552,62.9458394 73.2167414,63.0870463 C72.7303621,62.9108394 72.4069138,62.5801497 72.1184655,62.2180808 C72.3888103,61.5663566 72.7617414,60.9979083 73.2843276,60.5513566 M75.8731207,58.2787704 C75.5291552,58.3318739 75.2672586,58.2244601 75.0077759,58.1146325 C74.8351897,58.0422187 74.7132931,58.0929083 74.667431,58.2630808 C74.6300172,58.3958394 74.6058793,58.5346325 74.5769138,58.6698049 C74.5467414,58.6577359 74.5238103,58.6167014 74.4634655,58.6227359 C74.3898448,58.6287704 74.3801897,58.6987704 74.3693276,58.8170463 C74.3632931,58.8822187 74.3451897,58.9775635 74.4127759,59.0077359 C74.4429483,59.0198049 74.4779483,58.9980808 74.4863966,58.9703221 C74.5020862,59.0741152 74.5129483,59.1754946 74.5020862,59.2708394 C74.4803621,59.275667 74.4489828,59.2732532 74.4453621,59.2961842 C74.4284655,59.3758394 74.4369138,59.473598 74.4682931,59.5484256 C74.6010517,59.8525635 74.9450172,60.0589428 75.2539828,60.0987704 C75.4277759,60.1229083 75.6751897,60.0203221 75.717431,59.8320463 C75.7282931,59.7837704 75.7041552,59.7849773 75.6607069,59.8018739 C75.3058793,59.9479083 75.0946724,59.6896325 75.0584655,59.566529 C75.0536379,59.5472187 75.0753621,59.5110118 75.0934655,59.5194601 C75.2998448,59.6196325 75.4507069,59.7741152 75.8031207,59.730667 C75.9467414,59.5568739 76.0553621,59.3613566 76.0927759,59.170667 C76.021569,59.2310118 75.9479483,59.2599773 75.8707069,59.2660118 C75.8996724,59.5363566 75.4446724,59.5303221 75.4060517,59.2430808 C75.4953621,59.298598 75.5967414,59.3203221 75.706569,59.3142877 C75.7584655,59.3118739 75.7922586,59.286529 75.7922586,59.2358394 L75.7922586,59.100667 C75.8827759,59.1598049 75.9732931,59.1851497 76.1096724,59.0837704 C76.1157069,58.9920463 76.126569,58.8979083 76.1313966,58.8049773 C76.0034655,58.7832532 75.9346724,58.7639428 75.927431,58.7108394 C76.0034655,58.6758394 76.0951897,58.6637704 76.2013966,58.6758394 C76.2182931,58.5418739 76.2062241,58.4537704 76.1700172,58.3644601 C76.1157069,58.2341152 76.0058793,58.2582532 75.8731207,58.2787704 M75.0331207,58.8761842 C75.1538103,58.9123911 75.2938103,58.9317014 75.3710517,58.8641152 C75.4108793,58.9558394 75.3577759,58.9968739 75.2817414,59.0041152 C75.1767414,59.0137704 75.0319138,58.9582532 75.0331207,58.8761842 M75.076569,58.516529 C75.2962241,58.4296325 75.4362241,58.4803221 75.5520862,58.5696325 C75.612431,58.6142877 75.5557069,58.7096325 75.4905345,58.6758394 C75.3601897,58.6094601 75.2455345,58.5225635 75.076569,58.516529" id="Fill-367" fill="#FFFFFF"></path>
                <polygon id="Fill-368" fill="#263276" points="141.120483 68.8824428 204.320828 68.8824428 204.320828 56.3089946 141.120483 56.3089946"></polygon>
                <polygon id="Fill-369" fill="#FFFFFF" points="143.721345 66.9864083 148.565828 66.9864083 148.565828 58.6153739 143.721345 58.6153739"></polygon>
                <path d="M149.141517,66.951167 L149.141517,63.7589256 L150.967552,63.7673739 C152.91669,63.6346152 153.086862,61.957029 150.945828,61.7772014 L149.141517,61.7772014 L149.141517,58.6151325 C158.721862,57.8487532 158.912552,67.7489256 149.141517,66.951167" id="Fill-370" fill="#FFFFFF"></path>
                <path d="M145.312276,59.9448911 C145.741931,59.2038566 146.700207,59.3655808 146.947621,59.9762704 C147.685034,59.9629946 148.148483,60.2900635 147.820207,60.9393739 C148.389862,61.253167 148.249862,61.5669601 147.977103,61.8348911 C147.647621,62.2235118 147.965034,62.3997187 148.111069,62.5855808 L148.111069,65.6921325 L148.111069,66.2605808 L144.129517,66.2605808 L144.129517,62.5047187 C144.592966,62.279029 144.541069,62.0074773 144.308138,61.7745463 C143.936414,61.3497187 144.042621,61.054029 144.462621,60.9067877 C144.096931,60.1452359 144.745034,59.8423049 145.312276,59.9448911" id="Fill-371" fill="#FFFFFF"></path>
                <path d="M146.260414,60.9863221 C146.285759,60.9658049 146.354552,61.0394256 146.342483,61.0852877 C146.337655,61.1106325 146.321966,61.1697704 146.342483,61.1854601 C146.34731,61.1902877 146.358172,61.1721842 146.370241,61.1649428 C146.383517,61.1564946 146.393172,61.1589083 146.393172,61.1637359 C146.395586,61.1709773 146.400414,61.1999428 146.398,61.2228739 C146.396793,61.2482187 146.390759,61.2856325 146.375069,61.2868394 C146.359379,61.2892532 146.350931,61.2602877 146.348517,61.279598 C146.336448,61.3809773 146.266448,61.4183911 146.208517,61.4449428 C146.097483,61.4932187 146.000931,61.419598 146.002138,61.4220118 C145.976793,61.4039083 145.943,61.3568394 145.917655,61.3158049 C145.905586,61.2928739 145.901966,61.2482187 145.88869,61.2614946 C145.856103,61.2989083 145.852483,61.2023566 145.851276,61.1697704 C145.851276,61.1649428 145.858517,61.1504601 145.876621,61.1613221 C145.879034,61.162529 145.88869,61.1842532 145.89231,61.186667 C145.935759,61.2108049 145.92731,61.1371842 145.92731,61.0828739 C145.926103,61.0273566 145.988862,60.9404601 146.015414,60.976667 C146.058862,61.0309773 146.229034,61.0128739 146.260414,60.9863221 L146.260414,60.9863221 Z M146.185586,61.1263221 C146.20369,61.1239083 146.225414,61.1094256 146.244724,61.1094256 C146.266448,61.1094256 146.294207,61.1202877 146.314724,61.1263221 C146.301448,61.1154601 146.271276,61.0961497 146.245931,61.0949428 C146.223,61.0937359 146.189207,61.1082187 146.184379,61.1106325 C146.16869,61.1190808 146.160241,61.127529 146.185586,61.1263221 L146.185586,61.1263221 Z M146.041966,60.801667 C146.045586,60.7992532 145.998517,60.7232187 146.050414,60.6580463 C146.072138,60.7051152 146.069724,60.766667 146.041966,60.801667 L146.041966,60.801667 Z M146.120414,60.801667 C146.124034,60.7992532 146.076966,60.7232187 146.128862,60.6580463 C146.151793,60.7051152 146.149379,60.766667 146.120414,60.801667 L146.120414,60.801667 Z M146.198862,60.801667 C146.202483,60.7992532 146.155414,60.7232187 146.208517,60.6580463 C146.229034,60.7051152 146.226621,60.766667 146.198862,60.801667 L146.198862,60.801667 Z M146.268862,60.5168394 C146.215759,60.544598 146.173517,60.5590808 146.13369,60.5590808 C146.093862,60.5602877 146.054034,60.5494256 146.004552,60.5264946 C146.062483,60.4577014 146.13731,60.334598 146.13731,60.3394256 C146.13731,60.3514946 146.194034,60.4456325 146.268862,60.5168394 L146.268862,60.5168394 Z M145.119897,61.2204601 C145.141621,61.232529 145.159724,61.2530463 145.171793,61.2771842 C145.180241,61.2904601 145.180241,61.3109773 145.174207,61.326667 C145.156103,61.3785635 145.116276,61.3737359 145.090931,61.3604601 C145.065586,61.3471842 145.059552,61.3133911 145.072828,61.2735635 C145.084897,61.2337359 145.123517,61.221667 145.119897,61.2204601 L145.119897,61.2204601 Z M145.045069,61.9180463 C145.111448,61.9240808 145.169379,61.9035635 145.222483,61.8601152 L145.205586,61.8335635 C145.222483,61.8613221 145.088517,61.9120118 145.037828,61.9011497 C145.040241,61.9083911 145.042655,61.9108049 145.045069,61.9180463 L145.045069,61.9180463 Z M147.129379,61.2011497 C147.14869,61.209598 147.164379,61.2289083 147.175241,61.2482187 C147.181276,61.2602877 147.181276,61.2783911 147.176448,61.291667 C147.161966,61.3363221 147.125759,61.3314946 147.105241,61.3206325 C147.083517,61.3085635 147.07869,61.2808049 147.088345,61.2470118 C147.099207,61.2120118 147.133,61.2011497 147.129379,61.2011497 L147.129379,61.2011497 Z M147.053345,61.5270118 C147.053345,61.5270118 147.137828,61.5101152 147.147483,61.5390808 C147.170414,61.5668394 147.130586,61.5668394 147.116103,61.5752877 C147.102828,61.5837359 147.123345,61.6308049 147.129379,61.6814946 C147.134207,61.7321842 147.165586,61.6983911 147.176448,61.7177014 C147.247655,61.8444256 147.071448,61.8347704 147.063,61.8094256 C147.04369,61.7623566 147.053345,61.5270118 147.053345,61.5270118 L147.053345,61.5270118 Z M145.96231,60.801667 C145.965931,60.7992532 145.918862,60.7232187 145.971966,60.6580463 C145.99369,60.7051152 145.991276,60.766667 145.96231,60.801667 L145.96231,60.801667 Z M146.27731,60.801667 C146.280931,60.7992532 146.233862,60.7232187 146.285759,60.6580463 C146.30869,60.7051152 146.306276,60.766667 146.27731,60.801667 L146.27731,60.801667 Z M146.678,61.8383911 C146.735931,61.7454601 146.783,61.8202877 146.721448,61.932529 C146.633345,62.0109773 146.329207,62.7677014 146.209724,63.0923566 C146.090241,63.4194256 145.745069,63.7283911 145.688345,63.7428739 C145.631621,63.7573566 145.652138,63.6873566 145.742655,63.6161497 C145.772828,63.5920118 145.980414,63.4447704 146.062483,63.169598 C146.251966,62.5480463 146.633345,61.909598 146.678,61.8383911 L146.678,61.8383911 Z M145.716103,62.3887359 C145.672655,62.3814946 145.707655,62.0568394 145.705241,62.0423566 C145.673862,61.9047704 145.932138,61.757529 146.175931,61.6609773 C146.213345,61.7611497 145.847655,61.8540808 145.741448,62.0447704 C145.737828,62.0508049 145.71731,62.201667 145.757138,62.2692532 C145.775241,62.2994256 145.870586,62.2378739 145.869379,62.2680463 C145.868172,62.3139083 145.71731,62.3851152 145.716103,62.3887359 L145.716103,62.3887359 Z M145.736621,61.5764946 C145.842828,61.5535635 145.763172,61.6863221 145.82231,61.7611497 C145.82231,61.7611497 145.595414,61.8492532 145.629207,61.9651152 C145.614724,61.9952877 145.409552,62.0037359 145.462655,61.8697704 C145.510931,61.7732187 145.605069,61.6030463 145.736621,61.5764946 L145.736621,61.5764946 Z M145.424034,61.9578739 C145.424034,61.9578739 145.512138,62.0314946 145.621966,62.0097704 L145.61231,62.0435635 C145.551966,62.0604601 145.446966,62.0158049 145.404724,61.9868394 L145.424034,61.9578739 Z M145.169379,62.0302877 C145.162138,62.0278739 145.259897,61.9627014 145.274379,61.9783911 C145.287655,62.0339083 145.370931,62.0713221 145.374552,62.1244256 C145.375759,62.1618394 145.360069,62.2077014 145.331103,62.2330463 C145.309379,62.2523566 145.29731,62.2463221 145.285241,62.2282187 C145.238172,62.1618394 145.186276,62.0387359 145.169379,62.0302877 L145.169379,62.0302877 Z M146.830069,62.0073566 C146.861448,61.9578739 146.967655,61.9047704 146.982138,62.0001152 C146.985759,62.0290808 146.965241,62.0858049 146.931448,62.1123566 C146.896448,62.1413221 146.845759,62.1654601 146.845759,62.1654601 C146.845759,62.1654601 146.775759,62.0954601 146.830069,62.0073566 L146.830069,62.0073566 Z M146.927828,61.8830463 L146.939897,61.8673566 C146.954379,61.9132187 147.071448,61.9928739 147.090759,61.9639083 L147.072655,61.9904601 C147.006276,61.9711497 146.956793,61.9373566 146.927828,61.8830463 L146.927828,61.8830463 Z M146.97369,61.8287359 C146.979724,61.8227014 146.982138,61.8190808 146.986966,61.8130463 C147.001448,61.8601152 147.118517,61.9385635 147.137828,61.9108049 L147.119724,61.9373566 C147.053345,61.9180463 147.003862,61.8842532 146.97369,61.8287359 L146.97369,61.8287359 Z M145.071621,61.9820118 C145.068,61.9747704 145.066793,61.9723566 145.063172,61.9651152 C145.115069,61.9771842 145.250241,61.9264946 145.233345,61.897529 L145.250241,61.9252877 C145.195931,61.967529 145.139207,61.9880463 145.071621,61.9820118 L145.071621,61.9820118 Z M146.375069,61.512529 C146.460759,61.512529 146.457138,61.5583911 146.457138,61.5547704 C146.457138,61.5511497 146.389552,61.5837359 146.407655,61.6501152 C146.423345,61.7164946 146.390759,61.7056325 146.376276,61.7032187 C146.360586,61.699598 146.348517,61.5752877 146.291793,61.6814946 C146.262828,61.6368394 146.276103,61.5897704 146.300241,61.5559773 C146.318345,61.5306325 146.338862,61.512529 146.375069,61.512529 L146.375069,61.512529 Z M146.503,61.6090808 C146.598345,61.5777014 146.659897,61.7177014 146.696103,61.7647704 C146.606793,61.7370118 146.598345,61.6332187 146.503,61.6090808 L146.503,61.6090808 Z M145.456621,62.2089083 C145.694379,62.2354601 145.392655,62.5299428 145.326276,62.5733911 C145.251448,62.6252877 145.18869,62.5444256 145.233345,62.4768394 C145.267138,62.4249428 145.313,62.329598 145.329897,62.3114946 C145.368517,62.2680463 145.385414,62.2004601 145.456621,62.2089083 L145.456621,62.2089083 Z M145.401103,62.0459773 C145.401103,62.0459773 145.489207,62.1183911 145.599034,62.096667 L145.589379,62.131667 C145.527828,62.1485635 145.422828,62.1039083 145.381793,62.0749428 L145.401103,62.0459773 Z M145.824724,63.9154601 C145.792138,64.2135635 145.945414,64.3752877 146.008172,64.5961497 C145.805414,64.3427014 145.739034,64.1170118 145.824724,63.9154601 L145.824724,63.9154601 Z M145.965931,63.7863221 C145.933345,64.1254601 146.086621,64.3077014 146.149379,64.5587359 C145.946621,64.2727014 145.880241,64.0144256 145.965931,63.7863221 L145.965931,63.7863221 Z M146.09869,63.5654601 C146.064897,64.0059773 146.218172,64.242529 146.280931,64.5683911 C146.078172,64.1954601 146.011793,63.8623566 146.09869,63.5654601 L146.09869,63.5654601 Z M146.721448,62.0785635 C146.76731,62.1980463 146.943517,62.3464946 146.954379,62.3814946 C146.965241,62.4164946 146.914552,62.4768394 146.875931,62.4877014 C146.838517,62.4985635 146.681621,62.3501152 146.655069,62.2897704 C146.62731,62.2294256 146.686448,62.1413221 146.721448,62.0785635 L146.721448,62.0785635 Z M147.114897,62.4490808 C147.122138,62.4514946 147.125759,62.4527014 147.133,62.4563221 C147.088345,62.4804601 147.035241,62.6047704 147.070241,62.6132187 L147.036448,62.6047704 C147.040069,62.5408049 147.063,62.4889083 147.114897,62.4490808 L147.114897,62.4490808 Z M147.019552,62.4056325 C147.026793,62.4092532 147.031621,62.4104601 147.037655,62.4140808 C146.991793,62.434598 146.925414,62.5528739 146.959207,62.5649428 L146.926621,62.5540808 C146.936276,62.4901152 146.964034,62.4406325 147.019552,62.4056325 L147.019552,62.4056325 Z M145.238172,62.7544256 C145.233345,62.7604601 145.232138,62.7640808 145.22731,62.7689083 C145.206793,62.7254601 145.082483,62.6590808 145.065586,62.6880463 L145.081276,62.6602877 C145.150069,62.6723566 145.204379,62.7013221 145.238172,62.7544256 L145.238172,62.7544256 Z M145.300931,62.6771842 C145.296103,62.6832187 145.29369,62.6856325 145.288862,62.6904601 C145.273172,62.6458049 145.154897,62.5685635 145.136793,62.5963221 L145.154897,62.5685635 C145.221276,62.5878739 145.270759,62.6204601 145.300931,62.6771842 L145.300931,62.6771842 Z M145.04869,62.7218394 C145.068,62.6989083 145.124724,62.7242532 145.148862,62.7363221 C145.218862,62.7689083 145.169379,62.8920118 145.169379,62.9439083 C145.166966,63.0923566 145.061966,63.1756325 145.078862,63.0947704 L145.123517,62.9608049 C145.11869,62.9559773 145.109034,62.9535635 145.101793,62.9571842 L145.047483,63.1152877 C145.041448,63.1358049 145.020931,63.1297704 145.025759,63.1201152 L145.071621,62.9535635 C145.066793,62.9571842 145.054724,62.9439083 145.053517,62.9547704 C145.046276,63.0464946 144.956966,63.1864946 144.984724,63.0706325 L145.026966,62.9439083 C145.025759,62.947529 145.022138,62.9390808 145.016103,62.936667 C145.010069,62.9330463 145.001621,62.936667 145.000414,62.9414946 C144.919552,63.2878739 144.94731,62.9909773 144.984724,62.9330463 C144.989552,62.924598 144.98231,62.9258049 144.966621,62.9282187 L144.921966,62.9789083 C144.901448,62.9994256 144.897828,62.8859773 144.960586,62.8183911 C144.996793,62.7785635 145.031793,62.7399428 145.04869,62.7218394 L145.04869,62.7218394 Z M147.164379,62.5963221 C147.134207,62.586667 147.139034,62.5420118 147.145069,62.5190808 C147.159552,62.457529 147.304379,62.4442532 147.361103,62.4418394 C147.522828,62.434598 147.633862,62.4864946 147.544552,62.481667 L147.388862,62.481667 C147.385241,62.4864946 147.386448,62.4889083 147.392483,62.4949428 L147.495069,62.4961497 L147.573517,62.5009773 C147.598862,62.5070118 147.597655,62.5227014 147.586793,62.5227014 L147.396103,62.5106325 C147.402138,62.5130463 147.385241,62.5154601 147.402138,62.5311497 C147.504724,62.5263221 147.686966,62.5577014 147.540931,62.5552877 L147.399724,62.5528739 C147.399724,62.5528739 147.396103,62.5649428 147.394897,62.5709773 C147.39369,62.5758049 147.398517,62.5721842 147.403345,62.5721842 C147.772655,62.5878739 147.473345,62.5987359 147.402138,62.586667 C147.391276,62.5842532 147.39369,62.5999428 147.399724,62.6108049 L147.46731,62.632529 C147.495069,62.6433911 147.390069,62.6433911 147.294724,62.6289083 C147.239207,62.6204601 147.18731,62.6047704 147.164379,62.5963221 L147.164379,62.5963221 Z M145.171793,64.9413221 C145.408345,64.9171842 145.379379,65.1633911 145.409552,65.2104601 C145.378172,65.2732187 145.146448,64.9859773 145.171793,64.9413221 L145.171793,64.9413221 Z M147.136621,64.989598 C147.119724,65.0270118 146.909724,65.3178739 146.797483,65.2864946 C146.83369,65.2406325 146.889207,64.9642532 147.136621,64.989598 L147.136621,64.989598 Z M145.386621,64.9401152 C145.631621,64.8930463 145.618345,65.2177014 145.743862,65.3504601 C145.609897,65.4240808 145.444552,65.1513221 145.424034,65.0644256 C145.395069,64.9787359 145.386621,64.9401152 145.386621,64.9401152 L145.386621,64.9401152 Z M145.606276,64.8797704 C145.606276,64.8797704 145.839207,64.9220118 145.866966,65.0004601 C145.88869,65.0233911 145.834379,65.2527014 145.897138,65.3577014 C145.681103,65.3613221 145.606276,64.8797704 145.606276,64.8797704 L145.606276,64.8797704 Z M146.13731,64.8242532 C146.225414,64.8689083 146.297828,64.954598 146.348517,65.0499428 C146.377483,65.1030463 146.37869,65.187529 146.356966,65.2514946 C146.284552,65.4590808 146.121621,65.4385635 146.019034,65.386667 C145.917655,65.3335635 145.897138,65.1971842 145.945414,65.0378739 C145.994897,64.8785635 146.154207,64.8278739 146.13731,64.8242532 L146.13731,64.8242532 Z M146.65869,64.9123566 C146.673172,64.9268394 146.562138,65.386667 146.355759,65.3902877 C146.400414,65.281667 146.431793,65.1332187 146.416103,65.0583911 C146.472828,64.9859773 146.574207,64.9533911 146.65869,64.9123566 L146.65869,64.9123566 Z M146.875931,64.9823566 C146.844552,65.1477014 146.671966,65.3770118 146.565759,65.3540808 C146.576621,65.316667 146.702138,65.1380463 146.676793,65.0740808 C146.687655,65.0451152 146.825241,64.9714946 146.875931,64.9823566 L146.875931,64.9823566 Z M145.841621,65.4844256 C145.753517,65.6232187 145.57731,65.5858049 145.466276,65.5556325 C145.658172,65.3540808 145.760759,65.526667 145.841621,65.4844256 L145.841621,65.4844256 Z M146.915759,65.4687359 C146.848172,65.4663221 146.725069,65.5821842 146.615241,65.4264946 C146.696103,65.4820118 146.809552,65.3432187 146.915759,65.4687359 L146.915759,65.4687359 Z M146.334034,65.4952877 C146.410069,65.5447704 146.531966,65.3842532 146.698517,65.6051152 C146.583862,65.6244256 146.405241,65.642529 146.334034,65.4952877 L146.334034,65.4952877 Z M145.88869,65.5978739 C145.886276,65.4433911 146.243517,65.4518394 146.27369,65.5689083 C146.338862,65.6751152 146.192828,65.7789083 146.120414,65.8356325 C146.10231,65.8501152 145.889897,65.7439083 145.88869,65.5978739 L145.88869,65.5978739 Z M146.734724,64.7699428 C146.795069,64.7518394 146.873517,64.7735635 146.930241,64.8242532 C146.983345,64.8701152 147.105241,64.8471842 147.116103,64.9171842 C147.116103,64.9171842 147.073862,64.9232187 147.015931,64.9159773 C146.976103,64.9111497 146.918172,64.8990808 146.902483,64.8930463 C146.850586,64.8773566 146.891621,64.8592532 146.850586,64.837529 C146.809552,64.814598 146.703345,64.779598 146.734724,64.7699428 L146.734724,64.7699428 Z M145.208,64.8821842 C145.229724,64.8121842 145.404724,64.7892532 145.455414,64.7940808 C145.425241,64.8797704 145.29731,64.8278739 145.208,64.8821842 L145.208,64.8821842 Z M145.619552,64.7977014 C145.571276,64.779598 145.436103,64.8327014 145.47231,64.7904601 C145.509724,64.7482187 145.564034,64.7759773 145.593,64.7602877 C145.665414,64.721667 145.620759,64.7735635 145.619552,64.7977014 L145.619552,64.7977014 Z M146.748,64.9135635 C146.768517,64.896667 146.921793,64.9159773 146.873517,64.9268394 C146.786621,64.9473566 146.757655,64.9461497 146.729897,64.9618394 C146.713,64.9714946 146.72869,64.9280463 146.748,64.9135635 L146.748,64.9135635 Z M146.511448,64.7385635 C146.569379,64.7337359 146.616448,64.7482187 146.638172,64.7820118 C146.638172,64.7820118 146.616448,64.7759773 146.569379,64.7639083 C146.521103,64.7530463 146.511448,64.7385635 146.511448,64.7385635 L146.511448,64.7385635 Z M146.208517,61.4449428 C146.208517,61.4449428 146.209724,61.4751152 146.209724,61.4763221 C146.237483,61.6754601 146.035931,61.7164946 145.971966,61.6404601 C145.883862,61.5342532 146.000931,61.571667 146.003345,61.4642532 C146.003345,61.4618394 146.004552,61.4352877 146.000931,61.4208049 C146.056448,61.4594256 146.119207,61.4823566 146.208517,61.4449428 L146.208517,61.4449428 Z M146.075759,61.1263221 C146.058862,61.1239083 146.035931,61.1094256 146.016621,61.1094256 C145.99369,61.1094256 145.968345,61.1202877 145.946621,61.1263221 C145.95869,61.1154601 145.990069,61.0961497 146.015414,61.0949428 C146.038345,61.0937359 146.070931,61.1082187 146.076966,61.1106325 C146.092655,61.1190808 146.101103,61.127529 146.075759,61.1263221 L146.075759,61.1263221 Z M146.111966,60.9633911 C146.031103,60.9609773 145.947828,60.9392532 145.864552,60.894598 L145.869379,60.8861497 C145.943,60.9259773 146.015414,60.9477014 146.087828,60.9537359 C146.095069,60.9573566 146.103517,60.9609773 146.111966,60.9633911 L146.111966,60.9633911 Z M146.177138,60.952529 C146.251966,60.9452877 146.324379,60.9223566 146.394379,60.8861497 L146.400414,60.894598 C146.320759,60.9344256 146.237483,60.9597704 146.153,60.9633911 C146.161448,60.9609773 146.169897,60.9573566 146.177138,60.952529 L146.177138,60.952529 Z M146.52231,61.361667 C146.410069,61.209598 146.469207,61.1577014 146.455931,61.104598 C146.441448,61.0551152 146.442655,61.0008049 146.429379,60.9597704 C146.41731,60.9235635 146.416103,60.9187359 146.38231,60.8692532 L146.384724,60.8728739 C146.324379,60.9018394 146.261621,60.9223566 146.198862,60.9308049 C146.200069,60.9271842 146.202483,60.9247704 146.20369,60.9199428 C146.262828,60.9114946 146.321966,60.8921842 146.379897,60.8644256 C146.377483,60.8608049 146.375069,60.8571842 146.371448,60.8547704 C146.370241,60.8523566 146.369034,60.8499428 146.367828,60.8487359 L146.369034,60.8511497 C146.315931,60.8752877 146.261621,60.8921842 146.20731,60.9006325 L146.20731,60.8982187 L146.20731,60.8909773 C146.260414,60.882529 146.31231,60.8656325 146.364207,60.8414946 C146.360586,60.836667 146.358172,60.8306325 146.354552,60.8270118 L146.355759,60.8282187 C146.305069,60.8499428 146.254379,60.8644256 146.201276,60.871667 C146.200069,60.8692532 146.197655,60.8656325 146.196448,60.8632187 C146.248345,60.8559773 146.300241,60.8414946 146.350931,60.8197704 C146.34731,60.8137359 146.344897,60.8089083 146.342483,60.8040808 C146.289379,60.8258049 146.233862,60.8402877 146.178345,60.8451152 C146.173517,60.8414946 146.16869,60.8390808 146.162655,60.836667 C146.223,60.8330463 146.282138,60.8185635 146.338862,60.7956325 L146.340069,60.7968394 C146.330414,60.7690808 146.335241,60.7485635 146.34731,60.7159773 C146.363,60.6701152 146.352138,60.5832187 146.307483,60.5494256 C146.296621,60.5421842 146.286966,60.532529 146.27731,60.5240808 C146.220586,60.5530463 146.177138,60.5687359 146.13369,60.5687359 C146.091448,60.5699428 146.049207,60.5578739 145.99731,60.5337359 C145.987655,60.5433911 145.979207,60.5530463 145.970759,60.5590808 C145.934552,60.5880463 145.909207,60.6254601 145.920069,60.6930463 C145.926103,60.731667 145.921276,60.7642532 145.911621,60.7944256 L145.912828,60.7908049 C145.975586,60.8185635 146.038345,60.8342532 146.099897,60.8378739 C146.095069,60.8402877 146.090241,60.8427014 146.085414,60.8463221 C146.027483,60.8414946 145.968345,60.8258049 145.909207,60.8004601 C145.908,60.8040808 145.905586,60.8101152 145.904379,60.8161497 C145.95869,60.8414946 146.013,60.8571842 146.06731,60.8632187 C146.066103,60.8668394 146.06369,60.8692532 146.062483,60.8728739 C146.009379,60.8656325 145.955069,60.8499428 145.899552,60.824598 C145.898345,60.8294256 145.894724,60.8342532 145.89231,60.8390808 C145.947828,60.8668394 146.003345,60.8837359 146.057655,60.8909773 L146.057655,60.8982187 L146.057655,60.9006325 C146.002138,60.8933911 145.945414,60.8764946 145.88869,60.8487359 C145.885069,60.8547704 145.881448,60.8608049 145.877828,60.8680463 L145.881448,60.8632187 C145.941793,60.894598 146.002138,60.9127014 146.061276,60.9211497 C146.062483,60.9247704 146.064897,60.9283911 146.066103,60.9308049 C146.004552,60.9235635 145.940586,60.9042532 145.876621,60.871667 C145.858517,60.9054601 145.841621,60.9392532 145.833172,60.9827014 C145.823517,61.0333911 145.766793,61.1987359 145.766793,61.2385635 C145.766793,61.2711497 145.720931,61.3218394 145.690759,61.361667 C145.625586,61.3230463 145.568862,61.2747704 145.520586,61.2192532 C145.416793,61.1009773 145.355241,60.9513221 145.355241,60.7920118 C145.355241,60.6049428 145.440931,60.4335635 145.57731,60.3104601 C145.712483,60.1861497 145.901966,60.1101152 146.109552,60.1101152 C146.315931,60.1101152 146.505414,60.1861497 146.640586,60.3092532 L146.640586,60.3104601 C146.776966,60.4335635 146.862655,60.6049428 146.862655,60.7920118 C146.862655,60.9489083 146.80231,61.0949428 146.702138,61.2120118 C146.651448,61.2699428 146.591103,61.3206325 146.52231,61.361667 L146.52231,61.361667 Z M145.652138,61.4232187 C145.556793,61.5873566 145.426448,61.8299428 145.387828,61.9639083 C145.361276,61.9928739 145.36369,62.0001152 145.300931,61.9361497 C145.135586,61.7720118 145.327483,61.5632187 145.129552,61.5113221 C145.15369,61.489598 145.163345,61.4304601 145.186276,61.4292532 C145.281621,61.4509773 145.29369,61.4111497 145.287655,61.4039083 C145.327483,61.3942532 145.369724,61.4063221 145.306966,61.3544256 C145.294897,61.3435635 145.393862,61.2808049 145.395069,61.2614946 C145.399897,61.104598 144.825414,61.162529 144.855586,61.2506325 C144.866448,61.2808049 144.907483,61.314598 144.91231,61.3242532 C144.920759,61.3411497 144.856793,61.349598 144.872483,61.3628739 C144.884552,61.3737359 144.918345,61.3833911 144.926793,61.3906325 C144.936448,61.3990808 144.913517,61.4099428 144.934034,61.4171842 C144.953345,61.4244256 145.037828,61.4268394 145.037828,61.4268394 C145.045069,61.4606325 145.089724,61.4883911 145.103,61.5137359 L145.068,61.5209773 C145.039034,61.5270118 144.989552,61.5789083 144.970241,61.6102877 C144.959379,61.6308049 144.937655,61.6356325 144.934034,61.6537359 C144.874897,61.932529 145.145241,62.0037359 145.264724,62.282529 C145.299724,62.3633911 144.998,62.7194256 144.958172,62.7797704 C144.940069,62.8087359 144.855586,62.8944256 144.894207,62.9632187 C144.931621,63.0308049 144.891793,63.0935635 144.929207,63.1164946 C145.051103,63.1901152 145.165759,63.1249428 145.187483,62.9933911 C145.174207,62.7894256 145.399897,62.5709773 145.549552,62.4502877 C145.492828,62.656667 145.420414,62.9668394 145.488,63.3047704 C145.497655,63.356667 145.589379,63.7899428 145.602655,63.8659773 C145.614724,63.9408049 145.672655,64.5237359 145.67869,64.5635635 C145.681103,64.5828739 145.679897,64.7023566 145.634034,64.6854601 C145.529034,64.697529 144.949724,64.7747704 145.074034,64.9449428 C145.150069,65.0487359 145.282828,65.2020118 145.302138,65.2418394 C145.333517,65.3082187 145.080069,65.3432187 145.139207,65.397529 C145.187483,65.4421842 145.321448,65.4808049 145.360069,65.5109773 C145.39869,65.5411497 145.303345,65.5882187 145.385414,65.6171842 C145.467483,65.6461497 145.806621,65.6558049 145.806621,65.6558049 C145.806621,65.6558049 145.915241,65.8054601 145.964724,65.8585635 C145.99369,65.8887359 146.151793,65.946667 146.124034,66.121667 L146.184379,66.1228739 C146.184379,66.1228739 146.149379,65.9273566 146.219379,65.8863221 C146.296621,65.8428739 146.31231,65.666667 146.404034,65.6642532 C146.787828,65.7523566 146.838517,65.5906325 146.811966,65.5628739 C146.97369,65.5242532 147.146276,65.5737359 146.894034,65.3637359 C146.840931,65.3190808 147.240414,65.0644256 147.242828,64.9920118 C147.252483,64.7349428 146.684034,64.6721842 146.505414,64.6492532 C146.377483,63.461667 146.787828,63.1430463 146.547655,62.3887359 C146.536793,62.4177014 146.612828,62.317529 146.65869,62.3802877 C146.902483,62.7194256 147.567483,62.7508049 147.648345,62.5444256 C147.661621,62.4671842 147.503517,62.3911497 147.43231,62.3911497 C147.350241,62.3911497 147.219897,62.4164946 147.172828,62.4249428 C147.064207,62.4430463 146.913345,62.317529 146.935069,62.212529 C146.949552,62.1449428 147.04731,62.0990808 147.053345,62.0170118 C147.085931,62.0218394 147.204207,61.9132187 147.244034,61.7804601 C147.32731,61.582529 147.231966,61.4968394 147.145069,61.431667 C147.164379,61.4171842 147.166793,61.3797704 147.18731,61.3797704 C147.268172,61.3978739 147.279034,61.3640808 147.273,61.3580463 C147.309207,61.349598 147.345414,61.3604601 147.291103,61.3158049 C147.279034,61.3061497 147.365931,61.2518394 147.365931,61.2361497 C147.369552,61.1009773 146.875931,61.151667 146.90369,61.2264946 C146.913345,61.2518394 146.948345,61.2808049 146.951966,61.2892532 C146.959207,61.3037359 146.904897,61.3109773 146.916966,61.3230463 C146.926621,61.3327014 146.956793,61.3399428 146.964034,61.3471842 C146.972483,61.3532187 146.951966,61.3628739 146.968862,61.3689083 C146.986966,61.3761497 147.059379,61.3773566 147.059379,61.3773566 C147.059379,61.3773566 147.079897,61.4171842 147.111276,61.431667 C147.120931,61.4401152 147.093172,61.4509773 147.029207,61.4992532 C146.965241,61.547529 146.984552,61.5801152 146.999034,61.6537359 C147.00869,61.7080463 147.005069,61.8251152 146.900069,61.851667 C146.885586,61.8552877 146.878345,61.8914946 146.863862,61.8902877 C146.816793,61.8854601 146.843345,61.7454601 146.766103,61.687529 C146.691276,61.6308049 146.597138,61.4594256 146.597138,61.4594256 L146.565759,61.419598 C146.641793,61.3749428 146.708172,61.3194256 146.762483,61.2554601 C146.873517,61.1263221 146.939897,60.964598 146.939897,60.7920118 C146.939897,60.5844256 146.846966,60.3973566 146.696103,60.2597704 C146.545241,60.124598 146.337655,60.0389083 146.109552,60.0389083 C145.880241,60.0389083 145.672655,60.124598 145.521793,60.2597704 C145.372138,60.3973566 145.279207,60.5844256 145.279207,60.7920118 C145.279207,60.9682187 145.346793,61.1323566 145.460241,61.2639083 C145.514552,61.3254601 145.579724,61.3797704 145.652138,61.4232187 L145.652138,61.4232187 Z M146.266448,61.1371842 L146.265241,61.1371842 L146.268862,61.1383911 L146.265241,61.1420118 C146.265241,61.1420118 146.266448,61.1420118 146.268862,61.1420118 C146.268862,61.1420118 146.272483,61.139598 146.274897,61.1371842 L146.27731,61.139598 C146.276103,61.1408049 146.27369,61.1420118 146.272483,61.1432187 L146.274897,61.1432187 C146.27731,61.1408049 146.279724,61.139598 146.280931,61.1371842 L146.284552,61.139598 C146.283345,61.1408049 146.280931,61.1420118 146.279724,61.1444256 L146.27731,61.1456325 L146.282138,61.1444256 L146.283345,61.1432187 C146.285759,61.1420118 146.288172,61.1408049 146.288172,61.1383911 L146.291793,61.139598 C146.291793,61.1408049 146.290586,61.1432187 146.289379,61.1444256 L146.286966,61.1456325 L146.285759,61.1468394 L146.285759,61.1456325 L146.290586,61.1444256 L146.290586,61.1444256 C146.293,61.1432187 146.294207,61.1420118 146.294207,61.1408049 L146.299034,61.1408049 C146.299034,61.1420118 146.297828,61.1432187 146.297828,61.1444256 C146.296621,61.1444256 146.295414,61.1456325 146.294207,61.1468394 L146.291793,61.1480463 L146.290586,61.1480463 L146.290586,61.1492532 L146.293,61.1480463 L146.294207,61.1480463 C146.294207,61.1480463 146.296621,61.1480463 146.297828,61.1468394 L146.299034,61.1468394 L146.300241,61.1468394 C146.300241,61.1468394 146.302655,61.1444256 146.302655,61.1444256 L146.306276,61.1444256 L146.306276,61.1468394 L146.305069,61.1480463 L146.303862,61.1480463 L146.302655,61.1492532 L146.301448,61.1492532 L146.299034,61.1504601 L146.296621,61.151667 L146.293,61.151667 L146.290586,61.1528739 L146.295414,61.1528739 L146.300241,61.151667 L146.303862,61.151667 L146.305069,61.1504601 L146.307483,61.1492532 L146.30869,61.1480463 L146.30869,61.1480463 L146.30869,61.1480463 L146.311103,61.1492532 L146.311103,61.1492532 L146.311103,61.1504601 L146.309897,61.151667 C146.309897,61.151667 146.30869,61.1528739 146.30869,61.1528739 L146.305069,61.1552877 L146.302655,61.1552877 L146.294207,61.1564946 L146.294207,61.1577014 C146.291793,61.1637359 146.278517,61.1697704 146.271276,61.1721842 L146.270069,61.1733911 C146.260414,61.1770118 146.248345,61.1794256 146.23869,61.1794256 C146.225414,61.1794256 146.213345,61.1770118 146.206103,61.1721842 C146.20369,61.1709773 146.201276,61.1697704 146.197655,61.1697704 C146.191621,61.1673566 146.186793,61.1649428 146.184379,61.162529 L146.184379,61.1613221 C146.184379,61.1564946 146.190414,61.1528739 146.197655,61.1480463 C146.204897,61.1444256 146.212138,61.1420118 146.218172,61.139598 C146.231448,61.1347704 146.244724,61.1371842 146.256793,61.1408049 C146.256793,61.1408049 146.262828,61.1408049 146.265241,61.1371842 C146.254379,61.1323566 146.243517,61.1299428 146.232655,61.1311497 C146.221793,61.1311497 146.209724,61.1371842 146.194034,61.1480463 L146.191621,61.1444256 C146.208517,61.1335635 146.220586,61.1287359 146.232655,61.127529 C146.244724,61.127529 146.255586,61.1299428 146.267655,61.1347704 L146.266448,61.1371842 Z M145.968345,61.1528739 L145.968345,61.1528739 L145.967138,61.151667 C145.959897,61.1504601 145.955069,61.1492532 145.953862,61.1444256 L145.957483,61.1444256 C145.95869,61.1468394 145.961103,61.1480463 145.961103,61.1480463 L145.968345,61.1492532 L145.968345,61.1480463 C145.963517,61.1468394 145.961103,61.1444256 145.959897,61.1408049 L145.964724,61.1408049 C145.964724,61.1420118 145.965931,61.1444256 145.969552,61.1444256 L145.974379,61.1468394 C145.970759,61.1444256 145.968345,61.1432187 145.965931,61.139598 L145.970759,61.1383911 C145.970759,61.1408049 145.973172,61.1420118 145.976793,61.1432187 C145.978,61.1444256 145.979207,61.1444256 145.979207,61.1444256 C145.979207,61.1444256 145.976793,61.1420118 145.975586,61.139598 L145.978,61.1371842 C145.979207,61.139598 145.981621,61.1408049 145.984034,61.1420118 L145.986448,61.1432187 C145.985241,61.1420118 145.984034,61.1408049 145.981621,61.139598 L145.985241,61.1371842 C145.986448,61.139598 145.988862,61.1408049 145.990069,61.1420118 C145.992483,61.1420118 145.99369,61.1432187 145.99369,61.1432187 C145.99369,61.1432187 145.992483,61.1408049 145.990069,61.1383911 L145.99369,61.1371842 C145.996103,61.1408049 145.999724,61.1408049 145.999724,61.1408049 L146.003345,61.1408049 C146.014207,61.1371842 146.027483,61.1347704 146.041966,61.139598 C146.045586,61.1420118 146.055241,61.1444256 146.061276,61.1480463 C146.068517,61.1528739 146.074552,61.1564946 146.074552,61.1613221 L146.074552,61.162529 C146.073345,61.1649428 146.06731,61.1673566 146.061276,61.1697704 C146.058862,61.1697704 146.056448,61.1709773 146.054034,61.1721842 C146.045586,61.1770118 146.033517,61.1794256 146.021448,61.1794256 C146.010586,61.1794256 145.999724,61.1770118 145.990069,61.1733911 L145.987655,61.1721842 C145.980414,61.1697704 145.965931,61.1637359 145.964724,61.1577014 L145.964724,61.1564946 L145.95869,61.1552877 C145.953862,61.1552877 145.949034,61.1528739 145.949034,61.1492532 L145.951448,61.1480463 C145.951448,61.1504601 145.955069,61.151667 145.955069,61.151667 C145.96231,61.1528739 145.965931,61.1528739 145.965931,61.1528739 L145.968345,61.1528739 Z M146.134897,61.3773566 C146.111966,61.3785635 146.087828,61.3749428 146.081793,61.3652877 C146.075759,61.3592532 146.06731,61.3544256 146.060069,61.349598 L146.060069,61.349598 L146.064897,61.349598 C146.087828,61.349598 146.093862,61.3339083 146.118,61.3339083 C146.118,61.3339083 146.131276,61.3447704 146.134897,61.3459773 C146.13731,61.3447704 146.149379,61.3339083 146.149379,61.3339083 C146.175931,61.3339083 146.181966,61.349598 146.204897,61.349598 L146.20731,61.349598 L146.209724,61.349598 L146.209724,61.349598 C146.202483,61.3544256 146.194034,61.3592532 146.189207,61.3652877 C146.180759,61.3773566 146.149379,61.3773566 146.134897,61.3773566 L146.134897,61.3773566 Z M145.01369,61.8154601 L145.068,61.7406325 C145.068,61.7406325 145.070414,61.7237359 145.096966,61.7237359 C145.12231,61.7237359 145.115069,61.7333911 145.124724,61.7454601 C145.135586,61.757529 145.138,61.7985635 145.135586,61.8154601 C145.133172,61.8323566 145.124724,61.8480463 145.111448,61.8577014 C145.099379,61.8673566 145.081276,61.8601152 145.054724,61.8601152 C145.029379,61.8601152 145.011276,61.8383911 145.011276,61.827529 L145.01369,61.8154601 Z" id="Fill-372" fill="#C3272A"></path>
                <path d="M112.188638,66.0472014 L111.822948,65.142029 L111.44519,66.0472014 L112.188638,66.0472014 Z M112.251397,66.1908221 L111.382431,66.1908221 L111.278638,66.4466842 C111.244845,66.531167 111.227948,66.601167 111.227948,66.6566842 C111.227948,66.7315118 111.256914,66.7858221 111.311224,66.8196152 C111.34381,66.8413394 111.423466,66.8558221 111.552603,66.8666842 L111.552603,66.9378911 L110.734328,66.9378911 L110.734328,66.8666842 C110.822431,66.8522014 110.896052,66.8135808 110.952776,66.7496152 C111.008293,66.6856497 111.0795,66.5528911 111.161569,66.3525463 L112.042603,64.2573739 L112.076397,64.2573739 L112.963466,66.4116842 C113.047948,66.6156497 113.117948,66.7435808 113.172259,66.7966842 C113.2145,66.8365118 113.271224,66.8594428 113.346052,66.8666842 L113.346052,66.9378911 L112.157259,66.9378911 L112.157259,66.8666842 L112.205534,66.8666842 C112.300879,66.8666842 112.367259,66.8522014 112.407086,66.8244428 C112.433638,66.8027187 112.446914,66.7737532 112.446914,66.7339256 C112.446914,66.7109946 112.443293,66.6880635 112.436052,66.6627187 C112.433638,66.6506497 112.414328,66.6023739 112.380534,66.5178911 L112.251397,66.1908221 Z M110.897259,64.3116842 L110.146569,64.3116842 L110.146569,64.3828911 C110.253983,64.3901325 110.331224,64.4094428 110.371052,64.4408221 C110.403638,64.4649601 110.419328,64.4939256 110.419328,64.5277187 C110.419328,64.5916842 110.36381,64.7196152 110.253983,64.9139256 L109.811052,65.7068566 L109.366914,64.8366842 C109.270362,64.6496152 109.222086,64.5325463 109.222086,64.4854773 C109.222086,64.4613394 109.236569,64.4384083 109.264328,64.4166842 C109.293293,64.3937532 109.343983,64.3828911 109.413983,64.3828911 L109.467086,64.3828911 L109.467086,64.3116842 L108.289155,64.3116842 L108.289155,64.3828911 C108.366397,64.3853049 108.430362,64.4046152 108.476224,64.4444428 C108.5245,64.4842704 108.604155,64.6146152 108.720017,64.8366842 L109.298121,65.9615118 L109.298121,66.4889256 C109.298121,66.6204773 109.292086,66.7013394 109.27881,66.7327187 C109.2595,66.776167 109.236569,66.8075463 109.203983,66.8256497 C109.161741,66.8522014 109.10381,66.8666842 109.031397,66.8666842 L108.902259,66.8666842 L108.902259,66.9378911 L110.282948,66.9378911 L110.282948,66.8666842 L110.146569,66.8666842 C110.08019,66.8666842 110.028293,66.8546152 109.988466,66.8280635 C109.949845,66.8027187 109.922086,66.7749601 109.910017,66.7423739 C109.896741,66.7085808 109.8895,66.624098 109.8895,66.4889256 L109.8895,65.8528911 L110.422948,64.9018566 C110.5545,64.6616842 110.649845,64.5132359 110.708983,64.4589256 C110.753638,64.419098 110.81519,64.3937532 110.897259,64.3828911 L110.897259,64.3116842 Z M107.287431,66.0472014 L106.922948,65.142029 L106.54519,66.0472014 L107.287431,66.0472014 Z M107.35019,66.1908221 L106.481224,66.1908221 L106.378638,66.4466842 C106.344845,66.531167 106.327948,66.601167 106.327948,66.6566842 C106.327948,66.7315118 106.355707,66.7858221 106.411224,66.8196152 C106.442603,66.8413394 106.524672,66.8558221 106.651397,66.8666842 L106.651397,66.9378911 L105.833121,66.9378911 L105.833121,66.8666842 C105.922431,66.8522014 105.994845,66.8135808 106.051569,66.7496152 C106.108293,66.6856497 106.1795,66.5528911 106.261569,66.3525463 L107.141397,64.2573739 L107.176397,64.2573739 L108.063466,66.4116842 C108.147948,66.6156497 108.216741,66.7435808 108.272259,66.7966842 C108.313293,66.8365118 108.371224,66.8594428 108.446052,66.8666842 L108.446052,66.9378911 L107.256052,66.9378911 L107.256052,66.8666842 L107.305534,66.8666842 C107.400879,66.8666842 107.468466,66.8522014 107.507086,66.8244428 C107.533638,66.8027187 107.546914,66.7737532 107.546914,66.7339256 C107.546914,66.7109946 107.542086,66.6880635 107.536052,66.6627187 C107.533638,66.6506497 107.515534,66.6023739 107.481741,66.5178911 L107.35019,66.1908221 Z M104.366741,64.3828911 L104.366741,64.3116842 L105.675017,64.3116842 L105.675017,64.3828911 L105.594155,64.3828911 C105.522948,64.3828911 105.46381,64.396167 105.420362,64.4239256 C105.39019,64.442029 105.366052,64.4722014 105.347948,64.5168566 C105.333466,64.5482359 105.327431,64.629098 105.327431,64.7606497 L105.327431,66.0472014 C105.327431,66.2982359 105.3045,66.4816842 105.257431,66.5963394 C105.210362,66.7109946 105.125879,66.8063394 105.006397,66.8823739 C104.885707,66.9596152 104.740879,66.9982359 104.570707,66.9982359 C104.365534,66.9982359 104.197776,66.9403049 104.069845,66.8244428 C103.941914,66.7073739 103.877948,66.5794428 103.877948,66.4382359 C103.877948,66.3477187 103.9045,66.274098 103.956397,66.2185808 C104.008293,66.1630635 104.071052,66.134098 104.147086,66.134098 C104.2195,66.134098 104.282259,66.1594428 104.332948,66.2089256 C104.382431,66.2608221 104.407776,66.3223739 104.407776,66.3959946 C104.407776,66.4322014 104.404155,66.4635808 104.395707,66.4901325 C104.390879,66.5034083 104.371569,66.5359946 104.337776,66.5878911 C104.30519,66.6409946 104.288293,66.6772014 104.288293,66.7001325 C104.288293,66.7327187 104.303983,66.7628911 104.335362,66.787029 C104.381224,66.8232359 104.441569,66.8413394 104.51519,66.8413394 C104.568293,66.8413394 104.610534,66.8268566 104.644328,66.799098 C104.676914,66.7701325 104.702259,66.7254773 104.716741,66.6663394 C104.72881,66.6059946 104.736052,66.4394428 104.736052,66.1654773 L104.736052,64.7606497 C104.736052,64.6266842 104.72881,64.5422014 104.716741,64.5096152 C104.702259,64.4746152 104.673293,64.4456497 104.633466,64.4215118 C104.593638,64.396167 104.538121,64.3828911 104.469328,64.3828911 L104.366741,64.3828911 Z M103.645017,66.8666842 L103.645017,66.9378911 L102.358466,66.9378911 L102.358466,66.8666842 L102.440534,66.8666842 C102.510534,66.8666842 102.568466,66.8522014 102.611914,66.8256497 C102.6445,66.8075463 102.667431,66.776167 102.684328,66.7327187 C102.69881,66.7013394 102.706052,66.6204773 102.706052,66.4889256 L102.706052,64.7606497 C102.706052,64.6266842 102.69881,64.5422014 102.684328,64.5096152 C102.671052,64.4746152 102.645707,64.4456497 102.604672,64.4215118 C102.563638,64.396167 102.508121,64.3828911 102.440534,64.3828911 L102.358466,64.3828911 L102.358466,64.3116842 L103.645017,64.3116842 L103.645017,64.3828911 L103.562948,64.3828911 C103.491741,64.3828911 103.43381,64.396167 103.390362,64.4239256 C103.36019,64.442029 103.333638,64.4722014 103.315534,64.5168566 C103.303466,64.5482359 103.296224,64.629098 103.296224,64.7606497 L103.296224,66.4889256 C103.296224,66.6228911 103.303466,66.706167 103.316741,66.7399601 C103.331224,66.7749601 103.358983,66.8027187 103.39881,66.8280635 C103.439845,66.8546152 103.494155,66.8666842 103.562948,66.8666842 L103.645017,66.8666842 Z M102.137603,64.3116842 L102.137603,64.3828911 C102.048293,64.3985808 101.967431,64.4492704 101.898638,64.536167 C101.847948,64.6013394 101.771914,64.7522014 101.671741,64.991167 L100.8245,66.9982359 L100.764155,66.9982359 L99.9205345,64.9103049 C99.8191552,64.6580635 99.7503621,64.5108221 99.716569,64.466167 C99.6827759,64.4227187 99.6176034,64.3937532 99.5222586,64.3828911 L99.5222586,64.3116842 L100.70019,64.3116842 L100.70019,64.3828911 L100.660362,64.3828911 C100.554155,64.3828911 100.482948,64.3973739 100.444328,64.4251325 C100.415362,64.4444428 100.400879,64.4734083 100.400879,64.5108221 C100.400879,64.5349601 100.406914,64.5627187 100.416569,64.5928911 C100.426224,64.6242704 100.45881,64.7099601 100.513121,64.8487532 L101.038121,66.1558221 L101.5245,64.991167 C101.582431,64.851167 101.618638,64.757029 101.631914,64.7087532 C101.64519,64.6616842 101.651224,64.6194428 101.651224,64.5868566 C101.651224,64.5482359 101.642776,64.5132359 101.622259,64.4842704 C101.602948,64.454098 101.573983,64.4323739 101.537776,64.4166842 C101.485879,64.3937532 101.415879,64.3828911 101.33019,64.3828911 L101.33019,64.3116842 L102.137603,64.3116842 Z" id="Fill-373" fill="#263276"></path>
                <path d="M101.978293,61.057529 C101.763466,61.057529 101.588466,60.9730463 101.595707,60.8680463 C101.595707,60.6833911 101.923983,60.532529 102.322259,60.5373566 C102.59019,60.5373566 102.865362,60.5844256 103.126052,60.6797704 C102.736224,60.9199428 102.322259,61.057529 101.978293,61.057529 L101.978293,61.057529 Z M109.621569,61.1287359 C109.406741,61.1287359 109.223293,61.0623566 109.161741,60.9633911 C109.552776,60.8728739 109.812259,60.6459773 109.812259,60.3949428 C109.812259,60.2489083 109.744672,60.101667 109.621569,59.9689083 L110.769328,59.9689083 L110.769328,60.4902877 C110.540017,60.8728739 110.08019,61.1287359 109.621569,61.1287359 L109.621569,61.1287359 Z M100.225879,61.9108049 L100.225879,59.9689083 L100.737603,59.9689083 L100.952431,59.9689083 L103.126052,59.9689083 L103.126052,60.4420118 C102.881052,60.2621842 102.545534,60.1583911 102.207603,60.1583911 C101.572776,60.1583911 101.059845,60.3720118 101.059845,60.6314946 C101.059845,60.9392532 101.763466,61.431667 102.207603,61.4364946 C102.505707,61.4364946 102.8195,61.3797704 103.126052,61.2711497 L103.126052,61.5306325 L103.813983,61.9108049 L103.813983,59.9689083 L104.271397,59.9689083 L104.541741,59.9689083 L107.219845,59.9689083 L107.219845,60.3008049 L105.306914,60.3008049 C105.788466,60.5518394 106.063638,60.8113221 106.072086,61.0104601 C106.072086,61.1142532 105.933293,61.1999428 105.765534,61.1999428 C105.474672,61.1999428 105.092086,60.8402877 104.769845,60.3008049 L104.541741,60.3720118 C104.847086,61.081667 105.4445,61.5728739 105.994845,61.5777014 C106.378638,61.5777014 106.691224,61.3894256 106.682776,61.1528739 C106.682776,60.9778739 106.54519,60.8028739 106.301397,60.6797704 L107.219845,60.6797704 L107.219845,61.5306325 L107.907776,61.9108049 L107.907776,59.9689083 L108.3495,59.9689083 L108.635534,59.9689083 L109.086914,59.9689083 C109.185879,60.077529 109.238983,60.1777014 109.238983,60.2537359 C109.238983,60.4335635 108.978293,60.5940808 108.627086,60.6314946 C108.756224,61.0961497 109.269155,61.431667 109.849672,61.4364946 C110.164672,61.4364946 110.485707,61.3701152 110.769328,61.2470118 L110.769328,61.5306325 L111.457259,61.9108049 L111.457259,59.9689083 L111.914672,59.9689083 L112.18381,59.9689083 L112.574845,59.9689083 L112.574845,61.5306325 L113.263983,61.9108049 L113.263983,59.9689083 L113.989328,59.9689083 L113.989328,59.5440808 L112.18381,59.5440808 L111.914672,59.5440808 L108.635534,59.5440808 L108.3495,59.5440808 L104.541741,59.5440808 L104.271397,59.5440808 L100.952431,59.5440808 L100.737603,59.5440808 L100.2645,59.5440808 C100.0895,59.4161497 99.9893276,59.2737359 99.996569,59.1421842 C99.996569,58.9189083 100.425017,58.7390808 100.952431,58.7390808 C101.717603,58.7390808 102.475534,59.0033911 102.980017,59.4487359 L103.210534,59.3533911 C102.5745,58.7921842 101.650017,58.4554601 100.723121,58.4554601 C99.9422586,58.4554601 99.3086379,58.7535635 99.3086379,59.1180463 C99.3086379,59.2978739 99.4076034,59.4535635 99.576569,59.5440808 L98.8789828,59.5440808 L98.8789828,59.9689083 L99.5379483,59.9689083 L99.5379483,61.5306325 L100.225879,61.9108049 Z" id="Fill-374" fill="#263276"></path>
                <polygon id="Fill-375" fill="#FFFFFF" points="166.588414 63.0398566 186.249966 63.0398566 186.249966 62.6983049 166.588414 62.6983049"></polygon>
                <path d="M182.426638,59.3714946 L174.911293,59.3763221 L173.122672,58.2852877 C172.798017,58.1440808 172.247672,58.1682187 171.802328,58.3444256 L172.23319,59.0432187 C172.538534,58.8827014 172.923534,58.794598 173.359224,58.9140808 C173.660948,59.0130463 174.003707,59.1844256 174.205259,59.366667 L171.546466,59.3642532 L171.540431,59.7564946 L174.031466,59.7564946 L174.031466,60.0328739 L171.891638,60.0328739 C170.870603,59.9918394 170.512155,61.3809773 171.818017,61.477529 C172.474569,61.5439083 173.284397,61.4352877 174.025431,61.2289083 L174.031466,61.5318394 L173.63681,61.5318394 L173.642845,61.8359773 L175.626983,61.8480463 L175.629397,61.5318394 L175.237155,61.5318394 L175.237155,60.6713221 L174.031466,60.6713221 C173.874569,60.8644256 173.734569,60.9754601 173.487155,61.0394256 L172.823362,61.0599428 C172.559052,61.0358049 172.266983,60.9187359 172.30319,60.6471842 C172.350259,60.5204601 172.540948,60.4347704 172.785948,60.4371842 L175.198534,60.4371842 L175.198534,59.7733911 L178.360603,59.7927014 L178.360603,60.1680463 L176.185776,60.1680463 C175.729569,60.3056325 175.385603,60.6713221 176.027672,61.0647704 C176.508017,61.3858049 177.123534,61.4352877 177.174224,61.1902877 C177.252672,61.0321842 177.24181,60.8149428 177.215259,60.6713221 L178.360603,60.6713221 L178.360603,61.5402877 L177.866983,61.5402877 L177.862155,61.8287359 L179.977845,61.8359773 L179.974224,61.5378739 L179.527672,61.5378739 L179.527672,59.7383911 L180.634397,59.7383911 L180.634397,61.5390808 L180.198707,61.5378739 L180.198707,61.8359773 L182.254052,61.8359773 L182.24681,61.5390808 L181.780948,61.5378739 L181.780948,59.7383911 L182.435086,59.7251152 L182.426638,59.3714946 Z" id="Fill-376" fill="#FFFFFF"></path>
                <path d="M180.964,65.5333049 L181.532448,65.5333049 L181.244,64.6281325 L180.964,65.5333049 Z M179.704,66.9984773 L179.704,66.4264083 L179.953828,66.4264083 L180.500552,64.7114083 L180.210897,64.7114083 L180.210897,64.1393394 L182.283138,64.1393394 L182.283138,64.7114083 L181.997103,64.7114083 L182.541414,66.4264083 L182.794862,66.4264083 L182.794862,66.9984773 L181.505897,66.9984773 L181.505897,66.4264083 L181.767793,66.4264083 L181.649517,66.0414083 L180.84331,66.0414083 L180.73469,66.4264083 L180.990552,66.4264083 L180.990552,66.9984773 L179.704,66.9984773 Z M176.656586,66.9984773 L176.656586,66.4264083 L176.95469,66.4264083 L176.95469,64.7114083 L176.656586,64.7114083 L176.656586,64.1393394 L177.701759,64.1393394 L178.681759,65.7155463 L178.658828,64.7114083 L178.343828,64.7114083 L178.343828,64.1393394 L179.696759,64.1393394 L179.696759,64.7114083 L179.402276,64.7114083 L179.402276,66.9984773 L178.766241,66.9984773 L177.682448,65.275029 L177.698138,66.4264083 L178.00831,66.4264083 L178.00831,66.9984773 L176.656586,66.9984773 Z M173.816759,66.9984773 L173.816759,66.4264083 L174.113655,66.4264083 L174.113655,64.7114083 L173.816759,64.7114083 L173.816759,64.1393394 L176.457448,64.1393394 L176.457448,65.1676152 L175.945724,65.1676152 L175.765897,64.7114083 L174.882448,64.7114083 L174.882448,65.1760635 L175.462966,65.1760635 L175.462966,65.8108911 L174.882448,65.8108911 L174.882448,66.4264083 L175.765897,66.4264083 L175.945724,65.870029 L176.457448,65.870029 L176.457448,66.9984773 L173.816759,66.9984773 Z M171.698655,64.7114083 L171.698655,66.4264083 L171.926759,66.4264083 C172.230897,66.4264083 172.460207,66.3539946 172.617103,66.209167 C172.774,66.0643394 172.851241,65.8519256 172.851241,65.5695118 C172.851241,65.287098 172.774,65.0734773 172.61831,64.9286497 C172.461414,64.7838221 172.232103,64.7114083 171.926759,64.7114083 L171.698655,64.7114083 Z M170.616069,66.9984773 L170.616069,66.4264083 L170.915379,66.4264083 L170.915379,64.7114083 L170.616069,64.7114083 L170.616069,64.1393394 L172.012448,64.1393394 C172.216414,64.1393394 172.391414,64.1514083 172.539862,64.1743394 C172.687103,64.1984773 172.805379,64.2334773 172.895897,64.2793394 C173.157793,64.4133049 173.348483,64.5846842 173.472793,64.7934773 C173.595897,65.0034773 173.656241,65.2605463 173.656241,65.5695118 C173.656241,65.8748566 173.595897,66.1319256 173.471586,66.3419256 C173.347276,66.5519256 173.156586,66.7245118 172.895897,66.8584773 C172.805379,66.9055463 172.687103,66.9405463 172.539862,66.9634773 C172.391414,66.9864083 172.216414,66.9984773 172.012448,66.9984773 L170.616069,66.9984773 Z" id="Fill-377" fill="#FFFFFF"></path>
            </g>
        </g>
    </g>
</svg>