<?xml version="1.0" encoding="UTF-8"?>
<svg width="251px" height="210px" viewBox="0 0 251 210" version="1.1" xmlns="http://www.w3.org/2000/svg" xmlns:xlink="http://www.w3.org/1999/xlink">
    <title>Group 2</title>
    <defs>
        <linearGradient x1="100%" y1="36.1455366%" x2="-57.0986688%" y2="79.2344224%" id="linearGradient-1">
            <stop stop-color="#FF9E00" offset="0%"></stop>
            <stop stop-color="#FF5900" offset="46.7038597%"></stop>
            <stop stop-color="#D50001" offset="100%"></stop>
        </linearGradient>
        <linearGradient x1="111.869273%" y1="36.4424414%" x2="-36.7033352%" y2="70.3768797%" id="linearGradient-2">
            <stop stop-color="#FF9E00" offset="0%"></stop>
            <stop stop-color="#FF5900" offset="46.7038597%"></stop>
            <stop stop-color="#D50001" offset="100%"></stop>
        </linearGradient>
    </defs>
    <g id="Personal-Loans-Web" stroke="none" stroke-width="1" fill="none" fill-rule="evenodd">
        <g id="Approval-1" transform="translate(-24.000000, -366.000000)">
            <g id="Group-2" transform="translate(24.677560, 366.374000)">
                <g id="loan-icon">
                    <g id="Group-21" transform="translate(3.816794, 0.000000)">
                        <path d="M154.596397,54.3944322 C159.623401,54.527644 167.273969,49.9105212 167.273969,49.9105212 C167.273969,49.9105212 171.888881,37.0236067 168.758522,31.9802059 C168.758522,31.9802059 165.617924,30.2537803 162.33399,33.3016675 C161.770884,33.8291864 161.197539,34.4899172 160.634433,35.3424731 C159.838405,36.5413797 158.945114,37.2234244 157.995512,37.5830964 C154.406989,38.94985 150.150416,35.7341159 148.558361,38.8379521 C147.626676,40.6416406 146.615644,41.9977372 145.783783,42.9515341 C144.800906,44.0491997 144.083969,44.5873756 144.083969,44.5873756 C144.083969,44.5873756 149.569393,54.2585561 154.596397,54.3944322 Z" id="Fill-28" fill="#EEEEEE"></path>
                        <path d="M161.191418,54.3972603 C161.191418,54.3972603 103.34117,68.3977452 117.76877,182.278539 L222.345306,182.278539 C222.345306,182.278539 235.746838,62.7877136 161.191418,54.3972603 Z" id="Fill-29" fill="#EEEEEE"></path>
                        <path d="M169.780051,55.9810857 C169.780051,55.9810857 155.992955,59.7196856 151.738737,57.5230664 C151.738737,57.5230664 151.095306,50.4908161 156.901328,51.4778883 C160.875464,52.1529844 163.464329,49.8233917 164.985856,48.8772343 C167.14072,47.5398282 170.352831,53.0403265 169.780051,55.9810857" id="Fill-30" fill="url(#linearGradient-1)"></path>
                        <path d="M158.069705,44.8184446 C158.852584,45.5620524 161.259542,34.3561644 161.259542,34.3561644 C160.766037,34.8220959 160.263559,35.4056869 159.770054,36.1587075 C159.072418,37.2176427 158.289539,37.8200592 157.45731,38.1377398 C157.450581,38.4648331 157.309259,44.0960154 158.069705,44.8184446" id="Fill-31" fill="#CCCCCC"></path>
                        <path d="M145.038168,43.0054795 C145.235124,43.1436073 151.69888,47.716895 152.576231,47.716895 C153.46893,47.716895 147.810907,39.1278539 147.810907,39.1278539 C146.879839,40.8280822 145.869478,42.1063927 145.038168,43.0054795" id="Fill-32" fill="#CCCCCC"></path>
                        <path d="M205.152672,75.6677119 C205.152672,75.6677119 201.903744,80.1006984 198.922056,80.1630335 C195.942841,80.2253686 191.409685,78.1083719 191.409685,78.1083719 C191.409685,78.1083719 188.675439,72.20092 190.531262,69.8897253 C190.531262,69.8897253 192.392034,69.0985487 194.336936,70.496294 C194.670984,70.7360445 195.009981,71.0405276 195.344029,71.4313209 C195.816645,71.9803495 196.346174,72.2944226 196.907869,72.457453 C199.033405,73.0855992 201.557324,71.6111338 202.502557,73.0328541 C203.054355,73.8599933 203.653167,74.4809471 204.145579,74.9196904 C204.729544,75.4231665 205.152672,75.6677119 205.152672,75.6677119" id="Fill-41" fill="#CCCCCC"></path>
                        <path d="M161.259542,109.748858 C161.259542,109.748858 173.20255,80.716689 194.700994,80.1643836 C194.700994,80.1643836 214.54769,82.3761863 215.648855,109.748858 L161.259542,109.748858" id="Fill-42" fill="#CCCCCC"></path>
                        <path d="M188.970183,81.910608 C188.970183,81.910608 196.953542,83.7804838 199.415277,82.6811474 C199.415277,82.6811474 199.787039,79.1647769 196.426879,79.6592273 C194.124812,79.9955539 192.625846,78.8309601 191.746485,78.3590989 C190.497745,77.6889554 188.638933,80.4398063 188.970183,81.910608" id="Fill-43" fill="url(#linearGradient-2)"></path>
                        <path d="M197.049413,76.33111 C196.462159,76.6670582 194.656489,71.5753425 194.656489,71.5753425 C195.026953,71.7853101 195.402905,72.0519691 195.77337,72.3942163 C196.297508,72.8750423 196.884762,73.1500999 197.507691,73.2928779 C197.51318,73.441955 197.620203,76.0014607 197.049413,76.33111" id="Fill-44" fill="#B6B6B6"></path>
                        <path d="M204.198473,75.6397701 C204.075879,75.7137285 200.03548,78.2557078 199.487718,78.2557078 C198.926914,78.2557078 202.466501,73.4840183 202.466501,73.4840183 C203.048173,74.4290429 203.679403,75.1384961 204.198473,75.6397701" id="Fill-45" fill="#B6B6B6"></path>
                        <path d="M174.622314,101.748223 C174.409798,101.555931 182.739921,88.8490827 185.035585,88.7555353 C187.328778,88.6645865 192.48352,91.5411675 196.217372,91.9101598 C199.948753,92.2817507 203.566463,91.1695767 204.273201,93.4900706 C204.97994,95.8079661 206.919764,104.032337 205.728687,105.349796 C204.537611,106.667254 179.203758,105.861708 174.622314,101.748223" id="Fill-46" fill="#FFFFFF"></path>
                        <polygon id="Fill-156" fill="#FFA412" points="209.923664 157.465753 210.877863 157.465753 210.877863 147.922374 209.923664 147.922374"></polygon>
                        <polygon id="Fill-157" fill="#FFA412" points="199.427481 157.465753 200.381679 157.465753 200.381679 147.922374 199.427481 147.922374"></polygon>
                        <polygon id="Fill-158" fill="#FFA412" points="188.931298 157.465753 189.885496 157.465753 189.885496 147.922374 188.931298 147.922374"></polygon>
                        <polygon id="Fill-171" fill="#FFA412" points="214.694656 149.83105 215.648855 149.83105 215.648855 140.287671 214.694656 140.287671"></polygon>
                        <polygon id="Fill-172" fill="#FFA412" points="205.152672 149.83105 206.10687 149.83105 206.10687 140.287671 205.152672 140.287671"></polygon>
                        <polygon id="Fill-173" fill="#FFA412" points="193.70229 149.83105 194.656489 149.83105 194.656489 140.287671 193.70229 140.287671"></polygon>
                        <polygon id="Fill-174" fill="#FFA412" points="184.160305 149.83105 185.114504 149.83105 185.114504 140.287671 184.160305 140.287671"></polygon>
                        <polygon id="Fill-187" fill="#FFA412" points="211.832061 140.287671 212.78626 140.287671 212.78626 131.69863 211.832061 131.69863"></polygon>
                        <polygon id="Fill-188" fill="#FFA412" points="202.290076 140.287671 203.244275 140.287671 203.244275 131.69863 202.290076 131.69863"></polygon>
                        <polygon id="Fill-189" fill="#FFA412" points="191.793893 140.287671 192.748092 140.287671 192.748092 131.69863 191.793893 131.69863"></polygon>
                        <polygon id="Fill-201" fill="#FFA412" points="210.877863 131.69863 211.832061 131.69863 211.832061 123.109589 210.877863 123.109589"></polygon>
                        <polygon id="Fill-202" fill="#FFA412" points="199.427481 131.69863 200.381679 131.69863 200.381679 123.109589 199.427481 123.109589"></polygon>
                        <polygon id="Fill-203" fill="#FFA412" points="189.885496 131.69863 190.839695 131.69863 190.839695 123.109589 189.885496 123.109589"></polygon>
                        <polygon id="Fill-217" fill="#FFA412" points="206.10687 123.109589 207.061069 123.109589 207.061069 113.56621 206.10687 113.56621"></polygon>
                        <polygon id="Fill-218" fill="#FFA412" points="196.564885 123.109589 197.519084 123.109589 197.519084 113.56621 196.564885 113.56621"></polygon>
                        <polygon id="Fill-219" fill="#FFA412" points="187.022901 123.109589 187.977099 123.109589 187.977099 113.56621 187.022901 113.56621"></polygon>
                        <path d="M104.011776,46.083956 C102.486484,38.8448934 92.9615599,36.5976721 88.4550385,42.5103384 C87.6447756,43.5740062 87.0741497,44.8315318 86.8885992,46.3160753 C85.8596611,54.5346306 99.1916044,88.0108312 101.100937,91.0411365 C104.576709,96.5584347 125.044452,115.474886 125.044452,115.474886 L128.816794,113.222563 C128.816794,113.222563 114.299087,88.9954254 112.051002,86.7303487 C109.451743,84.1081653 106.907864,59.8325633 104.011776,46.083956" id="Fill-246" fill="#FF5900"></path>
                        <path d="M123.091603,112.740968 C123.091603,112.740968 128.418076,109.552991 130.434595,109.758372 C132.450863,109.963754 138.286849,111.494987 138.358206,112.275437 C138.429312,113.058169 131.855472,113.54652 131.414061,113.973257 C130.972901,114.399995 126.508969,117.117877 124.890796,116.264402 C123.272624,115.41321 123.091603,112.740968 123.091603,112.740968" id="Fill-247" fill="#FFAC80"></path>
                        <path d="M74.6247386,199.456621 C74.6247386,199.456621 66.3833228,180.854356 60.6375535,156.163716 C60.2838585,154.643822 58.520136,150.387701 55.3463862,143.395351 C52.5308054,136.85006 49.9962167,131.567733 47.7426199,127.54837 C41.6535749,116.690927 35.9708507,103.94987 33.5388794,99.8160373 C25.7913478,86.6347654 29.5255851,77.7706504 29.5255851,77.7706504 C29.5255851,77.7706504 51.1398188,75.6843688 57.0626452,70.6210046 L59.1957401,73.833052 C59.1957401,73.833052 63.8786655,94.091673 63.6572168,94.1846261 C63.8879145,94.8740286 64.1223119,95.5737592 64.3601445,96.288982 C68.0560643,107.433031 69.4612103,120.573931 71.7787576,131.916796 C73.0815521,138.302161 77.4642484,153.697875 77.8186191,156.163716 C79.9110181,170.700554 86.8320611,199.456621 86.8320611,199.456621 L74.6247386,199.456621 Z" id="Fill-248" fill="#000000"></path>
                        <path d="M63.9312977,96.3289074 C62.1718808,106.207611 58.0159377,122.647117 49.3087798,127.881279 C43.4554033,117.006947 36.6407745,104.001712 34.3029295,99.8614489 C26.8552561,86.659674 30.4449645,77.7817714 30.4449645,77.7817714 C30.4449645,77.7817714 51.2226475,75.6922446 56.9162386,70.6210046 L58.9667748,73.8380482 C58.9667748,73.8380482 63.4684537,94.1281805 63.2555759,94.2212783 C63.4773448,94.9117531 63.70267,95.6125721 63.9312977,96.3289074" id="Fill-250" fill="#000000"></path>
                        <path d="M101.738093,40.0821918 C101.738093,40.0821918 104.606268,43.1502139 105.916031,46.8234194 C105.916031,46.8234194 101.340815,60.3374475 90.648855,62.0319635 C90.648855,62.0319635 99.108335,40.0769303 101.738093,40.0821918" id="Fill-251" fill="#FF5900"></path>
                        <path d="M50.5725191,74.9737038 C42.899081,75.9375659 24.1136235,65.8493151 24.1136235,65.8493151 C24.1136235,65.8493151 16.0856791,71.1621849 14.9865797,86.3359065 C14.4502753,93.7392975 8.91686697,126.740592 8.54132404,136.092379 C8.40445604,139.482693 8.06640969,140.673223 8.05056729,141.639669 C7.28650552,144.094252 6.60308294,146.322835 6.00029955,148.325417 C-2.2639818,175.781222 0.414163333,199.456621 0.414163333,199.456621 L9.88446398,199.456621 C9.88446398,199.456621 13.4922965,174.320375 19.9632701,161.110555 C21.0615903,158.872741 23.2789105,152.769994 24.1136235,151.762203 C26.5468612,148.821519 27.4345554,142.102951 29.9633669,136.092379 C34.7436181,124.732761 39.3844042,109.739925 42.6941685,98.1322346 C42.9276492,98.1735799 50.5029164,78.8058954 50.5029164,78.8058954 L50.5725191,74.9737038 Z" id="Fill-252" fill="#000000"></path>
                        <path d="M94.6799799,53.4096726 C82.3126059,50.5332114 90.2136637,32.9109927 90.9303123,33.2225228 C92.6437146,32.8668593 96.4072082,29.8164605 99.7738438,23.8584475 L100.228566,24.2582444 L107.824427,31.0106591 C107.824427,31.0106591 106.068523,33.6378962 104.591699,36.2106156 C103.437483,38.2225807 102.456092,40.208585 102.612274,40.8887591 C103.223692,41.3768229 97.9785096,54.1781135 94.6799799,53.4096726" id="Fill-253" fill="#FFAC80"></path>
                        <path d="M107.824427,31.6990289 C107.824427,31.6990289 106.091724,34.0024602 104.634878,36.2648402 C99.9753468,33.6717696 99.9702944,28.4651027 100.329264,25.7671233 L107.824427,31.6990289" id="Fill-254" fill="#FFAC80"></path>
                        <path d="M101.986379,21.3136483 C106.379999,13.5847984 112.294127,5.59074764 120.356858,9.71028612 C128.419863,13.8295452 123.712886,19.5588697 122.864685,22.4984034 C122.01676,25.4407313 115.158563,36.7664889 111.836006,35.1542162 C111.836006,35.1542162 97.5930338,29.039704 101.986379,21.3136483 Z" id="Fill-255" fill="#FFAC80"></path>
                        <path d="M89.241478,65.5748377 C86.6348433,66.4919781 86.321723,66.5224999 82.5785025,66.9321215 C77.2510122,67.5195036 74.6167528,69.6736308 71.7351706,70.8303612 C70.6841865,71.2528641 69.9812307,71.7758402 69.7619882,72.4430855 C68.5129704,76.2301539 63.0089107,82.0730594 63.0089107,82.0730594 C27.7285013,80.4526063 23.8549618,65.5748377 23.8549618,65.5748377 C47.5916664,37.7463259 87.7820343,29.6930091 87.7820343,29.6930091 C87.7820343,29.6930091 90.6528844,28.4667203 97.8822649,34.258101 C102.706877,38.1250327 102.071636,39.6089452 102.071636,39.6089452 C102.071636,39.6089452 100.391316,59.1878221 92.7193624,61.8851423 L89.241478,65.5748377 Z" id="Fill-258" fill="#FF5900"></path>
                        <path d="M83.2772038,67.6348505 C78.1289666,68.2119619 75.4142168,70.438838 72.6295906,71.5753425 C71.4917386,54.145565 79.515966,41.0365297 79.515966,41.0365297 C79.515966,41.0365297 83.7961831,59.0708534 84.9236641,65.6646045 L83.2772038,67.6348505 Z" id="Fill-259" fill="#FF8340"></path>
                        <path d="M90.8864129,38.173516 C90.8864129,38.173516 77.4707041,39.4924255 76.3949621,48.1701342 C75.3194769,56.850399 89.2573956,92.1976846 91.2535516,95.3978293 C94.8871974,101.225569 116.28522,121.200913 116.28522,121.200913 L120.229008,118.821253 C120.229008,118.821253 105.05129,93.2405432 102.701089,90.8455467 C99.0117306,87.0881883 95.4291762,41.1794027 90.8864129,38.173516" id="Fill-260" fill="#FF5900"></path>
                        <path d="M96.2525895,52.5720665 C96.2525895,52.5720665 97.9965508,34.3622186 88.2677062,35.349223 C78.5388617,36.3387778 72.7779701,39.3048916 72.5328202,43.8165472 C72.2876703,48.3282028 75.4051031,52.5720665 75.4051031,52.5720665 C75.4409145,52.7684472 88.1036585,56.5787431 96.2525895,52.5720665 Z" id="Fill-261" fill="#FF5900"></path>
                        <path d="M115.458015,118.724979 C115.458015,118.724979 120.238103,114.627513 122.301866,114.529898 C124.36563,114.432283 130.507704,115.11321 130.720124,115.908418 C130.932289,116.701245 124.412296,118.213094 124.045597,118.720218 C123.679154,119.227342 119.68117,122.708164 117.901228,122.079616 C116.121286,121.451068 115.458015,118.724979 115.458015,118.724979" id="Fill-262" fill="#FFB27D"></path>
                        <polygon id="Fill-82" fill="#FFA412" points="208.969466 200.410959 209.923664 200.410959 209.923664 191.821918 208.969466 191.821918"></polygon>
                        <polygon id="Fill-83" fill="#FFA412" points="199.427481 200.410959 200.381679 200.410959 200.381679 191.821918 199.427481 191.821918"></polygon>
                        <polygon id="Fill-84" fill="#FFA412" points="190.839695 200.410959 191.793893 200.410959 191.793893 191.821918 190.839695 191.821918"></polygon>
                        <polygon id="Fill-96" fill="#FFA412" points="209.923664 192.776256 210.877863 192.776256 210.877863 183.232877 209.923664 183.232877"></polygon>
                        <polygon id="Fill-97" fill="#FFA412" points="199.427481 192.776256 200.381679 192.776256 200.381679 183.232877 199.427481 183.232877"></polygon>
                        <polygon id="Fill-98" fill="#FFA412" points="188.931298 192.776256 189.885496 192.776256 189.885496 183.232877 188.931298 183.232877"></polygon>
                        <polygon id="Fill-111" fill="#FFA412" points="214.694656 185.141553 215.648855 185.141553 215.648855 175.598174 214.694656 175.598174"></polygon>
                        <polygon id="Fill-112" fill="#FFA412" points="205.152672 185.141553 206.10687 185.141553 206.10687 175.598174 205.152672 175.598174"></polygon>
                        <polygon id="Fill-113" fill="#FFA412" points="193.70229 185.141553 194.656489 185.141553 194.656489 175.598174 193.70229 175.598174"></polygon>
                        <polygon id="Fill-114" fill="#FFA412" points="184.160305 185.141553 185.114504 185.141553 185.114504 175.598174 184.160305 175.598174"></polygon>
                        <polygon id="Fill-127" fill="#FFA412" points="206.10687 175.598174 207.061069 175.598174 207.061069 167.009132 206.10687 167.009132"></polygon>
                        <polygon id="Fill-128" fill="#FFA412" points="196.564885 175.598174 197.519084 175.598174 197.519084 167.009132 196.564885 167.009132"></polygon>
                        <polygon id="Fill-129" fill="#FFA412" points="187.022901 175.598174 187.977099 175.598174 187.977099 167.009132 187.022901 167.009132"></polygon>
                        <polygon id="Fill-141" fill="#FFA412" points="210.877863 165.100457 211.832061 165.100457 211.832061 156.511416 210.877863 156.511416"></polygon>
                        <polygon id="Fill-142" fill="#FFA412" points="199.427481 165.100457 200.381679 165.100457 200.381679 156.511416 199.427481 156.511416"></polygon>
                        <polygon id="Fill-143" fill="#FFA412" points="189.885496 165.100457 190.839695 165.100457 190.839695 156.511416 189.885496 156.511416"></polygon>
                        <path d="M100.775123,27.9145151 C100.775123,27.9145151 102.485979,27.6342148 102.209733,25.3248805 C101.933797,23.0152428 101.937098,19.9965236 103.853251,20.5594328 C105.769404,21.1220386 105.864813,22.6254849 106.652103,21.7474165 C107.439393,20.8696515 107.453198,17.1706665 113.154219,16.9135641 C118.85524,16.6561583 121.172066,18.6008532 123.823158,17.4588744 C126.474249,16.3165922 126.614053,12.3839787 126.614053,12.3839787 C126.614053,12.3839787 125.860219,13.7881774 124.721204,14.2347713 C124.721204,14.2347713 129.143988,8.30641338 124.023014,4.24072018 C118.902039,0.175330391 113.680986,2.836441 110.717162,3.0123217 C104.188267,3.39925894 99.970249,3.78324193 97.8375392,7.98795368 C95.7048294,12.192362 96.5851249,23.8670593 100.775123,27.9145151" id="Fill-570" fill="#000000" transform="translate(111.666104, 14.954802) rotate(5.000000) translate(-111.666104, -14.954802) "></path>
                    </g>
                    <g id="Group-3" transform="translate(101.145038, 108.794521)">
                        <path d="M136.450382,44.0677086 L136.450382,49.4574055 C136.450382,49.8862269 136.310642,50.2870208 136.071088,50.6177459 C135.821552,50.9680902 135.459726,51.2399574 135.038011,51.3941089 C134.938197,51.4333474 134.830897,51.461375 134.723597,51.483797 L134.721101,51.483797 C134.693652,51.4922053 134.663708,51.4978108 134.636259,51.5006135 C134.508996,51.5230356 134.379238,51.5342466 134.246984,51.5342466 L43.2314367,51.5342466 C43.1366133,51.5342466 43.0392944,51.5286411 42.9469663,51.51743 C42.9120314,51.5118245 42.8746011,51.506219 42.8396661,51.5006135 C41.8490105,51.3324483 41.0854321,50.5336632 41.0330297,49.5639102 C41.0305344,49.5302771 41.0305344,49.4938413 41.0305344,49.4574055 L41.0305344,44.0677086 C41.0305344,44.0340756 41.0305344,43.9976398 41.0330297,43.961204 C41.0929182,42.8681297 42.0586203,41.9908676 43.2314367,41.9908676 L134.246984,41.9908676 C134.304377,41.9908676 134.364266,41.9936703 134.421659,41.9992758 C134.446612,42.0020786 134.471566,42.0020786 134.496519,42.0048814 C134.521473,42.0076841 134.551417,42.0104869 134.576371,42.0160924 L134.636259,42.0245006 C134.773504,42.0469227 134.908253,42.0833585 135.038011,42.1310053 L135.095404,42.1534273 L135.150302,42.1758494 C135.190228,42.1926659 135.225163,42.2094824 135.262593,42.226299 C135.302519,42.248721 135.342444,42.2683403 135.38237,42.2907623 C135.417305,42.3103816 135.45224,42.3300009 135.48468,42.3524229 C135.524605,42.3776477 135.562036,42.4056752 135.599466,42.4337028 C135.626915,42.4533221 135.654364,42.4757441 135.684308,42.4981661 L135.689299,42.5037716 L135.744196,42.5486157 C135.80159,42.5962625 135.853992,42.6495149 135.903899,42.70557 L135.948815,42.7532168 L135.991237,42.8036664 C136.018685,42.8372994 136.046134,42.8737352 136.071088,42.910171 C136.310642,43.2408961 136.450382,43.6388872 136.450382,44.0677086" id="Fill-150" fill="#FF5900"></path>
                        <path d="M141.221374,35.4786676 L141.221374,40.8683644 C141.221374,41.2971858 141.081634,41.695177 140.844576,42.0287048 C140.592545,42.3762463 140.233214,42.6509163 139.811499,42.8050678 C139.681741,42.8527146 139.546991,42.8891504 139.407252,42.9115724 C139.279989,42.9339945 139.152725,42.9452055 139.020472,42.9452055 L48.0049244,42.9452055 C47.6381074,42.9452055 47.2937485,42.8611228 46.9893153,42.7097741 C46.3455139,42.3930628 45.8863688,41.7820624 45.8115081,41.06736 C45.8090128,41.0365297 45.8065174,41.0056994 45.8040221,40.9748691 C45.8040221,40.941236 45.8015267,40.9048002 45.8015267,40.8683644 L45.8015267,35.4786676 C45.8015267,35.4450345 45.8040221,35.4085987 45.8040221,35.3721629 C45.8639106,34.2790886 46.832108,33.4018265 48.0049244,33.4018265 L139.020472,33.4018265 C139.152725,33.4018265 139.279989,33.4130375 139.407252,33.4354595 C139.546991,33.4578816 139.681741,33.4943174 139.811499,33.5419642 C140.233214,33.6961157 140.592545,33.9707856 140.844576,34.3183272 C141.081634,34.651855 141.221374,35.0498461 141.221374,35.4786676" id="Fill-165" fill="#FF5900"></path>
                        <path d="M96.3740458,42.9452055 L48.679143,42.9452055 C48.359387,42.9452055 48.0591581,42.8611228 47.7931015,42.7097741 C47.2316979,42.3930628 46.8289518,41.7820624 46.7654887,41.06736 C46.7630478,41.0365297 46.760607,41.0056994 46.7581661,40.9748691 C46.7581661,40.941236 46.7557252,40.9048002 46.7557252,40.8683644 L46.7557252,35.4786676 C46.7557252,35.4450345 46.7581661,35.4085987 46.7581661,35.3721629 C46.8118656,34.2790886 47.6564119,33.4018265 48.679143,33.4018265 L90.5183615,33.4018265 C91.167637,36.1345121 92.6590181,39.8845976 96.0811395,42.7097741 C96.178775,42.791054 96.2764104,42.8667284 96.3740458,42.9452055" id="Fill-166" fill="#FFAC80"></path>
                        <path d="M104.007634,33.4018265 L56.3127308,33.4018265 C55.2875588,33.4018265 54.4430125,32.6122905 54.3917539,31.6285237 C54.389313,31.5957315 54.389313,31.5654618 54.389313,31.5326695 L54.389313,26.6819423 C54.389313,26.6516726 54.389313,26.6188804 54.3917539,26.5860881 C54.4381307,25.6779957 55.1655146,24.9338644 56.0857284,24.8253978 C56.158955,24.8178303 56.2346224,24.8127854 56.3127308,24.8127854 L98.1495084,24.8127854 L98.1543901,24.8253978 C98.8256337,27.3529218 100.382919,30.8415103 104.007634,33.4018265" id="Fill-181" fill="#FF5900"></path>
                        <path d="M136.450382,19.0497616 L136.450382,23.8979663 C136.450382,24.2864281 136.313137,24.6446201 136.073583,24.9422726 C135.821552,25.2575825 135.462221,25.5047855 135.040507,25.6409993 C134.910748,25.686404 134.775999,25.7166737 134.636259,25.739376 C134.593838,25.744421 134.551417,25.7494659 134.508996,25.7545109 C134.474061,25.7595559 134.441622,25.7620783 134.406687,25.7620783 L134.35678,25.7671233 C134.319349,25.7671233 134.284414,25.7671233 134.249479,25.7671233 L43.2339321,25.7671233 C42.0611156,25.7671233 41.0929182,24.9775874 41.0330297,23.9938205 C41.0330297,23.9635508 41.0305344,23.9307586 41.0305344,23.8979663 L41.0305344,19.0497616 C41.0305344,19.0169694 41.0330297,18.9841772 41.0330297,18.9513849 C41.0929182,17.9676181 42.0611156,17.1780822 43.2339321,17.1780822 L134.249479,17.1780822 C134.28691,17.1780822 134.326835,17.1806047 134.364266,17.1831271 C134.459089,17.1856496 134.548922,17.1957395 134.636259,17.2083519 C134.775999,17.2310543 134.910748,17.261324 135.040507,17.3042061 C135.105386,17.3269085 135.170265,17.3496108 135.230154,17.377358 C135.270079,17.3950154 135.307509,17.4101503 135.34494,17.4303301 L135.357417,17.4353751 C135.394847,17.4530324 135.429782,17.4732122 135.467212,17.4933921 L135.48468,17.5060045 C135.519615,17.5236618 135.552054,17.5438417 135.584494,17.566544 C135.66185,17.6144711 135.734215,17.6699656 135.804085,17.7279826 L135.863973,17.7834772 L135.87645,17.7935671 L135.913881,17.8288818 L135.921367,17.8364492 C135.943825,17.8566291 135.963788,17.8793314 135.986246,17.9045562 C136.01619,17.9373484 136.046134,17.9701406 136.073583,18.0054553 C136.313137,18.3031078 136.450382,18.6612999 136.450382,19.0497616" id="Fill-195" fill="#FF5900"></path>
                        <path d="M145.992366,27.6362802 L145.992366,32.4870074 C145.992366,32.8729467 145.854024,33.2311387 145.616866,33.5313137 C145.369825,33.8441011 145.014088,34.0913041 144.59412,34.2300404 C144.468129,34.2729226 144.332257,34.3057148 144.196385,34.3258946 C144.070395,34.3460745 143.941934,34.3561644 143.811003,34.3561644 L53.7056109,34.3561644 C52.5445226,34.3561644 51.5884776,33.5666284 51.529188,32.5828616 C51.5267176,32.5500694 51.5267176,32.5197996 51.5267176,32.4870074 L51.5267176,27.6362802 C51.5267176,27.6060105 51.5267176,27.5732183 51.529188,27.540426 C51.5835368,26.6323336 52.4061802,25.8882023 53.4486892,25.7797357 C53.5326829,25.7721682 53.6191469,25.7671233 53.7056109,25.7671233 L143.811003,25.7671233 C143.941934,25.7671233 144.070395,25.7772132 144.196385,25.797393 C144.332257,25.8175729 144.468129,25.8503651 144.59412,25.8932472 C145.014088,26.0319836 145.369825,26.2791865 145.616866,26.5919739 C145.854024,26.8921489 145.992366,27.250341 145.992366,27.6362802" id="Fill-180" fill="#FF5900"></path>
                        <path d="M102.099237,34.3561644 L54.4043338,34.3561644 C53.3791619,34.3561644 52.5346155,33.5666284 52.4833569,32.5828616 C52.480916,32.5500694 52.480916,32.5197996 52.480916,32.4870074 L52.480916,27.6362802 C52.480916,27.6060105 52.480916,27.5732183 52.4833569,27.540426 C52.5297337,26.6323336 53.2571176,25.8882023 54.1773315,25.7797357 C54.250558,25.7721682 54.3262255,25.7671233 54.4043338,25.7671233 L96.2411114,25.7671233 L96.2459932,25.7797357 C96.9172367,28.3072597 98.4745217,31.7958482 102.099237,34.3561644" id="Fill-181" fill="#FFAC80"></path>
                        <path d="M90.648855,25.7671233 L42.9538575,25.7671233 C41.9311768,25.7671233 41.086672,24.9775874 41.0329751,23.9938205 C41.0329751,23.9635508 41.0305344,23.9307586 41.0305344,23.8979663 L41.0305344,19.0497616 C41.0305344,19.0169694 41.0329751,18.9841772 41.0329751,18.9513849 C41.086672,17.9676181 41.9311768,17.1780822 42.9538575,17.1780822 L84.7910179,17.1780822 C84.8081033,17.2436666 84.8251886,17.3092511 84.8447147,17.377358 C85.5403329,19.8821797 87.1048635,23.2572567 90.6293288,25.7545109 L90.648855,25.7671233" id="Fill-196" fill="#FFAC80"></path>
                        <path d="M143.129771,9.71154426 L143.129771,15.1012411 C143.129771,15.5300626 142.990031,15.9280537 142.750477,16.2615815 C142.500942,16.609123 142.141611,16.883793 141.717401,17.0379445 C141.590137,17.0855913 141.452893,17.1220271 141.315649,17.1444491 C141.188385,17.1668712 141.058627,17.1780822 140.926373,17.1780822 L49.9133214,17.1780822 C49.5589811,17.1780822 49.2246036,17.0996051 48.9276565,16.9566646 C48.2638923,16.6455588 47.789775,16.0205446 47.7174097,15.2918284 C47.7149144,15.2666036 47.712419,15.2357733 47.712419,15.2077458 C47.7099237,15.17131 47.7099237,15.1376769 47.7099237,15.1012411 L47.7099237,9.71154426 C47.7099237,9.67510846 47.7099237,9.6414754 47.712419,9.60503959 C47.7673168,8.59324523 48.5982697,7.76923541 49.6513092,7.64871697 C49.7361512,7.64030871 49.8234886,7.6347032 49.9133214,7.6347032 L140.926373,7.6347032 C141.058627,7.6347032 141.188385,7.64591421 141.315649,7.66833625 C141.452893,7.69075829 141.590137,7.72719409 141.717401,7.77484092 C142.141611,7.92899242 142.500942,8.20366236 142.750477,8.55120391 C142.990031,8.88473169 143.129771,9.28272283 143.129771,9.71154426" id="Fill-210" fill="#FF5900"></path>
                        <path d="M98.2824427,17.1780822 L50.5875399,17.1780822 C50.2799883,17.1780822 49.9870821,17.0996051 49.7283482,16.9566646 C49.1498584,16.6455588 48.7349078,16.0205446 48.6714448,15.2918284 C48.6690039,15.2666036 48.666563,15.2357733 48.666563,15.2077458 C48.6641221,15.17131 48.6641221,15.1376769 48.6641221,15.1012411 L48.6641221,9.71154426 C48.6641221,9.67510846 48.6641221,9.6414754 48.666563,9.60503959 C48.7153807,8.59604798 49.4403237,7.76923541 50.3605376,7.64871697 C50.4337641,7.64030871 50.5094316,7.6347032 50.5875399,7.6347032 L92.4267584,7.6347032 L92.4291993,7.64871697 C93.0809157,10.3870081 94.5796194,14.1370936 98.0090636,16.9566646 C98.0993763,17.032339 98.1896891,17.1052106 98.2824427,17.1780822" id="Fill-211" fill="#FFAC80"></path>
                        <path d="M145.992366,2.07684107 L145.992366,7.46653793 C145.992366,7.89816212 145.855118,8.29615325 145.615558,8.62687828 C145.363521,8.97722259 145.00418,9.25189253 144.582454,9.40324127 C144.452693,9.45369085 144.31794,9.48732391 144.178197,9.50974594 C144.135774,9.51815421 144.093352,9.52375971 144.05093,9.52936522 C144.028471,9.53216798 144.003517,9.53497073 143.978563,9.53497073 C143.956104,9.53777349 143.93115,9.54057624 143.908691,9.54057624 C143.868764,9.543379 143.828838,9.543379 143.791406,9.543379 L52.773479,9.543379 C51.6006319,9.543379 50.6324091,8.66611684 50.5750145,7.5730426 C50.5725191,7.53940954 50.5725191,7.50297374 50.5725191,7.46653793 L50.5725191,2.07684107 C50.5725191,2.04320801 50.5725191,2.00677221 50.5750145,1.9703364 C50.6324091,0.877262151 51.6006319,0 52.773479,0 L143.791406,0 C143.923664,0 144.053426,0.0112110179 144.178197,0.0336330537 C144.31794,0.0560550895 144.452693,0.0924908978 144.582454,0.140137724 C145.00418,0.29428922 145.363521,0.568959159 145.615558,0.919303469 C145.855118,1.2500285 145.992366,1.64801963 145.992366,2.07684107" id="Fill-225" fill="#FF5900"></path>
                        <path d="M100.19084,9.543379 L52.493496,9.543379 C51.470765,9.543379 50.6262186,8.66611684 50.57496,7.5730426 C50.5725191,7.53940954 50.5725191,7.50297374 50.5725191,7.46653793 L50.5725191,2.07684107 C50.5725191,2.04320801 50.5725191,2.00677221 50.57496,1.9703364 C50.6262186,0.877262151 51.470765,0 52.493496,0 L94.3327145,0 C94.9990762,2.80555723 96.5514794,6.68176667 100.171313,9.52936522 L100.19084,9.543379" id="Fill-226" fill="#FFAC80"></path>
                        <path d="M2.86259542,49.1471769 C2.86259542,25.691699 22.0869602,6.6803653 45.8027653,6.6803653 C69.5158455,6.6803653 88.740458,25.691699 88.740458,49.1471769 C88.740458,72.6026548 69.5158455,91.6164384 45.8027653,91.6164384 C22.0869602,91.6164384 2.86259542,72.6026548 2.86259542,49.1471769" id="Fill-240" fill="#FF5900"></path>
                        <path d="M42.4608522,6.6803653 C65.9127681,6.6803653 84.9236641,25.691699 84.9236641,49.1471769 C84.9236641,72.6026548 65.9127681,91.6164384 42.4608522,91.6164384 C19.0106511,91.6164384 0,72.6026548 0,49.1471769 C0,25.691699 19.0106511,6.6803653 42.4608522,6.6803653 Z" id="Fill-241" fill="#FF5900"></path>
                        <path d="M42.4607316,12.8225701 C22.4344372,12.8225701 6.14130747,29.1198476 6.14130747,49.1496248 C6.14130747,69.179402 22.4344372,85.4742335 42.4607316,85.4742335 C62.487515,85.4742335 78.7823567,69.179402 78.7823567,49.1496248 C78.7823567,29.1198476 62.487515,12.8225701 42.4607316,12.8225701 Z M42.461098,87.7990868 C32.139491,87.7990868 22.4347384,83.7783779 15.1357427,76.4784543 C7.83674699,69.1785307 3.81679389,59.4705868 3.81679389,49.1484018 C3.81679389,38.8237697 7.83674699,29.1182729 15.1357427,21.8183493 C22.4347384,14.5184257 32.139491,10.4977169 42.461098,10.4977169 C52.7844178,10.4977169 62.488681,14.5184257 69.7876767,21.8183493 C77.0866724,29.1182729 81.1068702,38.8237697 81.1068702,49.1484018 C81.1068702,59.4705868 77.0866724,69.1785307 69.7876767,76.4784543 C62.488681,83.7783779 52.7844178,87.7990868 42.461098,87.7990868 L42.461098,87.7990868 Z" id="Fill-242" fill="#FFAC80"></path>
                        <text id="₹-copy" transform="translate(43.120289, 49.973653) rotate(10.000000) translate(-43.120289, -49.973653) " font-family="HelveticaNeue-Medium, Helvetica Neue" font-size="60" font-weight="400" letter-spacing="1.0500003" fill="#FFFDFB">
                            <tspan x="26.898915" y="72.973653">₹</tspan>
                        </text>
                        <path d="M145.992366,84.8965542 L145.992366,89.7472814 C145.992366,90.1332207 145.855118,90.4914127 145.615558,90.7915877 C145.363521,91.1043751 145.00418,91.3515781 144.582454,91.4903144 C144.452693,91.5331965 144.31794,91.5659888 144.178197,91.5861686 C144.053426,91.6063484 143.923664,91.6164384 143.791406,91.6164384 L52.773479,91.6164384 C51.6006319,91.6164384 50.6324091,90.8269024 50.5750145,89.8431356 C50.5725191,89.8103434 50.5725191,89.7800736 50.5725191,89.7472814 L50.5725191,84.8965542 C50.5725191,84.863762 50.5725191,84.8334922 50.5750145,84.8007 C50.6324091,83.8169332 51.6006319,83.0273973 52.773479,83.0273973 L143.791406,83.0273973 C143.923664,83.0273973 144.053426,83.0374872 144.178197,83.057667 C144.31794,83.0778468 144.452693,83.1106391 144.582454,83.1535212 C145.00418,83.2922576 145.363521,83.5394605 145.615558,83.8522479 C145.855118,84.1524229 145.992366,84.5106149 145.992366,84.8965542" id="Fill-75" fill="#FF5900"></path>
                        <path d="M101.145038,91.6164384 L53.4476945,91.6164384 C52.4249634,91.6164384 51.580417,90.8269024 51.5291584,89.8431356 C51.5267176,89.8103434 51.5267176,89.7800736 51.5267176,89.7472814 L51.5267176,84.8965542 C51.5267176,84.863762 51.5267176,84.8334922 51.5291584,84.8007 C51.580417,83.8169332 52.4249634,83.0273973 53.4476945,83.0273973 L95.2869129,83.0273973 C95.9557156,85.5549212 97.5130005,89.0535997 101.145038,91.6164384" id="Fill-76" fill="#FFAC80"></path>
                        <path d="M136.450382,76.5151972 L136.450382,81.9048941 C136.450382,82.3337155 136.310642,82.7317067 136.071088,83.0652344 C135.821552,83.412776 135.459726,83.6874459 135.038011,83.8415974 C134.908253,83.8892443 134.773504,83.9256801 134.636259,83.9481021 C134.508996,83.9705241 134.379238,83.9817352 134.246984,83.9817352 L43.2314367,83.9817352 C42.0586203,83.9817352 41.0929182,83.104473 41.0330297,82.0113988 C41.0305344,81.974963 41.0305344,81.9413299 41.0305344,81.9048941 L41.0305344,76.5151972 C41.0305344,76.4787614 41.0305344,76.4451284 41.0330297,76.4086926 C41.0929182,75.3156183 42.0586203,74.4383562 43.2314367,74.4383562 L134.246984,74.4383562 C134.304377,74.4383562 134.364266,74.4411589 134.421659,74.4439617 C134.446612,74.4467644 134.471566,74.4495672 134.496519,74.4523699 C134.521473,74.4551727 134.551417,74.4579754 134.576371,74.463581 L134.636259,74.4719892 C134.773504,74.4944113 134.908253,74.5308471 135.038011,74.5784939 L135.095404,74.6009159 L135.150302,74.623338 C135.187732,74.6401545 135.225163,74.656971 135.262593,74.6737875 L135.324977,74.7074206 L135.38237,74.7382509 C135.417305,74.7578702 135.45224,74.7774895 135.48468,74.7999115 C135.524605,74.8251363 135.562036,74.8503611 135.599466,74.8783886 C135.626915,74.9008107 135.654364,74.9204299 135.684308,74.9456547 L135.689299,74.9484575 L135.744196,74.9961043 C135.80159,75.0437511 135.853992,75.0970035 135.903899,75.1502558 L135.948815,75.2007054 L135.991237,75.251155 C136.018685,75.284788 136.046134,75.3212238 136.071088,75.3548569 C136.310642,75.6883847 136.450382,76.0863758 136.450382,76.5151972" id="Fill-90" fill="#FF5900"></path>
                        <path d="M90.648855,83.9817352 L42.9539521,83.9817352 C41.9287802,83.9817352 41.0842338,83.104473 41.0329752,82.0113988 C41.0305344,81.974963 41.0305344,81.9413299 41.0305344,81.9048941 L41.0305344,76.5151972 C41.0305344,76.4787614 41.0305344,76.4451284 41.0329752,76.4086926 C41.0842338,75.3156183 41.9287802,74.4383562 42.9539521,74.4383562 L84.7907297,74.4383562 C84.8102568,74.5168333 84.8297839,74.5953104 84.849311,74.6737875 C85.5474042,77.4625282 87.1168936,81.2126137 90.648855,83.9817352" id="Fill-91" fill="#FFAC80"></path>
                        <path d="M141.221374,68.880494 L141.221374,74.2701909 C141.221374,74.6990123 141.081634,75.0970035 140.844576,75.4305312 C140.592545,75.7780728 140.233214,76.0527427 139.811499,76.2068942 C139.681741,76.2545411 139.546991,76.2909769 139.407252,76.3133989 C139.279989,76.3358209 139.152725,76.347032 139.020472,76.347032 L48.0049244,76.347032 C47.6381074,76.347032 47.2937485,76.2629493 46.9893153,76.1116006 C46.3455139,75.7920866 45.8863688,75.1810861 45.8115081,74.4691865 C45.8090128,74.4383562 45.8065174,74.4075259 45.8040221,74.3766956 C45.8040221,74.3402598 45.8015267,74.3038239 45.8015267,74.2701909 L45.8015267,68.880494 C45.8015267,68.8440582 45.8040221,68.8104252 45.8040221,68.7739894 C45.8639106,67.6809151 46.832108,66.803653 48.0049244,66.803653 L139.020472,66.803653 C139.152725,66.803653 139.279989,66.814864 139.407252,66.837286 C139.546991,66.8597081 139.681741,66.8961439 139.811499,66.9437907 C140.233214,67.0979422 140.592545,67.3726121 140.844576,67.7201537 C141.081634,68.0536815 141.221374,68.4516726 141.221374,68.880494" id="Fill-105" fill="#FF5900"></path>
                        <path d="M95.4198473,76.347032 L47.7249445,76.347032 C47.4051885,76.347032 47.1049596,76.2629493 46.8389031,76.1116006 C46.2774994,75.7920866 45.8747533,75.1810861 45.8112903,74.4691865 C45.8088494,74.4383562 45.8064085,74.4075259 45.8039676,74.3766956 C45.8039676,74.3402598 45.8015267,74.3038239 45.8015267,74.2701909 L45.8015267,68.880494 C45.8015267,68.8440582 45.8039676,68.8104252 45.8039676,68.7739894 C45.8576671,67.6809151 46.7022135,66.803653 47.7249445,66.803653 L89.564163,66.803653 C90.2134385,69.5363386 91.7048196,73.2864241 95.1269411,76.1116006 C95.2245765,76.1900777 95.3222119,76.2685548 95.4198473,76.347032" id="Fill-106" fill="#FFAC80"></path>
                        <path d="M143.129771,60.0837688 L143.129771,64.934496 C143.129771,65.3204353 142.990031,65.6786273 142.750477,65.9788023 C142.500942,66.2915897 142.141611,66.5387927 141.717401,66.677529 C141.590137,66.7204112 141.452893,66.7532034 141.315649,66.7733832 C141.188385,66.7935631 141.058627,66.803653 140.926373,66.803653 L49.9133214,66.803653 C48.7380096,66.803653 47.7723075,66.014117 47.712419,65.0303502 C47.7099237,64.997558 47.7099237,64.9672882 47.7099237,64.934496 L47.7099237,60.0837688 C47.7099237,60.0509766 47.7099237,60.0181844 47.712419,59.9879146 C47.7673168,59.0772997 48.5982697,58.3331684 49.6513092,58.2272243 C49.7361512,58.2171344 49.8234886,58.2146119 49.9133214,58.2146119 L140.926373,58.2146119 C141.058627,58.2146119 141.188385,58.2247018 141.315649,58.2448816 C141.452893,58.2650615 141.590137,58.2978537 141.717401,58.3407358 C142.141611,58.4794722 142.500942,58.7266751 142.750477,59.0394625 C142.990031,59.3396375 143.129771,59.6978295 143.129771,60.0837688" id="Fill-120" fill="#FF5900"></path>
                        <path d="M97.3282443,66.803653 L49.6333414,66.803653 C48.6081695,66.803653 47.7636231,66.014117 47.7123645,65.0303502 C47.7099237,64.997558 47.7099237,64.9672882 47.7099237,64.934496 L47.7099237,60.0837688 C47.7099237,60.0509766 47.7099237,60.0181844 47.7123645,59.9879146 C47.7611823,59.0772997 48.4861253,58.3331684 49.4063391,58.2272243 C49.4795657,58.2171344 49.5552331,58.2146119 49.6333414,58.2146119 L91.4725599,58.2146119 L91.4750008,58.2272243 C92.1462443,60.7547483 93.7035293,64.2433368 97.3282443,66.803653" id="Fill-121" fill="#FFAC80"></path>
                        <path d="M136.450382,51.4947277 L136.450382,56.3454549 C136.450382,56.7313942 136.313137,57.0895862 136.073583,57.3897612 C135.821552,57.7025486 135.462221,57.9497516 135.040507,58.0884879 C134.910748,58.1313701 134.775999,58.1641623 134.636259,58.1843421 C134.593838,58.1919096 134.551417,58.1969545 134.508996,58.2019995 C134.486538,58.204522 134.461584,58.204522 134.436631,58.2070444 C134.414173,58.2095669 134.389219,58.2120894 134.364266,58.2120894 C134.326835,58.2146119 134.28691,58.2146119 134.249479,58.2146119 L43.2339321,58.2146119 C42.0611156,58.2146119 41.0929182,57.4250759 41.0330297,56.4413091 C41.0330297,56.4085169 41.0305344,56.3782471 41.0305344,56.3454549 L41.0305344,51.4947277 C41.0305344,51.4619355 41.0330297,51.4316658 41.0330297,51.3988735 C41.0355251,51.3711263 41.0380204,51.3459015 41.0405158,51.3206767 C41.1278532,50.5286183 41.8040941,49.8752962 42.6899449,49.6835878 L42.7573194,49.6709754 C42.9120314,49.6407057 43.071734,49.6255708 43.2339321,49.6255708 L134.249479,49.6255708 C134.314359,49.6255708 134.381733,49.6280933 134.446612,49.6331382 C134.474061,49.6356607 134.504005,49.6381832 134.53395,49.6407057 C134.568885,49.6457506 134.60382,49.6507956 134.636259,49.6558405 C134.775999,49.6760204 134.910748,49.7088126 135.040507,49.7516947 C135.462221,49.8904311 135.821552,50.137634 136.073583,50.4504214 C136.313137,50.7505964 136.450382,51.1087884 136.450382,51.4947277" id="Fill-135" fill="#FF5900"></path>
                        <path d="M90.648855,58.2146119 L42.9538575,58.2146119 C41.9311768,58.2146119 41.086672,57.4250759 41.0329751,56.4413091 C41.0329751,56.4085169 41.0305344,56.3782471 41.0305344,56.3454549 L41.0305344,51.4947277 C41.0305344,51.4619355 41.0329751,51.4316658 41.0329751,51.3988735 C41.0354159,51.3711263 41.0378566,51.3459015 41.0402974,51.3206767 C41.1184019,50.5109609 41.7334748,49.8475489 42.5316051,49.6734979 C42.5584535,49.6659304 42.5877427,49.6608855 42.6145911,49.6558405 C42.7244256,49.6356607 42.8367008,49.6255708 42.9538575,49.6255708 L84.7910179,49.6255708 L84.8081033,49.6861103 C85.4817545,52.2060668 87.0389629,55.6593406 90.6293288,58.2019995 L90.648855,58.2146119" id="Fill-136" fill="#FFAC80"></path>
                    </g>
                    <rect id="Rectangle" fill="#C4C4C4" x="0" y="198.502283" width="250" height="6.6803653" rx="3.34018265"></rect>
                </g>
                <polygon id="Star" fill="#F2652C" points="72.8230011 19.0095942 70.123463 22.9694976 68.5992876 18.2423766 63.9712714 16.6880867 67.8457735 13.9278261 67.6850403 9.00731868 71.6037898 12.0285047 76.1324674 10.5417538 74.6798856 15.1692101 77.6394955 19.1708549"></polygon>
                <polygon id="Star" fill="#F2652C" points="235.823001 103.009594 233.123463 106.969498 231.599288 102.242377 226.971271 100.688087 230.845774 97.9278261 230.68504 93.0073187 234.60379 96.0285047 239.132467 94.5417538 237.679886 99.1692101 240.639495 103.170855"></polygon>
                <polygon id="Star-Copy" fill="#989798" points="239.147193 64.7809417 236.050634 66.4095082 236.699051 62.8578202 234.262213 60.2923589 237.70033 59.832064 239.29084 56.6179551 240.767296 59.8851651 244.187123 60.464198 241.661506 62.9437398 242.184566 66.5157106"></polygon>
                <polygon id="Star-Copy" fill="#989798" points="97.1471928 124.780942 94.0506341 126.409508 94.6990513 122.85782 92.2622133 120.292359 95.7003299 119.832064 97.2908398 116.617955 98.7672956 119.885165 102.187123 120.464198 99.6615061 122.94374 100.184566 126.515711"></polygon>
                <polygon id="Star-Copy" fill="#989798" points="195.147193 42.7809417 192.050634 44.4095082 192.699051 40.8578202 190.262213 38.2923589 193.70033 37.832064 195.29084 34.6179551 196.767296 37.8851651 200.187123 38.464198 197.661506 40.9437398 198.184566 44.5157106"></polygon>
            </g>
        </g>
    </g>
</svg>