<?xml version="1.0" encoding="UTF-8"?>
<svg width="189px" height="426px" viewBox="0 0 189 426" version="1.1" xmlns="http://www.w3.org/2000/svg" xmlns:xlink="http://www.w3.org/1999/xlink">
    <title>Group</title>
    <defs>
        <linearGradient x1="16.2761447%" y1="125.35522%" x2="81.2876884%" y2="-9.56540234%" id="linearGradient-1">
            <stop stop-color="#D50001" offset="0%"></stop>
            <stop stop-color="#FF5900" offset="50.0792177%"></stop>
            <stop stop-color="#FF9E00" offset="100%"></stop>
        </linearGradient>
    </defs>
    <g id="Personal-Loans-Web" stroke="none" stroke-width="1" fill="none" fill-rule="evenodd">
        <g id="Error" transform="translate(-46.000000, -231.000000)">
            <g id="Group" transform="translate(46.000000, 231.268614)">
                <g transform="translate(0.000000, 69.731386)" id="Group-2">
                    <g id="Group" transform="translate(62.000000, 171.000000) scale(-1, 1) translate(-62.000000, -171.000000) translate(17.000000, 0.000000)">
                        <path d="M61,55 C61,55 87.6603355,82.3470468 88.9199999,92.6396611 C90.1796642,102.932275 76.1466959,119 76.1466959,119 L61,55" id="Fill-14" fill="#FF5900"></path>
                        <path d="M30,183.242109 C30,183.242109 34.5865,213.084596 51.8250186,266.072813 C69.0635372,319.064859 71.38161,342 71.38161,342 L89.9987519,341.517558 C89.9987519,341.517558 90.2813506,283.647487 82.3418556,257.002137 C74.4023607,230.356786 80.825752,161 80.825752,161 L30,183.242109" id="Fill-17" fill="#000000"></path>
                        <path d="M20.0210769,163 C20.0210769,163 19.250126,207.837842 27.0336152,262.907421 C34.820998,317.976999 32.0915203,341.339272 32.0915203,341.339272 L51.0304355,342 C51.0304355,342 62.4739946,286.949518 59.288955,259.386084 C56.1039154,231.822651 75,164.863788 75,164.863788 L20.0210769,163" id="Fill-18" fill="#000000"></path>
                        <path d="M57,57.4500287 L47.1728707,64 L33,61.2687184 C33.1968454,60.099716 34.1432177,55.2551038 35.0063091,50.8668009 C35.059306,50.6080968 35.1085174,50.3493926 35.1577287,50.0961023 C35.8958991,46.3624872 36.5356467,43.1547878 36.5356467,43.1547878 L49.792429,37.2146467 L54.7362776,35 C54.7211356,35.0785007 54.3425868,39.1446802 54.2895899,39.7382689 C53.3432177,50.2793994 57,57.4500287 57,57.4500287" id="Fill-19" fill="#FFAC80"></path>
                        <path d="M36.7904447,54.332381 C37.0718711,54.2207849 54.1926201,49.4638633 56.0508055,50.0500173 C57.9089908,50.6365372 59,54.0521101 59,54.0521101 L31,60 C31,60 33.2128597,55.7534935 36.7904447,54.332381" id="Fill-20" fill="#FF8340"></path>
                        <path d="M18.2292638,170.870346 C16.8312156,169.511133 16.7739185,163.203779 17.3239703,154.697249 C18.3935154,138.085082 21.770222,113.096198 21.926834,100.32495 C22.0032301,94.1588612 22.8626859,87.8515064 24.0048073,82.1283074 C26.4342026,69.9259431 30.1203133,60.3545704 30.1203133,60.3545704 C30.1203133,60.3545704 53.4975131,52.8567596 57.8635489,54.1499201 C78.9106683,60.380151 84.1667185,155.143957 81.2636675,168.243554 C78.3606166,181.339333 30.5328521,182.790177 18.2292638,170.870346 Z" id="Fill-21" fill="#FF5900"></path>
                        <path d="M17,155 C18.0967829,138.391439 21.5594832,113.40798 21.7200835,100.639505 C21.7984252,94.4747557 22.6797686,88.1687704 23.850976,82.4468139 L38.269754,80 C38.269754,80 52.2341505,136.108764 17,155" id="Fill-22" fill="#FF8340"></path>
                        <path d="M24.9207249,132.14827 C24.9207249,132.14827 25.8478747,134.409044 23.8855937,135.923763 C21.9195892,137.434715 20.6424309,139.887655 21.0892501,141.684971 C21.5360694,143.482287 25.8292573,146.417526 27.3223781,145.950299 C28.8117755,145.483073 31.8538696,143.124331 31.5299257,142.174806 C31.2022583,141.229048 33.5890175,133.870226 29.9586115,131.025418 C26.3282054,128.184378 24.9207249,132.14827 24.9207249,132.14827" id="Fill-23" fill="#FFAC80"></path>
                        <path d="M41.4375366,57 C41.4375366,57 27.6378513,59.5221728 16.610407,75.510757 C5.58296266,91.5004813 -1.676387,103.389204 0.334545137,109.162532 C2.34932227,114.939661 20.7630011,134.99618 23.9428115,135 C27.126467,135.007583 32.2672247,132.730938 32.5671342,127.584732 C32.5671342,127.584732 19.6133477,108.307365 22.181804,105.426402 C23.2776275,104.198763 39.080555,91.5726954 41.3221868,97.2966139 C45.0287615,106.764264 41.4375366,57 41.4375366,57" id="Fill-24" fill="#FF5900"></path>
                        <path d="M53.6127338,40.5789307 C50.6390106,45.3651187 39.6031078,49.4859754 35,51 C35.0539276,50.7536765 35.1040033,50.5073529 35.1540789,50.2661841 C35.9052137,46.7112456 36.5561971,43.6570545 36.5561971,43.6570545 L50.0458067,38.001186 C53.0233819,37.9684165 54.8376612,38.6094469 53.6127338,40.5789307" id="Fill-25" fill="#FCA56B"></path>
                        <path d="M31.6928542,43.3063923 C31.6928542,43.3063923 53.3752928,50.0494822 57.4092349,36.6257666 C61.443177,23.202051 66.9629031,15.0318058 53.2906108,10.1592149 C39.6183186,5.28624309 35.3765208,9.61341461 32.9284414,13.7695712 C30.4803621,17.9257279 26.1577314,41.2066038 31.6928542,43.3063923" id="Fill-26" fill="#FFAC80"></path>
                        <path d="M33.9960198,11.7144924 C33.9960198,11.7144924 35.3264279,27.2224859 38.5444236,26.5567673 C41.7624194,25.8902931 44.6809785,25.397616 44.1996058,30.0708697 C43.718233,34.7433677 39.2456359,40.1307009 49.157366,40.9792843 C59.0690961,41.8274899 73.3776166,16.3730111 70.6637356,11.5418288 C62.8366906,-2.39783448 22.6780748,-5.29457924 33.9960198,11.7144924" id="Fill-27" fill="#000000"></path>
                    </g>
                    <rect id="Rectangle" fill="#C4C4C4" x="0" y="341" width="107" height="7" rx="3.5"></rect>
                </g>
                <text id="?" transform="translate(51.658637, 32.000000) rotate(-8.000000) translate(-51.658637, -32.000000) " font-family="STHeitiSC-Light, Heiti SC" font-size="60" font-weight="300" letter-spacing="1.0500003" fill="#676767">
                    <tspan x="36.158637" y="54">?</tspan>
                </text>
                <g transform="translate(108.710000, 16.731386)">
                    <g id="Group-3" stroke="url(#linearGradient-1)" stroke-width="3">
                        <path d="M78.29,111 L74.500598,109.221568 L70.2283568,111 L68.4891249,109.32037 L63.1677832,111 L59.5629217,109.935981 L53.2303986,111 L47.3706028,109.935981 L40.6740544,111 L36.2122168,109.32037 L30.0313709,111 L25.0513029,109.935981 L19.3861595,111 L13.3746864,109.935981 L9.42855129,111 L5.13355858,109.935981 L0.29,111 L0.29,7 C0.29,3.13400675 3.42400675,7.10171439e-16 7.29,0 L71.29,0 C75.1559932,-1.59834986e-15 78.29,3.13400675 78.29,7 L78.29,111 L78.29,111 Z" id="Fill-504"></path>
                    </g>
                    <g transform="translate(15.000000, 16.000000)" fill="#F2652C">
                        <rect id="Rectangle" x="0" y="0" width="50" height="4"></rect>
                        <rect id="Rectangle-Copy" x="0" y="9" width="35" height="4"></rect>
                        <rect id="Rectangle-Copy-2" x="0" y="18" width="11" height="4"></rect>
                        <rect id="Rectangle-Copy-2" x="16" y="18" width="34" height="4"></rect>
                        <rect id="Rectangle-Copy-2" x="39" y="27" width="11" height="4"></rect>
                        <rect id="Rectangle-Copy-2" x="0" y="27" width="34" height="4"></rect>
                        <rect id="Rectangle-Copy-3" x="11" y="37" width="39" height="4"></rect>
                        <circle id="Oval" cx="3" cy="39" r="3"></circle>
                    </g>
                    <rect id="Rectangle" fill="#F2652C" x="15" y="73" width="50" height="4"></rect>
                    <rect id="Rectangle-Copy" fill="#F2652C" x="15" y="82" width="35" height="4"></rect>
                    <circle id="Oval" fill="#F2652C" cx="60" cy="84" r="3"></circle>
                    <rect id="Rectangle-Copy-2" fill="#F2652C" x="15" y="91" width="11" height="4"></rect>
                    <rect id="Rectangle-Copy-2" fill="#F2652C" x="31" y="91" width="34" height="4"></rect>
                </g>
            </g>
        </g>
    </g>
</svg>