<?xml version="1.0" encoding="UTF-8"?>
<svg width="262px" height="219px" viewBox="0 0 262 219" version="1.1" xmlns="http://www.w3.org/2000/svg" xmlns:xlink="http://www.w3.org/1999/xlink">
    <title>loan icon</title>
    <defs>
        <linearGradient x1="100%" y1="36.1495845%" x2="-57.0986688%" y2="79.2258809%" id="linearGradient-1">
            <stop stop-color="#FF9E00" offset="0%"></stop>
            <stop stop-color="#FF5900" offset="46.7038597%"></stop>
            <stop stop-color="#D50001" offset="100%"></stop>
        </linearGradient>
        <linearGradient x1="111.869273%" y1="36.4464025%" x2="-36.7033352%" y2="70.3709261%" id="linearGradient-2">
            <stop stop-color="#FF9E00" offset="0%"></stop>
            <stop stop-color="#FF5900" offset="46.7038597%"></stop>
            <stop stop-color="#D50001" offset="100%"></stop>
        </linearGradient>
    </defs>
    <g id="loan-icon" stroke="none" stroke-width="1" fill="none" fill-rule="evenodd">
        <g id="Group-21" transform="translate(4.000000, 0.000000)">
            <path d="M162.017024,56.9970366 C167.285324,57.1366222 175.303119,52.2985845 175.303119,52.2985845 C175.303119,52.2985845 180.139547,38.7950711 176.858931,33.5103593 C176.858931,33.5103593 173.567584,31.7013296 170.126022,34.8950487 C169.535886,35.4478078 168.935021,36.1401525 168.344886,37.0335005 C167.510649,38.2897711 166.574479,39.0044495 165.579296,39.3813307 C161.818524,40.8134792 157.357636,37.4438822 155.689163,40.6962273 C154.712757,42.5862167 153.653195,44.0071983 152.781404,45.0066314 C151.75135,46.156817 151,46.7207429 151,46.7207429 C151,46.7207429 156.748724,56.8546593 162.017024,56.9970366 Z" id="Fill-28" fill="#EEEEEE"></path>
            <path d="M168.928606,57 C168.928606,57 108.301546,71.6703646 123.421671,191 L233.01788,191 C233.01788,191 247.062687,65.7919104 168.928606,57 Z" id="Fill-29" fill="#EEEEEE"></path>
            <path d="M177.929493,58.6596065 C177.929493,58.6596065 163.480616,62.5770869 159.022196,60.2753662 C159.022196,60.2753662 158.34788,52.9066447 164.432592,53.9409452 C168.597486,54.6483425 171.310617,52.207286 172.905177,51.215858 C175.163475,49.8144611 178.529767,55.5781412 177.929493,58.6596065" id="Fill-30" fill="url(#linearGradient-1)"></path>
            <path d="M165.657051,46.9628678 C166.477508,47.742055 169,36 169,36 C168.482807,36.4882249 167.95621,37.0997389 167.439017,37.8887892 C166.707894,38.9983912 165.887437,39.6296314 165.015261,39.962512 C165.008209,40.3052558 164.860103,46.2058726 165.657051,46.9628678" id="Fill-31" fill="#CCCCCC"></path>
            <path d="M152,45.0631579 C152.20641,45.2078947 158.980426,50 159.89989,50 C160.835439,50 154.90583,41 154.90583,41 C153.930072,42.7815789 152.871213,44.1210526 152,45.0631579" id="Fill-32" fill="#CCCCCC"></path>
            <path d="M215,79.2881766 C215,79.2881766 211.595124,83.9332677 208.470314,83.9985853 C205.348098,84.063903 200.597349,81.8456145 200.597349,81.8456145 C200.597349,81.8456145 197.73186,75.6555094 199.676762,73.2337313 C199.676762,73.2337313 201.626851,72.4046994 203.665109,73.8693224 C204.015191,74.1205442 204.37046,74.4395959 204.720543,74.8490875 C205.215844,75.4243854 205.77079,75.7534859 206.359447,75.9243168 C208.587009,76.5825179 211.232076,75.0375038 212.222679,76.5272491 C212.800964,77.3939643 213.428519,78.0446287 213.944566,78.5043646 C214.556562,79.0319304 215,79.2881766 215,79.2881766" id="Fill-41" fill="#CCCCCC"></path>
            <path d="M169,115 C169,115 181.516272,84.5787316 204.046641,84 C204.046641,84 224.845979,86.3176306 226,115 L169,115" id="Fill-42" fill="#CCCCCC"></path>
            <path d="M198.040752,85.8297758 C198.040752,85.8297758 206.407312,87.7891194 208.98721,86.6371832 C208.98721,86.6371832 209.376817,82.9525653 205.855369,83.4706736 C203.442803,83.8230924 201.871887,82.6027764 200.950317,82.108338 C199.641637,81.4061303 197.693602,84.2886009 198.040752,85.8297758" id="Fill-43" fill="url(#linearGradient-2)"></path>
            <path d="M206.507785,79.9833162 C205.892342,80.3353385 204,75 204,75 C204.388247,75.220014 204.782245,75.4994317 205.170491,75.8580544 C205.719788,76.3618864 206.335231,76.6501047 206.98806,76.7997142 C206.993812,76.9559241 207.105972,79.6378943 206.507785,79.9833162" id="Fill-44" fill="#B6B6B6"></path>
            <path d="M214,79.2588978 C213.871521,79.3363949 209.637183,82 209.063128,82 C208.475406,82 212.184893,77 212.184893,77 C212.794485,77.9902411 213.456015,78.7336395 214,79.2588978" id="Fill-45" fill="#B6B6B6"></path>
            <path d="M183.004185,106.616559 C182.781469,106.415066 191.511437,93.100235 193.917293,93.0022117 C196.32056,92.9069112 201.722729,95.9211277 205.635806,96.3077752 C209.546294,96.6971455 213.337653,95.5317574 214.078315,97.9632798 C214.818977,100.392079 216.851912,109.009961 215.603664,110.390456 C214.355416,111.770951 187.805538,110.926861 183.004185,106.616559" id="Fill-46" fill="#FFFFFF"></path>
            <polygon id="Fill-156" fill="#FFA412" points="220 165 221 165 221 155 220 155"></polygon>
            <polygon id="Fill-157" fill="#FFA412" points="209 165 210 165 210 155 209 155"></polygon>
            <polygon id="Fill-158" fill="#FFA412" points="198 165 199 165 199 155 198 155"></polygon>
            <polygon id="Fill-171" fill="#FFA412" points="225 157 226 157 226 147 225 147"></polygon>
            <polygon id="Fill-172" fill="#FFA412" points="215 157 216 157 216 147 215 147"></polygon>
            <polygon id="Fill-173" fill="#FFA412" points="203 157 204 157 204 147 203 147"></polygon>
            <polygon id="Fill-174" fill="#FFA412" points="193 157 194 157 194 147 193 147"></polygon>
            <polygon id="Fill-187" fill="#FFA412" points="222 147 223 147 223 138 222 138"></polygon>
            <polygon id="Fill-188" fill="#FFA412" points="212 147 213 147 213 138 212 138"></polygon>
            <polygon id="Fill-189" fill="#FFA412" points="201 147 202 147 202 138 201 138"></polygon>
            <polygon id="Fill-201" fill="#FFA412" points="221 138 222 138 222 129 221 129"></polygon>
            <polygon id="Fill-202" fill="#FFA412" points="209 138 210 138 210 129 209 129"></polygon>
            <polygon id="Fill-203" fill="#FFA412" points="199 138 200 138 200 129 199 129"></polygon>
            <polygon id="Fill-217" fill="#FFA412" points="216 129 217 129 217 119 216 119"></polygon>
            <polygon id="Fill-218" fill="#FFA412" points="206 129 207 129 207 119 206 119"></polygon>
            <polygon id="Fill-219" fill="#FFA412" points="196 129 197 129 197 119 196 119"></polygon>
            <path d="M109.004341,48.28893 C107.405835,40.7035007 97.4237148,38.3487569 92.7008804,44.5443259 C91.8517248,45.6588869 91.2537089,46.9765812 91.059252,48.5321555 C89.9809248,57.143943 103.952801,92.2218758 105.953782,95.3971717 C109.596391,101.178456 131.046586,121 131.046586,121 L135,118.63991 C135,118.63991 119.785443,93.2535797 117.42945,90.8801262 C114.705427,88.1324795 112.039442,62.6953653 109.004341,48.28893" id="Fill-246" fill="#FF5900"></path>
            <path d="M129,118.135273 C129,118.135273 134.582144,114.794761 136.695456,115.009969 C138.808505,115.225177 144.924618,116.829676 144.9994,117.647467 C145.073919,118.46765 138.184535,118.979368 137.721936,119.426523 C137.2596,119.873679 132.581399,122.721603 130.885555,121.827292 C129.18971,120.935373 129,118.135273 129,118.135273" id="Fill-247" fill="#FFAC80"></path>
            <path d="M78.2067261,209 C78.2067261,209 69.5697223,189.507674 63.5481561,163.635664 C63.1774837,162.043048 61.3291026,157.583285 58.0030127,150.256373 C55.0522841,143.39791 52.3960351,137.86284 50.0342657,133.651163 C43.6529465,122.274224 37.6974515,108.923548 35.1487456,104.591924 C27.0293325,90.7799694 30.9428132,81.4917342 30.9428132,81.4917342 C30.9428132,81.4917342 53.5945301,79.3056305 59.8016522,74 L62.0371356,77.365734 C62.0371356,77.365734 66.9448414,98.5936669 66.7127633,98.6910676 C66.9545344,99.4134558 67.2001828,100.146666 67.4494315,100.89611 C71.3227554,112.573367 72.7953484,126.343018 75.2241379,138.228605 C76.5894666,144.919489 81.1825323,161.051841 81.5539128,163.635664 C83.746747,178.868045 91,209 91,209 L78.2067261,209 Z" id="Fill-248" fill="#000000"></path>
            <path d="M67,100.937946 C65.156131,111.289314 60.8007027,128.515401 51.6756012,134 C45.5412627,122.605365 38.3995317,108.97787 35.9494701,104.639509 C28.1443083,90.8060699 31.9063228,81.5033872 31.9063228,81.5033872 C31.9063228,81.5033872 53.6813345,79.3138831 59.6482181,74 L61.79718,77.3709692 C61.79718,77.3709692 66.5149395,98.6319212 66.2918436,98.7294734 C66.5242573,99.4529853 66.7603982,100.187336 67,100.937946" id="Fill-250" fill="#000000"></path>
            <path d="M106.621521,42 C106.621521,42 109.627369,45.2148174 111,49.0637744 C111,49.0637744 106.205174,63.2244067 95,65 C95,65 103.865535,41.9944867 106.621521,42" id="Fill-251" fill="#FF5900"></path>
            <path d="M53,78.5609624 C44.9582368,79.5709423 25.2710774,69 25.2710774,69 C25.2710774,69 16.8577916,74.5670741 15.7059355,90.4668111 C15.1438885,98.2244314 9.34487658,132.804735 8.95130759,142.603976 C8.80786993,146.156506 8.45359736,147.403999 8.43699451,148.416686 C7.63625779,150.988714 6.92003093,153.323928 6.28831393,155.422327 C-2.37265292,184.191807 0.434043173,209 0.434043173,209 L10.3589183,209 C10.3589183,209 14.1399267,182.661063 20.921507,168.819193 C22.0725466,166.474307 24.3962982,160.079563 25.2710774,159.023552 C27.8211105,155.942166 28.751414,148.902135 31.4016086,142.603976 C36.4113118,130.700836 41.2748556,114.990639 44.7434886,102.827557 C44.9881764,102.87088 52.9270564,82.5765125 52.9270564,82.5765125 L53,78.5609624 Z" id="Fill-252" fill="#000000"></path>
            <path d="M99.224619,55.9651593 C86.2636109,52.9510684 94.5439195,34.4856813 95.2949673,34.8121172 C97.0906129,34.4394363 101.034754,31.2430854 104.562988,25 L105.039537,25.418926 L113,32.4944227 C113,32.4944227 111.159812,35.2473649 109.612101,37.9431809 C108.402482,40.0514123 107.373984,42.1324408 107.537663,42.845159 C108.178429,43.3565752 102.681478,56.7703677 99.224619,55.9651593" id="Fill-253" fill="#FFAC80"></path>
            <path d="M113,33.2157289 C113,33.2157289 111.184126,35.6293721 109.657352,38 C104.774163,35.282859 104.768869,29.8270693 105.145069,27 L113,33.2157289" id="Fill-254" fill="#FFAC80"></path>
            <path d="M106.881725,22.3334401 C111.486239,14.2347888 117.684245,5.85824753 126.133987,10.1748931 C134.584017,14.4912459 129.651105,20.4947008 128.76219,23.574882 C127.873564,26.6579911 120.686174,38.5256511 117.204135,36.8362361 C117.204135,36.8362361 102.277499,30.4291636 106.881725,22.3334401 Z" id="Fill-255" fill="#FFAC80"></path>
            <path d="M93.525069,68.7123898 C90.7933158,69.6734125 90.4651657,69.7053946 86.5422706,70.1346154 C80.9590608,70.7501018 78.198357,73.0072973 75.1784588,74.2193737 C74.0770275,74.662092 73.3403298,75.2100909 73.1105636,75.9092619 C71.801593,79.8775297 66.0333384,86 66.0333384,86 C29.0594694,84.3020133 25,68.7123898 25,68.7123898 C49.8760664,39.5523702 91.995572,31.1137272 91.995572,31.1137272 C91.995572,31.1137272 95.0042229,29.8287643 102.580614,35.8972446 C107.636807,39.949197 106.971075,41.5041101 106.971075,41.5041101 C106.971075,41.5041101 105.2101,62.0197754 97.1698918,64.8461538 L93.525069,68.7123898 Z" id="Fill-258" fill="#FF5900"></path>
            <path d="M87.2745096,70.8709677 C81.879157,71.4756922 79.0340992,73.8091173 76.115811,75 C74.9233421,56.7362619 83.3327323,43 83.3327323,43 C83.3327323,43 87.8183999,61.89721 89,68.8064516 L87.2745096,70.8709677 Z" id="Fill-259" fill="#FF8340"></path>
            <path d="M95.2489607,40 C95.2489607,40 81.1892979,41.3820152 80.0619203,50.4749253 C78.9348118,59.5705138 93.5417505,96.609057 95.633722,99.9623188 C99.4417828,106.068898 121.86691,127 121.86691,127 L126,124.50648 C126,124.50648 110.093752,97.7018133 107.630741,95.1922236 C103.764294,91.2550873 100.009777,43.1497091 95.2489607,40" id="Fill-260" fill="#FF5900"></path>
            <path d="M100.872714,55.0874764 C100.872714,55.0874764 102.700385,36.0063439 92.5045561,37.0405734 C82.3087271,38.0774753 76.2713127,41.1855085 76.0143956,45.9130327 C75.7574784,50.640557 79.024548,55.0874764 79.024548,55.0874764 C79.0620784,55.2932533 92.3326342,59.28586 100.872714,55.0874764 Z" id="Fill-261" fill="#FF5900"></path>
            <path d="M121,124.4056 C121,124.4056 126.009532,120.112083 128.172356,120.009797 C130.33518,119.907511 136.772074,120.621019 136.99469,121.454275 C137.217039,122.285037 130.384086,123.869223 129.999786,124.400611 C129.615753,124.931999 125.425866,128.579368 123.560487,127.920746 C121.695108,127.262124 121,124.4056 121,124.4056" id="Fill-262" fill="#FFB27D"></path>
            <polygon id="Fill-82" fill="#FFA412" points="219 210 220 210 220 201 219 201"></polygon>
            <polygon id="Fill-83" fill="#FFA412" points="209 210 210 210 210 201 209 201"></polygon>
            <polygon id="Fill-84" fill="#FFA412" points="200 210 201 210 201 201 200 201"></polygon>
            <polygon id="Fill-96" fill="#FFA412" points="220 202 221 202 221 192 220 192"></polygon>
            <polygon id="Fill-97" fill="#FFA412" points="209 202 210 202 210 192 209 192"></polygon>
            <polygon id="Fill-98" fill="#FFA412" points="198 202 199 202 199 192 198 192"></polygon>
            <polygon id="Fill-111" fill="#FFA412" points="225 194 226 194 226 184 225 184"></polygon>
            <polygon id="Fill-112" fill="#FFA412" points="215 194 216 194 216 184 215 184"></polygon>
            <polygon id="Fill-113" fill="#FFA412" points="203 194 204 194 204 184 203 184"></polygon>
            <polygon id="Fill-114" fill="#FFA412" points="193 194 194 194 194 184 193 184"></polygon>
            <polygon id="Fill-127" fill="#FFA412" points="216 184 217 184 217 175 216 175"></polygon>
            <polygon id="Fill-128" fill="#FFA412" points="206 184 207 184 207 175 206 175"></polygon>
            <polygon id="Fill-129" fill="#FFA412" points="196 184 197 184 197 175 196 175"></polygon>
            <polygon id="Fill-141" fill="#FFA412" points="221 173 222 173 222 164 221 164"></polygon>
            <polygon id="Fill-142" fill="#FFA412" points="209 173 210 173 210 164 209 164"></polygon>
            <polygon id="Fill-143" fill="#FFA412" points="199 173 200 173 200 164 199 164"></polygon>
            <path d="M105.612166,29.2502994 C105.612166,29.2502994 107.405145,28.9565645 107.115671,26.5367367 C106.826521,24.116591 106.830021,20.953432 108.838139,21.5432498 C110.846257,22.1327497 110.946226,23.7081317 111.771317,22.7880389 C112.596408,21.8682641 112.610924,17.9922897 118.585591,17.7228097 C124.560257,17.4530117 126.988263,19.4907257 129.766619,18.2940702 C132.544974,17.0970968 132.691542,12.9763135 132.691542,12.9763135 C132.691542,12.9763135 131.901505,14.4477104 130.707814,14.9156881 C130.707814,14.9156881 135.342965,8.703611 129.976243,4.44345037 C124.609522,0.183607678 119.137829,2.97211666 116.031743,3.1564523 C109.189463,3.56199053 104.76898,3.96440244 102.533847,8.37032981 C100.298714,12.7759392 101.221107,25.0092364 105.612166,29.2502994" id="Fill-570" fill="#000000" transform="translate(117.026095, 15.670378) rotate(5.000000) translate(-117.026095, -15.670378) "></path>
        </g>
        <g id="Group-3" transform="translate(106.000000, 114.000000)">
            <path d="M143,46.1762115 L143,51.8237885 C143,52.2731278 142.853553,52.6930984 142.6025,53.0396476 C142.340987,53.4067548 141.961793,53.69163 141.519836,53.8531571 C141.415231,53.8942731 141.30278,53.9236417 141.190329,53.9471366 L141.187714,53.9471366 C141.158948,53.9559471 141.127566,53.9618209 141.0988,53.9647577 C140.965428,53.9882526 140.829441,54 140.690839,54 L45.3065457,54 C45.2071707,54 45.1051806,53.9941263 45.0084207,53.9823789 C44.9718089,53.9765051 44.9325819,53.9706314 44.8959701,53.9647577 C43.857763,53.7885463 43.0575329,52.9515419 43.0026151,51.9353891 C43,51.9001468 43,51.8619677 43,51.8237885 L43,46.1762115 C43,46.1409692 43,46.10279 43.0026151,46.0646109 C43.0653783,44.9192364 44.077434,44 45.3065457,44 L140.690839,44 C140.750987,44 140.81375,44.0029369 140.873898,44.0088106 C140.90005,44.0117474 140.926201,44.0117474 140.952352,44.0146843 C140.978504,44.0176211 141.009885,44.020558 141.036037,44.0264317 L141.0988,44.0352423 C141.242632,44.0587372 141.383849,44.0969163 141.519836,44.1468429 L141.579984,44.1703377 L141.637517,44.1938326 C141.679359,44.2114537 141.715971,44.2290749 141.755198,44.246696 C141.79704,44.2701909 141.838882,44.2907489 141.880724,44.3142438 C141.917336,44.3348018 141.953948,44.3553598 141.987944,44.3788546 C142.029786,44.4052863 142.069013,44.4346549 142.10824,44.4640235 C142.137007,44.4845815 142.165773,44.5080764 142.197155,44.5315712 L142.202385,44.5374449 L142.259918,44.5844347 C142.320066,44.6343612 142.374984,44.6901615 142.427286,44.7488987 L142.474359,44.7988253 L142.518816,44.8516887 C142.547582,44.886931 142.576349,44.9251101 142.6025,44.9632893 C142.853553,45.3098385 143,45.7268722 143,46.1762115" id="Fill-150" fill="#FF5900"></path>
            <path d="M148,37.1762115 L148,42.8237885 C148,43.2731278 147.853553,43.6901615 147.605115,44.0396476 C147.340987,44.4038179 146.964408,44.69163 146.522451,44.8531571 C146.386464,44.9030837 146.245247,44.9412628 146.0988,44.9647577 C145.965428,44.9882526 145.832056,45 145.693454,45 L50.3091608,45 C49.9247365,45 49.5638484,44.9118943 49.2448024,44.753304 C48.5700986,44.4214391 48.0889145,43.7812041 48.0104605,43.0323054 C48.0078454,43 48.0052303,42.9676946 48.0026151,42.9353891 C48.0026151,42.9001468 48,42.8619677 48,42.8237885 L48,37.1762115 C48,37.1409692 48.0026151,37.10279 48.0026151,37.0646109 C48.0653783,35.9192364 49.0800492,35 50.3091608,35 L145.693454,35 C145.832056,35 145.965428,35.0117474 146.0988,35.0352423 C146.245247,35.0587372 146.386464,35.0969163 146.522451,35.1468429 C146.964408,35.30837 147.340987,35.5961821 147.605115,35.9603524 C147.853553,36.3098385 148,36.7268722 148,37.1762115" id="Fill-165" fill="#FF5900"></path>
            <path d="M101,45 L51.0157418,45 C50.6806375,45 50.3659976,44.9118943 50.0871704,44.753304 C49.4988194,44.4214391 49.0767414,43.7812041 49.0102322,43.0323054 C49.0076741,43 49.0051161,42.9676946 49.002558,42.9353891 C49.002558,42.9001468 49,42.8619677 49,42.8237885 L49,37.1762115 C49,37.1409692 49.002558,37.10279 49.002558,37.0646109 C49.0588351,35.9192364 49.9439197,35 51.0157418,35 L94.8632428,35 C95.5436836,37.8634361 97.1066509,41.7929515 100.693034,44.753304 C100.795356,44.8384728 100.897678,44.917768 101,45" id="Fill-166" fill="#FFAC80"></path>
            <path d="M109,35 L59.0157418,35 C57.9413617,35 57.0562771,34.1726872 57.002558,33.1418502 C57,33.107489 57,33.0757709 57,33.0414097 L57,27.9585903 C57,27.9268722 57,27.892511 57.002558,27.8581498 C57.051161,26.9066079 57.8134593,26.1268722 58.7778434,26.0132159 C58.8545848,26.0052863 58.9338843,26 59.0157418,26 L102.860685,26 L102.865801,26.0132159 C103.569264,28.661674 105.201299,32.3171806 109,35" id="Fill-181" fill="#FF5900"></path>
            <path d="M143,19.9612335 L143,25.0414097 C143,25.4484581 142.856168,25.8237885 142.605115,26.1356828 C142.340987,26.4660793 141.964408,26.7251101 141.522451,26.8678414 C141.386464,26.9154185 141.245247,26.9471366 141.0988,26.9709251 C141.054342,26.9762115 141.009885,26.9814978 140.965428,26.9867841 C140.928816,26.9920705 140.894819,26.9947137 140.858208,26.9947137 L140.805905,27 C140.766678,27 140.730066,27 140.693454,27 L45.3091608,27 C44.0800492,27 43.0653783,26.1726872 43.0026151,25.1418502 C43.0026151,25.1101322 43,25.0757709 43,25.0414097 L43,19.9612335 C43,19.9268722 43.0026151,19.892511 43.0026151,19.8581498 C43.0653783,18.8273128 44.0800492,18 45.3091608,18 L140.693454,18 C140.732681,18 140.774523,18.0026432 140.81375,18.0052863 C140.913125,18.0079295 141.00727,18.0185022 141.0988,18.0317181 C141.245247,18.0555066 141.386464,18.0872247 141.522451,18.1321586 C141.590444,18.1559471 141.658438,18.1797357 141.721201,18.2088106 C141.763043,18.2273128 141.80227,18.2431718 141.841497,18.2643172 L141.854573,18.2696035 C141.8938,18.2881057 141.930411,18.3092511 141.969638,18.3303965 L141.987944,18.3436123 C142.024556,18.3621145 142.058553,18.3832599 142.092549,18.4070485 C142.173619,18.4572687 142.249457,18.5154185 142.322681,18.5762115 L142.385444,18.6343612 L142.39852,18.6449339 L142.437747,18.6819383 L142.445592,18.6898678 C142.469128,18.7110132 142.490049,18.7348018 142.513586,18.7612335 C142.544967,18.7955947 142.576349,18.8299559 142.605115,18.8669604 C142.856168,19.1788546 143,19.554185 143,19.9612335" id="Fill-195" fill="#FF5900"></path>
            <path d="M153,28.9585903 L153,34.0414097 C153,34.445815 152.855017,34.8211454 152.606475,35.1356828 C152.347577,35.4634361 151.974764,35.722467 151.534637,35.8678414 C151.402599,35.9127753 151.260206,35.9471366 151.117812,35.9682819 C150.985774,35.9894273 150.851147,36 150.713931,36 L56.2834802,36 C55.0666597,36 54.0647245,35.1726872 54.002589,34.1418502 C54,34.107489 54,34.0757709 54,34.0414097 L54,28.9585903 C54,28.9268722 54,28.892511 54.002589,28.8581498 C54.0595465,27.9066079 54.9216768,27.1268722 56.0142263,27.0132159 C56.1022516,27.0052863 56.1928659,27 56.2834802,27 L150.713931,27 C150.851147,27 150.985774,27.0105727 151.117812,27.0317181 C151.260206,27.0528634 151.402599,27.0872247 151.534637,27.1321586 C151.974764,27.277533 152.347577,27.5365639 152.606475,27.8643172 C152.855017,28.1788546 153,28.554185 153,28.9585903" id="Fill-180" fill="#FF5900"></path>
            <path d="M107,36 L57.0157418,36 C55.9413617,36 55.0562771,35.1726872 55.002558,34.1418502 C55,34.107489 55,34.0757709 55,34.0414097 L55,28.9585903 C55,28.9268722 55,28.892511 55.002558,28.8581498 C55.051161,27.9066079 55.8134593,27.1268722 56.7778434,27.0132159 C56.8545848,27.0052863 56.9338843,27 57.0157418,27 L100.860685,27 L100.865801,27.0132159 C101.569264,29.661674 103.201299,33.3171806 107,36" id="Fill-181" fill="#FFAC80"></path>
            <path d="M95,27 L45.0156427,27 C43.9438733,27 43.0588322,26.1726872 43.0025579,25.1418502 C43.0025579,25.1101322 43,25.0757709 43,25.0414097 L43,19.9612335 C43,19.9268722 43.0025579,19.892511 43.0025579,19.8581498 C43.0588322,18.8273128 43.9438733,18 45.0156427,18 L88.8609868,18 C88.8788922,18.0687225 88.8967977,18.1374449 88.9172611,18.2088106 C89.6462689,20.8334802 91.285897,24.3700441 94.9795366,26.9867841 L95,27" id="Fill-196" fill="#FFAC80"></path>
            <path d="M150,10.1762115 L150,15.8237885 C150,16.2731278 149.853553,16.6901615 149.6025,17.0396476 C149.340987,17.4038179 148.964408,17.69163 148.519836,17.8531571 C148.386464,17.9030837 148.242632,17.9412628 148.0988,17.9647577 C147.965428,17.9882526 147.829441,18 147.690839,18 L52.3091608,18 C51.9378122,18 51.5873846,17.917768 51.276184,17.7679883 C50.5805591,17.4419971 50.0836842,16.7870778 50.0078454,16.0234949 C50.0052303,15.9970631 50.0026151,15.9647577 50.0026151,15.9353891 C50,15.89721 50,15.8619677 50,15.8237885 L50,10.1762115 C50,10.1380323 50,10.10279 50.0026151,10.0646109 C50.060148,9.00440529 50.9309867,8.14096916 52.034572,8.01468429 C52.1234865,8.00587372 52.2150161,8 52.3091608,8 L147.690839,8 C147.829441,8 147.965428,8.01174743 148.0988,8.03524229 C148.242632,8.05873715 148.386464,8.0969163 148.519836,8.14684288 C148.964408,8.30837004 149.340987,8.59618209 149.6025,8.96035242 C149.853553,9.30983847 150,9.72687225 150,10.1762115" id="Fill-210" fill="#FF5900"></path>
            <path d="M103,18 L53.0157418,18 C52.6934278,18 52.386462,17.917768 52.1153089,17.7679883 C51.5090516,17.4419971 51.0741834,16.7870778 51.0076741,16.0234949 C51.0051161,15.9970631 51.002558,15.9647577 51.002558,15.9353891 C51,15.89721 51,15.8619677 51,15.8237885 L51,10.1762115 C51,10.1380323 51,10.10279 51.002558,10.0646109 C51.053719,9.00734214 51.8134593,8.14096916 52.7778434,8.01468429 C52.8545848,8.00587372 52.9338843,8 53.0157418,8 L96.8632428,8 L96.8658009,8.01468429 C97.5487997,10.8839941 99.1194412,14.8135095 102.713499,17.7679883 C102.808146,17.8472834 102.902794,17.9236417 103,18" id="Fill-211" fill="#FFAC80"></path>
            <path d="M153,2.17621145 L153,7.82378855 C153,8.27606461 152.856164,8.69309838 152.605105,9.03964758 C152.34097,9.40675477 151.964381,9.69456681 151.522412,9.85315712 C151.386422,9.90602056 151.245201,9.94126285 151.09875,9.96475771 C151.054292,9.97356828 151.009833,9.979442 150.965375,9.98531571 C150.941838,9.98825257 150.915686,9.99118943 150.889534,9.99118943 C150.865997,9.99412628 150.839845,9.99706314 150.816308,9.99706314 C150.774465,10 150.732622,10 150.693394,10 L55.306606,10 C54.0774622,10 53.0627648,9.08076358 53.0026152,7.93538913 C53,7.90014684 53,7.86196769 53,7.82378855 L53,2.17621145 C53,2.14096916 53,2.10279001 53.0026152,2.06461087 C53.0627648,0.919236417 54.0774622,0 55.306606,0 L150.693394,0 C150.832,0 150.96799,0.0117474302 151.09875,0.0352422907 C151.245201,0.0587371512 151.386422,0.0969162996 151.522412,0.146842878 C151.964381,0.308370044 152.34097,0.596182085 152.605105,0.96328928 C152.856164,1.30983847 153,1.72687225 153,2.17621145" id="Fill-225" fill="#FF5900"></path>
            <path d="M105,10 L55.0131838,10 C53.9413617,10 53.0562771,9.08076358 53.002558,7.93538913 C53,7.90014684 53,7.86196769 53,7.82378855 L53,2.17621145 C53,2.14096916 53,2.10279001 53.002558,2.06461087 C53.0562771,0.919236417 53.9413617,0 55.0131838,0 L98.8606848,0 C99.5590319,2.93979442 101.18595,7.00146843 104.979536,9.98531571 L105,10" id="Fill-226" fill="#FFAC80"></path>
            <path d="M3,51.4987164 C3,26.9209669 23.1471343,7 48.001298,7 C72.8526061,7 93,26.9209669 93,51.4987164 C93,76.076466 72.8526061,96 48.001298,96 C23.1471343,96 3,76.076466 3,51.4987164" id="Fill-240" fill="#FF5900"></path>
            <path d="M44.4989732,7 C69.0765809,7 89,26.9209669 89,51.4987164 C89,76.076466 69.0765809,96 44.4989732,96 C19.9231623,96 0,76.076466 0,51.4987164 C0,26.9209669 19.9231623,7 44.4989732,7 Z" id="Fill-241" fill="#FF5900"></path>
            <path d="M44.4988467,13.4360902 C23.5112902,13.4360902 6.43609023,30.5131418 6.43609023,51.5012815 C6.43609023,72.4894212 23.5112902,89.5639098 44.4988467,89.5639098 C65.4869157,89.5639098 82.5639098,72.4894212 82.5639098,51.5012815 C82.5639098,30.5131418 65.4869157,13.4360902 44.4988467,13.4360902 Z M44.4992307,92 C33.6821866,92 23.5116059,87.7869128 15.8622584,80.1377105 C8.21291084,72.4885083 4,62.3160694 4,51.5 C4,40.6813663 8.21291084,30.5114917 15.8622584,22.8622895 C23.5116059,15.2130872 33.6821866,11 44.4992307,11 C55.3180699,11 65.4881377,15.2130872 73.1374852,22.8622895 C80.7868327,30.5114917 85,40.6813663 85,51.5 C85,62.3160694 80.7868327,72.4885083 73.1374852,80.1377105 C65.4881377,87.7869128 55.3180699,92 44.4992307,92 L44.4992307,92 Z" id="Fill-242" fill="#FFAC80"></path>
            <text id="₹-copy" transform="translate(45.190063, 52.364737) rotate(10.000000) translate(-45.190063, -52.364737) " font-family="HelveticaNeue-Medium, Helvetica Neue" font-size="60" font-weight="400" letter-spacing="1.0500003" fill="#FFFDFB">
                <tspan x="28.2550628" y="75.3647369">₹</tspan>
            </text>
            <path d="M153,88.9585903 L153,94.0414097 C153,94.445815 152.856164,94.8211454 152.605105,95.1356828 C152.34097,95.4634361 151.964381,95.722467 151.522412,95.8678414 C151.386422,95.9127753 151.245201,95.9471366 151.09875,95.9682819 C150.96799,95.9894273 150.832,96 150.693394,96 L55.306606,96 C54.0774622,96 53.0627648,95.1726872 53.0026152,94.1418502 C53,94.107489 53,94.0757709 53,94.0414097 L53,88.9585903 C53,88.9242291 53,88.892511 53.0026152,88.8581498 C53.0627648,87.8273128 54.0774622,87 55.306606,87 L150.693394,87 C150.832,87 150.96799,87.0105727 151.09875,87.0317181 C151.245201,87.0528634 151.386422,87.0872247 151.522412,87.1321586 C151.964381,87.277533 152.34097,87.5365639 152.605105,87.8643172 C152.856164,88.1788546 153,88.554185 153,88.9585903" id="Fill-75" fill="#FF5900"></path>
            <path d="M106,96 L56.0131838,96 C54.9413617,96 54.0562771,95.1726872 54.002558,94.1418502 C54,94.107489 54,94.0757709 54,94.0414097 L54,88.9585903 C54,88.9242291 54,88.892511 54.002558,88.8581498 C54.0562771,87.8273128 54.9413617,87 56.0131838,87 L99.8606848,87 C100.56159,89.6484581 102.193625,93.3145374 106,96" id="Fill-76" fill="#FFAC80"></path>
            <path d="M143,80.1762115 L143,85.8237885 C143,86.2731278 142.853553,86.6901615 142.6025,87.0396476 C142.340987,87.4038179 141.961793,87.69163 141.519836,87.8531571 C141.383849,87.9030837 141.242632,87.9412628 141.0988,87.9647577 C140.965428,87.9882526 140.829441,88 140.690839,88 L45.3065457,88 C44.077434,88 43.0653783,87.0807636 43.0026151,85.9353891 C43,85.89721 43,85.8619677 43,85.8237885 L43,80.1762115 C43,80.1380323 43,80.10279 43.0026151,80.0646109 C43.0653783,78.9192364 44.077434,78 45.3065457,78 L140.690839,78 C140.750987,78 140.81375,78.0029369 140.873898,78.0058737 C140.90005,78.0088106 140.926201,78.0117474 140.952352,78.0146843 C140.978504,78.0176211 141.009885,78.020558 141.036037,78.0264317 L141.0988,78.0352423 C141.242632,78.0587372 141.383849,78.0969163 141.519836,78.1468429 L141.579984,78.1703377 L141.637517,78.1938326 C141.676744,78.2114537 141.715971,78.2290749 141.755198,78.246696 L141.820576,78.2819383 L141.880724,78.3142438 C141.917336,78.3348018 141.953948,78.3553598 141.987944,78.3788546 C142.029786,78.4052863 142.069013,78.4317181 142.10824,78.4610866 C142.137007,78.4845815 142.165773,78.5051395 142.197155,78.5315712 L142.202385,78.5345081 L142.259918,78.5844347 C142.320066,78.6343612 142.374984,78.6901615 142.427286,78.7459618 L142.474359,78.7988253 L142.518816,78.8516887 C142.547582,78.886931 142.576349,78.9251101 142.6025,78.9603524 C142.853553,79.3098385 143,79.7268722 143,80.1762115" id="Fill-90" fill="#FF5900"></path>
            <path d="M95,88 L45.0157418,88 C43.9413617,88 43.0562771,87.0807636 43.002558,85.9353891 C43,85.89721 43,85.8619677 43,85.8237885 L43,80.1762115 C43,80.1380323 43,80.10279 43.002558,80.0646109 C43.0562771,78.9192364 43.9413617,78 45.0157418,78 L88.8606848,78 C88.8811492,78.082232 88.9016135,78.164464 88.9220779,78.246696 C89.6536797,81.1688693 91.2985045,85.0983847 95,88" id="Fill-91" fill="#FFAC80"></path>
            <path d="M148,72.1762115 L148,77.8237885 C148,78.2731278 147.853553,78.6901615 147.605115,79.0396476 C147.340987,79.4038179 146.964408,79.69163 146.522451,79.8531571 C146.386464,79.9030837 146.245247,79.9412628 146.0988,79.9647577 C145.965428,79.9882526 145.832056,80 145.693454,80 L50.3091608,80 C49.9247365,80 49.5638484,79.9118943 49.2448024,79.753304 C48.5700986,79.4185022 48.0889145,78.7782673 48.0104605,78.0323054 C48.0078454,78 48.0052303,77.9676946 48.0026151,77.9353891 C48.0026151,77.89721 48,77.8590308 48,77.8237885 L48,72.1762115 C48,72.1380323 48.0026151,72.10279 48.0026151,72.0646109 C48.0653783,70.9192364 49.0800492,70 50.3091608,70 L145.693454,70 C145.832056,70 145.965428,70.0117474 146.0988,70.0352423 C146.245247,70.0587372 146.386464,70.0969163 146.522451,70.1468429 C146.964408,70.30837 147.340987,70.5961821 147.605115,70.9603524 C147.853553,71.3098385 148,71.7268722 148,72.1762115" id="Fill-105" fill="#FF5900"></path>
            <path d="M100,80 L50.0157418,80 C49.6806375,80 49.3659976,79.9118943 49.0871704,79.753304 C48.4988194,79.4185022 48.0767414,78.7782673 48.0102322,78.0323054 C48.0076741,78 48.0051161,77.9676946 48.002558,77.9353891 C48.002558,77.89721 48,77.8590308 48,77.8237885 L48,72.1762115 C48,72.1380323 48.002558,72.10279 48.002558,72.0646109 C48.0588351,70.9192364 48.9439197,70 50.0157418,70 L93.8632428,70 C94.5436836,72.8634361 96.1066509,76.7929515 99.6930342,79.753304 C99.7953562,79.835536 99.8976781,79.917768 100,80" id="Fill-106" fill="#FFAC80"></path>
            <path d="M150,62.9585903 L150,68.0414097 C150,68.445815 149.853553,68.8211454 149.6025,69.1356828 C149.340987,69.4634361 148.964408,69.722467 148.519836,69.8678414 C148.386464,69.9127753 148.242632,69.9471366 148.0988,69.9682819 C147.965428,69.9894273 147.829441,70 147.690839,70 L52.3091608,70 C51.077434,70 50.0653783,69.1726872 50.0026151,68.1418502 C50,68.107489 50,68.0757709 50,68.0414097 L50,62.9585903 C50,62.9242291 50,62.8898678 50.0026151,62.8581498 C50.060148,61.9039648 50.9309867,61.1242291 52.034572,61.0132159 C52.1234865,61.0026432 52.2150161,61 52.3091608,61 L147.690839,61 C147.829441,61 147.965428,61.0105727 148.0988,61.0317181 C148.242632,61.0528634 148.386464,61.0872247 148.519836,61.1321586 C148.964408,61.277533 149.340987,61.5365639 149.6025,61.8643172 C149.853553,62.1788546 150,62.554185 150,62.9585903" id="Fill-120" fill="#FF5900"></path>
            <path d="M102,70 L52.0157418,70 C50.9413617,70 50.0562771,69.1726872 50.002558,68.1418502 C50,68.107489 50,68.0757709 50,68.0414097 L50,62.9585903 C50,62.9242291 50,62.8898678 50.002558,62.8581498 C50.053719,61.9039648 50.8134593,61.1242291 51.7778434,61.0132159 C51.8545848,61.0026432 51.9338843,61 52.0157418,61 L95.8632428,61 L95.8658009,61.0132159 C96.5692641,63.661674 98.2012987,67.3171806 102,70" id="Fill-121" fill="#FFAC80"></path>
            <path d="M143,53.9585903 L143,59.0414097 C143,59.445815 142.856168,59.8211454 142.605115,60.1356828 C142.340987,60.4634361 141.964408,60.722467 141.522451,60.8678414 C141.386464,60.9127753 141.245247,60.9471366 141.0988,60.9682819 C141.054342,60.9762115 141.009885,60.9814978 140.965428,60.9867841 C140.941892,60.9894273 140.91574,60.9894273 140.889589,60.9920705 C140.866053,60.9947137 140.839902,60.9973568 140.81375,60.9973568 C140.774523,61 140.732681,61 140.693454,61 L45.3091608,61 C44.0800492,61 43.0653783,60.1726872 43.0026151,59.1418502 C43.0026151,59.107489 43,59.0757709 43,59.0414097 L43,53.9585903 C43,53.9242291 43.0026151,53.892511 43.0026151,53.8581498 C43.0052303,53.8290749 43.0078454,53.8026432 43.0104605,53.7762115 C43.1019901,52.9462555 43.8106907,52.261674 44.7390622,52.060793 L44.8096708,52.0475771 C44.9718089,52.015859 45.1391773,52 45.3091608,52 L140.693454,52 C140.761448,52 140.832056,52.0026432 140.90005,52.0079295 C140.928816,52.0105727 140.960198,52.0132159 140.991579,52.015859 C141.028191,52.0211454 141.064803,52.0264317 141.0988,52.0317181 C141.245247,52.0528634 141.386464,52.0872247 141.522451,52.1321586 C141.964408,52.277533 142.340987,52.5365639 142.605115,52.8643172 C142.856168,53.1788546 143,53.554185 143,53.9585903" id="Fill-135" fill="#FF5900"></path>
            <path d="M95,61 L45.0156427,61 C43.9438733,61 43.0588322,60.1726872 43.0025579,59.1418502 C43.0025579,59.107489 43,59.0757709 43,59.0414097 L43,53.9585903 C43,53.9242291 43.0025579,53.892511 43.0025579,53.8581498 C43.0051158,53.8290749 43.0076738,53.8026432 43.0102317,53.7762115 C43.0920852,52.9277533 43.7366816,52.2325991 44.5731221,52.0502203 C44.6012593,52.0422907 44.6319544,52.0370044 44.6600915,52.0317181 C44.775198,52.0105727 44.8928624,52 45.0156427,52 L88.8609868,52 L88.8788922,52.0634361 C89.5848787,54.7039648 91.2168331,58.322467 94.9795366,60.9867841 L95,61" id="Fill-136" fill="#FFAC80"></path>
        </g>
        <rect id="Rectangle" fill="#C4C4C4" x="0" y="208" width="262" height="7" rx="3.5"></rect>
    </g>
</svg>