<?xml version="1.0" encoding="UTF-8"?>
<svg width="252px" height="402px" viewBox="0 0 252 402" version="1.1" xmlns="http://www.w3.org/2000/svg" xmlns:xlink="http://www.w3.org/1999/xlink">
    <title>Group</title>
    <defs>
        <filter x="-17.7%" y="-16.3%" width="133.1%" height="137.2%" filterUnits="objectBoundingBox" id="filter-1">
            <feOffset dx="0" dy="2" in="SourceAlpha" result="shadowOffsetOuter1"></feOffset>
            <feGaussianBlur stdDeviation="2" in="shadowOffsetOuter1" result="shadowBlurOuter1"></feGaussianBlur>
            <feColorMatrix values="0 0 0 0 0.169327446   0 0 0 0 0.169327446   0 0 0 0 0.169327446  0 0 0 0.234265734 0" type="matrix" in="shadowBlurOuter1" result="shadowMatrixOuter1"></feColorMatrix>
            <feMerge>
                <feMergeNode in="shadowMatrixOuter1"></feMergeNode>
                <feMergeNode in="SourceGraphic"></feMergeNode>
            </feMerge>
        </filter>
        <polygon id="path-2" points="18.5068592 30 48 62.2960341 8.01811173 80 1.2976674e-15 70.2907167"></polygon>
        <filter x="-11.1%" y="-5.4%" width="121.2%" height="120.0%" filterUnits="objectBoundingBox" id="filter-3">
            <feMorphology radius="0.5" operator="erode" in="SourceAlpha" result="shadowSpreadOuter1"></feMorphology>
            <feOffset dx="0" dy="2" in="shadowSpreadOuter1" result="shadowOffsetOuter1"></feOffset>
            <feGaussianBlur stdDeviation="2" in="shadowOffsetOuter1" result="shadowBlurOuter1"></feGaussianBlur>
            <feColorMatrix values="0 0 0 0 0.029127038   0 0 0 0 0.029127038   0 0 0 0 0.029127038  0 0 0 0.246011801 0" type="matrix" in="shadowBlurOuter1"></feColorMatrix>
        </filter>
    </defs>
    <g id="Personal-Loans-Web" stroke="none" stroke-width="1" fill="none" fill-rule="evenodd">
        <g id="Disbursal" transform="translate(-46.000000, -248.000000)">
            <g id="Group" transform="translate(46.000000, 248.593160)">
                <g id="Group-8-Copy" filter="url(#filter-1)" transform="translate(107.000000, 190.406840)">
                    <circle id="Oval" fill="#989798" cx="27" cy="19" r="3"></circle>
                    <circle id="Oval-Copy-3" fill="#989798" cx="42" cy="4" r="3"></circle>
                    <circle id="Oval-Copy-4" fill="#162C75" cx="49" cy="22" r="3"></circle>
                    <circle id="Oval-Copy-5" fill="#162C75" cx="72" cy="34" r="3"></circle>
                    <circle id="Oval-Copy-6" fill="#F2652C" cx="72" cy="61" r="3"></circle>
                    <polygon id="Star" fill="#F2652C" transform="translate(56.459257, 9.421286) rotate(-27.000000) translate(-56.459257, -9.421286) " points="56.4792224 13.8784615 52.2761577 16.1811966 53.0641755 11.2773398 49.6462157 7.79138198 54.3515546 7.09095889 56.4422038 2.63378338 58.5622454 7.10475488 63.2722975 7.83602674 59.8772164 11.2996622 60.6975394 16.2087885"></polygon>
                    <polygon id="Star-Copy" fill="#989798" transform="translate(60.881942, 52.914502) rotate(1.000000) translate(-60.881942, -52.914502) " points="60.8813154 56.1554462 57.8136508 57.8378071 58.3999837 54.2753436 55.9187433 51.7528017 59.3483031 51.2325735 60.8824768 47.991196 62.4157284 51.2321407 65.8451403 51.7514011 63.3631822 54.2746433 63.9485015 57.8369414"></polygon>
                    <path d="M32.3256179,0 C35.1639239,16.1464469 50.529022,15.611795 32,27" id="Path-4" stroke="#F2652C" stroke-width="2" stroke-linecap="round"></path>
                    <path d="M50,35 C71.2991162,35 62.5506913,5.04668091 84,3" id="Path-5" stroke="#162C75" stroke-width="2" stroke-linecap="round" stroke-linejoin="round"></path>
                    <path d="M51,44.4594857 C62.2431914,31.2215299 65.1134293,45.9593198 78,48" id="Path-6" stroke="#F2652C" stroke-width="2" stroke-linecap="round"></path>
                    <g id="Path-3">
                        <use fill="black" fill-opacity="1" filter="url(#filter-3)" xlink:href="#path-2"></use>
                        <use fill="#162C75" fill-rule="evenodd" xlink:href="#path-2"></use>
                    </g>
                </g>
                <path d="M105.333415,70.0345674 C100.896362,56.9639342 107.893813,42.7707027 120.964933,38.3334084 C134.036054,33.8961142 148.229773,40.8947753 152.666825,53.9654086 C157.103878,67.0360418 150.104003,81.2292733 137.035307,85.6665676 C123.964187,90.1038618 109.770468,83.1054431 105.333415,70.0345674" id="Fill-33" fill="#FFB790"></path>
                <path d="M102.333155,71.0345531 C97.8961002,57.9639627 104.895978,43.7707777 117.967104,39.333498 C131.035805,34.8959758 145.22953,41.8948565 149.666584,54.9654469 C154.103639,68.0360373 147.106186,82.2292223 134.03506,86.666502 C120.963934,91.1040242 106.770209,84.1051435 102.333155,71.0345531" id="Fill-34" fill="#FF5900"></path>
                <path d="M161.040378,25.7669453 C157.578587,15.5718308 163.03775,4.50117567 173.23347,1.04006548 C183.42919,-2.4210447 194.49876,3.03794014 197.960552,13.2330547 C201.419943,23.4281692 195.96318,34.4985843 185.76746,37.9599345 C175.57174,41.4210447 164.50217,35.9620599 161.040378,25.7669453" id="Fill-37" fill="#FFB790"></path>
                <path d="M158.067029,27.7669453 C154.516559,17.5718308 160.115567,6.50117567 170.572466,3.04006548 C181.029366,-0.4210447 192.3825,5.03794014 195.932971,15.2330547 C199.483441,25.4281692 193.884433,36.4988243 183.427534,39.9599345 C172.970634,43.4210447 161.6175,37.9620599 158.067029,27.7669453" id="Fill-38" fill="#FF5900"></path>
                <text id="₹-copy" transform="translate(126.540405, 64.127250) rotate(-14.000000) translate(-126.540405, -64.127250) " font-family="HelveticaNeue-Medium, Helvetica Neue" font-size="36" font-weight="400" letter-spacing="0.63000018" fill="#FFFDFB">
                    <tspan x="116.379405" y="77.6272501">₹</tspan>
                </text>
                <text id="₹-copy" transform="translate(177.145210, 21.552989) rotate(-14.000000) translate(-177.145210, -21.552989) " font-family="HelveticaNeue-Medium, Helvetica Neue" font-size="29" font-weight="400" letter-spacing="0.507500145" fill="#FFFDFB">
                    <tspan x="168.95996" y="32.5529894">₹</tspan>
                </text>
                <g transform="translate(0.000000, 45.406840)" id="Group-2">
                    <g id="Group" transform="translate(62.000000, 171.000000) scale(-1, 1) translate(-62.000000, -171.000000) translate(17.000000, 0.000000)">
                        <path d="M61,55 C61,55 87.6603355,82.3470468 88.9199999,92.6396611 C90.1796642,102.932275 76.1466959,119 76.1466959,119 L61,55" id="Fill-14" fill="#FF5900"></path>
                        <path d="M30,183.242109 C30,183.242109 34.5865,213.084596 51.8250186,266.072813 C69.0635372,319.064859 71.38161,342 71.38161,342 L89.9987519,341.517558 C89.9987519,341.517558 90.2813506,283.647487 82.3418556,257.002137 C74.4023607,230.356786 80.825752,161 80.825752,161 L30,183.242109" id="Fill-17" fill="#000000"></path>
                        <path d="M20.0210769,163 C20.0210769,163 19.250126,207.837842 27.0336152,262.907421 C34.820998,317.976999 32.0915203,341.339272 32.0915203,341.339272 L51.0304355,342 C51.0304355,342 62.4739946,286.949518 59.288955,259.386084 C56.1039154,231.822651 75,164.863788 75,164.863788 L20.0210769,163" id="Fill-18" fill="#000000"></path>
                        <path d="M57,57.4500287 L47.1728707,64 L33,61.2687184 C33.1968454,60.099716 34.1432177,55.2551038 35.0063091,50.8668009 C35.059306,50.6080968 35.1085174,50.3493926 35.1577287,50.0961023 C35.8958991,46.3624872 36.5356467,43.1547878 36.5356467,43.1547878 L49.792429,37.2146467 L54.7362776,35 C54.7211356,35.0785007 54.3425868,39.1446802 54.2895899,39.7382689 C53.3432177,50.2793994 57,57.4500287 57,57.4500287" id="Fill-19" fill="#FFAC80"></path>
                        <path d="M36.7904447,54.332381 C37.0718711,54.2207849 54.1926201,49.4638633 56.0508055,50.0500173 C57.9089908,50.6365372 59,54.0521101 59,54.0521101 L31,60 C31,60 33.2128597,55.7534935 36.7904447,54.332381" id="Fill-20" fill="#FF8340"></path>
                        <path d="M18.2292638,170.870346 C16.8312156,169.511133 16.7739185,163.203779 17.3239703,154.697249 C18.3935154,138.085082 21.770222,113.096198 21.926834,100.32495 C22.0032301,94.1588612 22.8626859,87.8515064 24.0048073,82.1283074 C26.4342026,69.9259431 30.1203133,60.3545704 30.1203133,60.3545704 C30.1203133,60.3545704 53.4975131,52.8567596 57.8635489,54.1499201 C78.9106683,60.380151 84.1667185,155.143957 81.2636675,168.243554 C78.3606166,181.339333 30.5328521,182.790177 18.2292638,170.870346 Z" id="Fill-21" fill="#FF5900"></path>
                        <path d="M17,155 C18.0967829,138.391439 21.5594832,113.40798 21.7200835,100.639505 C21.7984252,94.4747557 22.6797686,88.1687704 23.850976,82.4468139 L38.269754,80 C38.269754,80 52.2341505,136.108764 17,155" id="Fill-22" fill="#FF8340"></path>
                        <path d="M24.9207249,132.14827 C24.9207249,132.14827 25.8478747,134.409044 23.8855937,135.923763 C21.9195892,137.434715 20.6424309,139.887655 21.0892501,141.684971 C21.5360694,143.482287 25.8292573,146.417526 27.3223781,145.950299 C28.8117755,145.483073 31.8538696,143.124331 31.5299257,142.174806 C31.2022583,141.229048 33.5890175,133.870226 29.9586115,131.025418 C26.3282054,128.184378 24.9207249,132.14827 24.9207249,132.14827" id="Fill-23" fill="#FFAC80"></path>
                        <path d="M41.4375366,57 C41.4375366,57 27.6378513,59.5221728 16.610407,75.510757 C5.58296266,91.5004813 -1.676387,103.389204 0.334545137,109.162532 C2.34932227,114.939661 20.7630011,134.99618 23.9428115,135 C27.126467,135.007583 32.2672247,132.730938 32.5671342,127.584732 C32.5671342,127.584732 19.6133477,108.307365 22.181804,105.426402 C23.2776275,104.198763 39.080555,91.5726954 41.3221868,97.2966139 C45.0287615,106.764264 41.4375366,57 41.4375366,57" id="Fill-24" fill="#FF5900"></path>
                        <path d="M53.6127338,40.5789307 C50.6390106,45.3651187 39.6031078,49.4859754 35,51 C35.0539276,50.7536765 35.1040033,50.5073529 35.1540789,50.2661841 C35.9052137,46.7112456 36.5561971,43.6570545 36.5561971,43.6570545 L50.0458067,38.001186 C53.0233819,37.9684165 54.8376612,38.6094469 53.6127338,40.5789307" id="Fill-25" fill="#FCA56B"></path>
                        <path d="M31.6928542,43.3063923 C31.6928542,43.3063923 53.3752928,50.0494822 57.4092349,36.6257666 C61.443177,23.202051 66.9629031,15.0318058 53.2906108,10.1592149 C39.6183186,5.28624309 35.3765208,9.61341461 32.9284414,13.7695712 C30.4803621,17.9257279 26.1577314,41.2066038 31.6928542,43.3063923" id="Fill-26" fill="#FFAC80"></path>
                        <path d="M33.9960198,11.7144924 C33.9960198,11.7144924 35.3264279,27.2224859 38.5444236,26.5567673 C41.7624194,25.8902931 44.6809785,25.397616 44.1996058,30.0708697 C43.718233,34.7433677 39.2456359,40.1307009 49.157366,40.9792843 C59.0690961,41.8274899 73.3776166,16.3730111 70.6637356,11.5418288 C62.8366906,-2.39783448 22.6780748,-5.29457924 33.9960198,11.7144924" id="Fill-27" fill="#000000"></path>
                    </g>
                    <rect id="Rectangle" fill="#C4C4C4" x="0" y="341" width="107" height="7" rx="3.5"></rect>
                </g>
                <g id="Group-3" transform="translate(99.000000, 291.406840)">
                    <path d="M143,46.1762115 L143,51.8237885 C143,52.2731278 142.853553,52.6930984 142.6025,53.0396476 C142.340987,53.4067548 141.961793,53.69163 141.519836,53.8531571 C141.415231,53.8942731 141.30278,53.9236417 141.190329,53.9471366 L141.187714,53.9471366 C141.158948,53.9559471 141.127566,53.9618209 141.0988,53.9647577 C140.965428,53.9882526 140.829441,54 140.690839,54 L45.3065457,54 C45.2071707,54 45.1051806,53.9941263 45.0084207,53.9823789 C44.9718089,53.9765051 44.9325819,53.9706314 44.8959701,53.9647577 C43.857763,53.7885463 43.0575329,52.9515419 43.0026151,51.9353891 C43,51.9001468 43,51.8619677 43,51.8237885 L43,46.1762115 C43,46.1409692 43,46.10279 43.0026151,46.0646109 C43.0653783,44.9192364 44.077434,44 45.3065457,44 L140.690839,44 C140.750987,44 140.81375,44.0029369 140.873898,44.0088106 C140.90005,44.0117474 140.926201,44.0117474 140.952352,44.0146843 C140.978504,44.0176211 141.009885,44.020558 141.036037,44.0264317 L141.0988,44.0352423 C141.242632,44.0587372 141.383849,44.0969163 141.519836,44.1468429 L141.579984,44.1703377 L141.637517,44.1938326 C141.679359,44.2114537 141.715971,44.2290749 141.755198,44.246696 C141.79704,44.2701909 141.838882,44.2907489 141.880724,44.3142438 C141.917336,44.3348018 141.953948,44.3553598 141.987944,44.3788546 C142.029786,44.4052863 142.069013,44.4346549 142.10824,44.4640235 C142.137007,44.4845815 142.165773,44.5080764 142.197155,44.5315712 L142.202385,44.5374449 L142.259918,44.5844347 C142.320066,44.6343612 142.374984,44.6901615 142.427286,44.7488987 L142.474359,44.7988253 L142.518816,44.8516887 C142.547582,44.886931 142.576349,44.9251101 142.6025,44.9632893 C142.853553,45.3098385 143,45.7268722 143,46.1762115" id="Fill-150" fill="#FF5900"></path>
                    <path d="M148,37.1762115 L148,42.8237885 C148,43.2731278 147.853553,43.6901615 147.605115,44.0396476 C147.340987,44.4038179 146.964408,44.69163 146.522451,44.8531571 C146.386464,44.9030837 146.245247,44.9412628 146.0988,44.9647577 C145.965428,44.9882526 145.832056,45 145.693454,45 L50.3091608,45 C49.9247365,45 49.5638484,44.9118943 49.2448024,44.753304 C48.5700986,44.4214391 48.0889145,43.7812041 48.0104605,43.0323054 C48.0078454,43 48.0052303,42.9676946 48.0026151,42.9353891 C48.0026151,42.9001468 48,42.8619677 48,42.8237885 L48,37.1762115 C48,37.1409692 48.0026151,37.10279 48.0026151,37.0646109 C48.0653783,35.9192364 49.0800492,35 50.3091608,35 L145.693454,35 C145.832056,35 145.965428,35.0117474 146.0988,35.0352423 C146.245247,35.0587372 146.386464,35.0969163 146.522451,35.1468429 C146.964408,35.30837 147.340987,35.5961821 147.605115,35.9603524 C147.853553,36.3098385 148,36.7268722 148,37.1762115" id="Fill-165" fill="#FF5900"></path>
                    <path d="M101,45 L51.0157418,45 C50.6806375,45 50.3659976,44.9118943 50.0871704,44.753304 C49.4988194,44.4214391 49.0767414,43.7812041 49.0102322,43.0323054 C49.0076741,43 49.0051161,42.9676946 49.002558,42.9353891 C49.002558,42.9001468 49,42.8619677 49,42.8237885 L49,37.1762115 C49,37.1409692 49.002558,37.10279 49.002558,37.0646109 C49.0588351,35.9192364 49.9439197,35 51.0157418,35 L94.8632428,35 C95.5436836,37.8634361 97.1066509,41.7929515 100.693034,44.753304 C100.795356,44.8384728 100.897678,44.917768 101,45" id="Fill-166" fill="#FFAC80"></path>
                    <path d="M109,35 L59.0157418,35 C57.9413617,35 57.0562771,34.1726872 57.002558,33.1418502 C57,33.107489 57,33.0757709 57,33.0414097 L57,27.9585903 C57,27.9268722 57,27.892511 57.002558,27.8581498 C57.051161,26.9066079 57.8134593,26.1268722 58.7778434,26.0132159 C58.8545848,26.0052863 58.9338843,26 59.0157418,26 L102.860685,26 L102.865801,26.0132159 C103.569264,28.661674 105.201299,32.3171806 109,35" id="Fill-181" fill="#FF5900"></path>
                    <path d="M143,19.9612335 L143,25.0414097 C143,25.4484581 142.856168,25.8237885 142.605115,26.1356828 C142.340987,26.4660793 141.964408,26.7251101 141.522451,26.8678414 C141.386464,26.9154185 141.245247,26.9471366 141.0988,26.9709251 C141.054342,26.9762115 141.009885,26.9814978 140.965428,26.9867841 C140.928816,26.9920705 140.894819,26.9947137 140.858208,26.9947137 L140.805905,27 C140.766678,27 140.730066,27 140.693454,27 L45.3091608,27 C44.0800492,27 43.0653783,26.1726872 43.0026151,25.1418502 C43.0026151,25.1101322 43,25.0757709 43,25.0414097 L43,19.9612335 C43,19.9268722 43.0026151,19.892511 43.0026151,19.8581498 C43.0653783,18.8273128 44.0800492,18 45.3091608,18 L140.693454,18 C140.732681,18 140.774523,18.0026432 140.81375,18.0052863 C140.913125,18.0079295 141.00727,18.0185022 141.0988,18.0317181 C141.245247,18.0555066 141.386464,18.0872247 141.522451,18.1321586 C141.590444,18.1559471 141.658438,18.1797357 141.721201,18.2088106 C141.763043,18.2273128 141.80227,18.2431718 141.841497,18.2643172 L141.854573,18.2696035 C141.8938,18.2881057 141.930411,18.3092511 141.969638,18.3303965 L141.987944,18.3436123 C142.024556,18.3621145 142.058553,18.3832599 142.092549,18.4070485 C142.173619,18.4572687 142.249457,18.5154185 142.322681,18.5762115 L142.385444,18.6343612 L142.39852,18.6449339 L142.437747,18.6819383 L142.445592,18.6898678 C142.469128,18.7110132 142.490049,18.7348018 142.513586,18.7612335 C142.544967,18.7955947 142.576349,18.8299559 142.605115,18.8669604 C142.856168,19.1788546 143,19.554185 143,19.9612335" id="Fill-195" fill="#FF5900"></path>
                    <path d="M153,28.9585903 L153,34.0414097 C153,34.445815 152.855017,34.8211454 152.606475,35.1356828 C152.347577,35.4634361 151.974764,35.722467 151.534637,35.8678414 C151.402599,35.9127753 151.260206,35.9471366 151.117812,35.9682819 C150.985774,35.9894273 150.851147,36 150.713931,36 L56.2834802,36 C55.0666597,36 54.0647245,35.1726872 54.002589,34.1418502 C54,34.107489 54,34.0757709 54,34.0414097 L54,28.9585903 C54,28.9268722 54,28.892511 54.002589,28.8581498 C54.0595465,27.9066079 54.9216768,27.1268722 56.0142263,27.0132159 C56.1022516,27.0052863 56.1928659,27 56.2834802,27 L150.713931,27 C150.851147,27 150.985774,27.0105727 151.117812,27.0317181 C151.260206,27.0528634 151.402599,27.0872247 151.534637,27.1321586 C151.974764,27.277533 152.347577,27.5365639 152.606475,27.8643172 C152.855017,28.1788546 153,28.554185 153,28.9585903" id="Fill-180" fill="#FF5900"></path>
                    <path d="M107,36 L57.0157418,36 C55.9413617,36 55.0562771,35.1726872 55.002558,34.1418502 C55,34.107489 55,34.0757709 55,34.0414097 L55,28.9585903 C55,28.9268722 55,28.892511 55.002558,28.8581498 C55.051161,27.9066079 55.8134593,27.1268722 56.7778434,27.0132159 C56.8545848,27.0052863 56.9338843,27 57.0157418,27 L100.860685,27 L100.865801,27.0132159 C101.569264,29.661674 103.201299,33.3171806 107,36" id="Fill-181" fill="#FFAC80"></path>
                    <path d="M95,27 L45.0156427,27 C43.9438733,27 43.0588322,26.1726872 43.0025579,25.1418502 C43.0025579,25.1101322 43,25.0757709 43,25.0414097 L43,19.9612335 C43,19.9268722 43.0025579,19.892511 43.0025579,19.8581498 C43.0588322,18.8273128 43.9438733,18 45.0156427,18 L88.8609868,18 C88.8788922,18.0687225 88.8967977,18.1374449 88.9172611,18.2088106 C89.6462689,20.8334802 91.285897,24.3700441 94.9795366,26.9867841 L95,27" id="Fill-196" fill="#FFAC80"></path>
                    <path d="M150,10.1762115 L150,15.8237885 C150,16.2731278 149.853553,16.6901615 149.6025,17.0396476 C149.340987,17.4038179 148.964408,17.69163 148.519836,17.8531571 C148.386464,17.9030837 148.242632,17.9412628 148.0988,17.9647577 C147.965428,17.9882526 147.829441,18 147.690839,18 L52.3091608,18 C51.9378122,18 51.5873846,17.917768 51.276184,17.7679883 C50.5805591,17.4419971 50.0836842,16.7870778 50.0078454,16.0234949 C50.0052303,15.9970631 50.0026151,15.9647577 50.0026151,15.9353891 C50,15.89721 50,15.8619677 50,15.8237885 L50,10.1762115 C50,10.1380323 50,10.10279 50.0026151,10.0646109 C50.060148,9.00440529 50.9309867,8.14096916 52.034572,8.01468429 C52.1234865,8.00587372 52.2150161,8 52.3091608,8 L147.690839,8 C147.829441,8 147.965428,8.01174743 148.0988,8.03524229 C148.242632,8.05873715 148.386464,8.0969163 148.519836,8.14684288 C148.964408,8.30837004 149.340987,8.59618209 149.6025,8.96035242 C149.853553,9.30983847 150,9.72687225 150,10.1762115" id="Fill-210" fill="#FF5900"></path>
                    <path d="M103,18 L53.0157418,18 C52.6934278,18 52.386462,17.917768 52.1153089,17.7679883 C51.5090516,17.4419971 51.0741834,16.7870778 51.0076741,16.0234949 C51.0051161,15.9970631 51.002558,15.9647577 51.002558,15.9353891 C51,15.89721 51,15.8619677 51,15.8237885 L51,10.1762115 C51,10.1380323 51,10.10279 51.002558,10.0646109 C51.053719,9.00734214 51.8134593,8.14096916 52.7778434,8.01468429 C52.8545848,8.00587372 52.9338843,8 53.0157418,8 L96.8632428,8 L96.8658009,8.01468429 C97.5487997,10.8839941 99.1194412,14.8135095 102.713499,17.7679883 C102.808146,17.8472834 102.902794,17.9236417 103,18" id="Fill-211" fill="#FFAC80"></path>
                    <path d="M153,2.17621145 L153,7.82378855 C153,8.27606461 152.856164,8.69309838 152.605105,9.03964758 C152.34097,9.40675477 151.964381,9.69456681 151.522412,9.85315712 C151.386422,9.90602056 151.245201,9.94126285 151.09875,9.96475771 C151.054292,9.97356828 151.009833,9.979442 150.965375,9.98531571 C150.941838,9.98825257 150.915686,9.99118943 150.889534,9.99118943 C150.865997,9.99412628 150.839845,9.99706314 150.816308,9.99706314 C150.774465,10 150.732622,10 150.693394,10 L55.306606,10 C54.0774622,10 53.0627648,9.08076358 53.0026152,7.93538913 C53,7.90014684 53,7.86196769 53,7.82378855 L53,2.17621145 C53,2.14096916 53,2.10279001 53.0026152,2.06461087 C53.0627648,0.919236417 54.0774622,0 55.306606,0 L150.693394,0 C150.832,0 150.96799,0.0117474302 151.09875,0.0352422907 C151.245201,0.0587371512 151.386422,0.0969162996 151.522412,0.146842878 C151.964381,0.308370044 152.34097,0.596182085 152.605105,0.96328928 C152.856164,1.30983847 153,1.72687225 153,2.17621145" id="Fill-225" fill="#FF5900"></path>
                    <path d="M105,10 L55.0131838,10 C53.9413617,10 53.0562771,9.08076358 53.002558,7.93538913 C53,7.90014684 53,7.86196769 53,7.82378855 L53,2.17621145 C53,2.14096916 53,2.10279001 53.002558,2.06461087 C53.0562771,0.919236417 53.9413617,0 55.0131838,0 L98.8606848,0 C99.5590319,2.93979442 101.18595,7.00146843 104.979536,9.98531571 L105,10" id="Fill-226" fill="#FFAC80"></path>
                    <path d="M3,51.4987164 C3,26.9209669 23.1471343,7 48.001298,7 C72.8526061,7 93,26.9209669 93,51.4987164 C93,76.076466 72.8526061,96 48.001298,96 C23.1471343,96 3,76.076466 3,51.4987164" id="Fill-240" fill="#FF5900"></path>
                    <path d="M44.4989732,7 C69.0765809,7 89,26.9209669 89,51.4987164 C89,76.076466 69.0765809,96 44.4989732,96 C19.9231623,96 0,76.076466 0,51.4987164 C0,26.9209669 19.9231623,7 44.4989732,7 Z" id="Fill-241" fill="#FF5900"></path>
                    <path d="M44.4988467,13.4360902 C23.5112902,13.4360902 6.43609023,30.5131418 6.43609023,51.5012815 C6.43609023,72.4894212 23.5112902,89.5639098 44.4988467,89.5639098 C65.4869157,89.5639098 82.5639098,72.4894212 82.5639098,51.5012815 C82.5639098,30.5131418 65.4869157,13.4360902 44.4988467,13.4360902 Z M44.4992307,92 C33.6821866,92 23.5116059,87.7869128 15.8622584,80.1377105 C8.21291084,72.4885083 4,62.3160694 4,51.5 C4,40.6813663 8.21291084,30.5114917 15.8622584,22.8622895 C23.5116059,15.2130872 33.6821866,11 44.4992307,11 C55.3180699,11 65.4881377,15.2130872 73.1374852,22.8622895 C80.7868327,30.5114917 85,40.6813663 85,51.5 C85,62.3160694 80.7868327,72.4885083 73.1374852,80.1377105 C65.4881377,87.7869128 55.3180699,92 44.4992307,92 L44.4992307,92 Z" id="Fill-242" fill="#FFAC80"></path>
                    <text id="₹-copy" transform="translate(45.190063, 52.364737) rotate(10.000000) translate(-45.190063, -52.364737) " font-family="HelveticaNeue-Medium, Helvetica Neue" font-size="60" font-weight="400" letter-spacing="1.0500003" fill="#FFFDFB">
                        <tspan x="28.2550628" y="75.3647369">₹</tspan>
                    </text>
                    <path d="M153,88.9585903 L153,94.0414097 C153,94.445815 152.856164,94.8211454 152.605105,95.1356828 C152.34097,95.4634361 151.964381,95.722467 151.522412,95.8678414 C151.386422,95.9127753 151.245201,95.9471366 151.09875,95.9682819 C150.96799,95.9894273 150.832,96 150.693394,96 L55.306606,96 C54.0774622,96 53.0627648,95.1726872 53.0026152,94.1418502 C53,94.107489 53,94.0757709 53,94.0414097 L53,88.9585903 C53,88.9242291 53,88.892511 53.0026152,88.8581498 C53.0627648,87.8273128 54.0774622,87 55.306606,87 L150.693394,87 C150.832,87 150.96799,87.0105727 151.09875,87.0317181 C151.245201,87.0528634 151.386422,87.0872247 151.522412,87.1321586 C151.964381,87.277533 152.34097,87.5365639 152.605105,87.8643172 C152.856164,88.1788546 153,88.554185 153,88.9585903" id="Fill-75" fill="#FF5900"></path>
                    <path d="M106,96 L56.0131838,96 C54.9413617,96 54.0562771,95.1726872 54.002558,94.1418502 C54,94.107489 54,94.0757709 54,94.0414097 L54,88.9585903 C54,88.9242291 54,88.892511 54.002558,88.8581498 C54.0562771,87.8273128 54.9413617,87 56.0131838,87 L99.8606848,87 C100.56159,89.6484581 102.193625,93.3145374 106,96" id="Fill-76" fill="#FFAC80"></path>
                    <path d="M143,80.1762115 L143,85.8237885 C143,86.2731278 142.853553,86.6901615 142.6025,87.0396476 C142.340987,87.4038179 141.961793,87.69163 141.519836,87.8531571 C141.383849,87.9030837 141.242632,87.9412628 141.0988,87.9647577 C140.965428,87.9882526 140.829441,88 140.690839,88 L45.3065457,88 C44.077434,88 43.0653783,87.0807636 43.0026151,85.9353891 C43,85.89721 43,85.8619677 43,85.8237885 L43,80.1762115 C43,80.1380323 43,80.10279 43.0026151,80.0646109 C43.0653783,78.9192364 44.077434,78 45.3065457,78 L140.690839,78 C140.750987,78 140.81375,78.0029369 140.873898,78.0058737 C140.90005,78.0088106 140.926201,78.0117474 140.952352,78.0146843 C140.978504,78.0176211 141.009885,78.020558 141.036037,78.0264317 L141.0988,78.0352423 C141.242632,78.0587372 141.383849,78.0969163 141.519836,78.1468429 L141.579984,78.1703377 L141.637517,78.1938326 C141.676744,78.2114537 141.715971,78.2290749 141.755198,78.246696 L141.820576,78.2819383 L141.880724,78.3142438 C141.917336,78.3348018 141.953948,78.3553598 141.987944,78.3788546 C142.029786,78.4052863 142.069013,78.4317181 142.10824,78.4610866 C142.137007,78.4845815 142.165773,78.5051395 142.197155,78.5315712 L142.202385,78.5345081 L142.259918,78.5844347 C142.320066,78.6343612 142.374984,78.6901615 142.427286,78.7459618 L142.474359,78.7988253 L142.518816,78.8516887 C142.547582,78.886931 142.576349,78.9251101 142.6025,78.9603524 C142.853553,79.3098385 143,79.7268722 143,80.1762115" id="Fill-90" fill="#FF5900"></path>
                    <path d="M95,88 L45.0157418,88 C43.9413617,88 43.0562771,87.0807636 43.002558,85.9353891 C43,85.89721 43,85.8619677 43,85.8237885 L43,80.1762115 C43,80.1380323 43,80.10279 43.002558,80.0646109 C43.0562771,78.9192364 43.9413617,78 45.0157418,78 L88.8606848,78 C88.8811492,78.082232 88.9016135,78.164464 88.9220779,78.246696 C89.6536797,81.1688693 91.2985045,85.0983847 95,88" id="Fill-91" fill="#FFAC80"></path>
                    <path d="M148,72.1762115 L148,77.8237885 C148,78.2731278 147.853553,78.6901615 147.605115,79.0396476 C147.340987,79.4038179 146.964408,79.69163 146.522451,79.8531571 C146.386464,79.9030837 146.245247,79.9412628 146.0988,79.9647577 C145.965428,79.9882526 145.832056,80 145.693454,80 L50.3091608,80 C49.9247365,80 49.5638484,79.9118943 49.2448024,79.753304 C48.5700986,79.4185022 48.0889145,78.7782673 48.0104605,78.0323054 C48.0078454,78 48.0052303,77.9676946 48.0026151,77.9353891 C48.0026151,77.89721 48,77.8590308 48,77.8237885 L48,72.1762115 C48,72.1380323 48.0026151,72.10279 48.0026151,72.0646109 C48.0653783,70.9192364 49.0800492,70 50.3091608,70 L145.693454,70 C145.832056,70 145.965428,70.0117474 146.0988,70.0352423 C146.245247,70.0587372 146.386464,70.0969163 146.522451,70.1468429 C146.964408,70.30837 147.340987,70.5961821 147.605115,70.9603524 C147.853553,71.3098385 148,71.7268722 148,72.1762115" id="Fill-105" fill="#FF5900"></path>
                    <path d="M100,80 L50.0157418,80 C49.6806375,80 49.3659976,79.9118943 49.0871704,79.753304 C48.4988194,79.4185022 48.0767414,78.7782673 48.0102322,78.0323054 C48.0076741,78 48.0051161,77.9676946 48.002558,77.9353891 C48.002558,77.89721 48,77.8590308 48,77.8237885 L48,72.1762115 C48,72.1380323 48.002558,72.10279 48.002558,72.0646109 C48.0588351,70.9192364 48.9439197,70 50.0157418,70 L93.8632428,70 C94.5436836,72.8634361 96.1066509,76.7929515 99.6930342,79.753304 C99.7953562,79.835536 99.8976781,79.917768 100,80" id="Fill-106" fill="#FFAC80"></path>
                    <path d="M150,62.9585903 L150,68.0414097 C150,68.445815 149.853553,68.8211454 149.6025,69.1356828 C149.340987,69.4634361 148.964408,69.722467 148.519836,69.8678414 C148.386464,69.9127753 148.242632,69.9471366 148.0988,69.9682819 C147.965428,69.9894273 147.829441,70 147.690839,70 L52.3091608,70 C51.077434,70 50.0653783,69.1726872 50.0026151,68.1418502 C50,68.107489 50,68.0757709 50,68.0414097 L50,62.9585903 C50,62.9242291 50,62.8898678 50.0026151,62.8581498 C50.060148,61.9039648 50.9309867,61.1242291 52.034572,61.0132159 C52.1234865,61.0026432 52.2150161,61 52.3091608,61 L147.690839,61 C147.829441,61 147.965428,61.0105727 148.0988,61.0317181 C148.242632,61.0528634 148.386464,61.0872247 148.519836,61.1321586 C148.964408,61.277533 149.340987,61.5365639 149.6025,61.8643172 C149.853553,62.1788546 150,62.554185 150,62.9585903" id="Fill-120" fill="#FF5900"></path>
                    <path d="M102,70 L52.0157418,70 C50.9413617,70 50.0562771,69.1726872 50.002558,68.1418502 C50,68.107489 50,68.0757709 50,68.0414097 L50,62.9585903 C50,62.9242291 50,62.8898678 50.002558,62.8581498 C50.053719,61.9039648 50.8134593,61.1242291 51.7778434,61.0132159 C51.8545848,61.0026432 51.9338843,61 52.0157418,61 L95.8632428,61 L95.8658009,61.0132159 C96.5692641,63.661674 98.2012987,67.3171806 102,70" id="Fill-121" fill="#FFAC80"></path>
                    <path d="M143,53.9585903 L143,59.0414097 C143,59.445815 142.856168,59.8211454 142.605115,60.1356828 C142.340987,60.4634361 141.964408,60.722467 141.522451,60.8678414 C141.386464,60.9127753 141.245247,60.9471366 141.0988,60.9682819 C141.054342,60.9762115 141.009885,60.9814978 140.965428,60.9867841 C140.941892,60.9894273 140.91574,60.9894273 140.889589,60.9920705 C140.866053,60.9947137 140.839902,60.9973568 140.81375,60.9973568 C140.774523,61 140.732681,61 140.693454,61 L45.3091608,61 C44.0800492,61 43.0653783,60.1726872 43.0026151,59.1418502 C43.0026151,59.107489 43,59.0757709 43,59.0414097 L43,53.9585903 C43,53.9242291 43.0026151,53.892511 43.0026151,53.8581498 C43.0052303,53.8290749 43.0078454,53.8026432 43.0104605,53.7762115 C43.1019901,52.9462555 43.8106907,52.261674 44.7390622,52.060793 L44.8096708,52.0475771 C44.9718089,52.015859 45.1391773,52 45.3091608,52 L140.693454,52 C140.761448,52 140.832056,52.0026432 140.90005,52.0079295 C140.928816,52.0105727 140.960198,52.0132159 140.991579,52.015859 C141.028191,52.0211454 141.064803,52.0264317 141.0988,52.0317181 C141.245247,52.0528634 141.386464,52.0872247 141.522451,52.1321586 C141.964408,52.277533 142.340987,52.5365639 142.605115,52.8643172 C142.856168,53.1788546 143,53.554185 143,53.9585903" id="Fill-135" fill="#FF5900"></path>
                    <path d="M95,61 L45.0156427,61 C43.9438733,61 43.0588322,60.1726872 43.0025579,59.1418502 C43.0025579,59.107489 43,59.0757709 43,59.0414097 L43,53.9585903 C43,53.9242291 43.0025579,53.892511 43.0025579,53.8581498 C43.0051158,53.8290749 43.0076738,53.8026432 43.0102317,53.7762115 C43.0920852,52.9277533 43.7366816,52.2325991 44.5731221,52.0502203 C44.6012593,52.0422907 44.6319544,52.0370044 44.6600915,52.0317181 C44.775198,52.0105727 44.8928624,52 45.0156427,52 L88.8609868,52 L88.8788922,52.0634361 C89.5848787,54.7039648 91.2168331,58.322467 94.9795366,60.9867841 L95,61" id="Fill-136" fill="#FFAC80"></path>
                </g>
            </g>
        </g>
    </g>
</svg>