<?xml version="1.0" encoding="UTF-8"?>
<svg width="155px" height="148px" viewBox="0 0 155 148" version="1.1" xmlns="http://www.w3.org/2000/svg" xmlns:xlink="http://www.w3.org/1999/xlink">
    <title>Group 4</title>
    <g id="Personal-Loans-Web" stroke="none" stroke-width="1" fill="none" fill-rule="evenodd">
        <g id="Group-4" fill="#FF5900" fill-rule="nonzero">
            <path d="M23,22.4932568 C23,16.2451299 32.8148695,0 51.4676504,0 C70.0169126,0 80,16.2451299 80,22.4932568 C79.9353008,22.4932568 79.8059024,22.5557381 79.7412032,22.5557381 C68.8717367,25.3673952 61.8195233,13.933323 61.5607264,13.4334728 C60.4090806,11.6340123 57.9958002,11.4403203 56.5141884,12.7461789 C42.7979569,25.0549888 24.4880817,22.6807006 23,22.4932568 Z" id="Path"></path>
            <path d="M58.640998,20 C43.9355655,30.996587 26.5857351,29.3993174 23.038372,28.9692833 C22.2515024,40.1686007 33.6224135,56 51.9977544,56 C70.4504922,56 81.7891547,40.0580205 80.9571368,28.9692833 C72.4112166,31.0948805 64.2458317,26.6716724 58.640998,20 L58.640998,20 Z" id="Path"></path>
            <path d="M75,71 L24.0261404,71 C10.7765249,71 0,81.72275 0,94.90625 L0,117.21875 C0,119.858 2.15274218,122 4.80522809,122 L63.4674526,122 C57.457714,103.901375 62.0835469,84.534125 75,71 Z" id="Path"></path>
            <path d="M112.5,65 C89.0661538,65 70,83.6175385 70,106.5 C70,129.382462 89.0661538,148 112.5,148 C135.933846,148 155,129.382462 155,106.5 C155,83.6175385 135.933846,65 112.5,65 Z M128.565,113.159154 C131.121538,115.655538 131.121538,119.690615 128.565,122.187 C126.008462,124.683385 121.876154,124.683385 119.319615,122.187 L112.5,115.527846 L105.680385,122.187 C103.123846,124.683385 98.9915385,124.683385 96.435,122.187 C93.8784615,119.690615 93.8784615,115.655538 96.435,113.159154 L103.254615,106.5 L96.435,99.8408462 C93.8784615,97.3444615 93.8784615,93.3093846 96.435,90.813 C98.9915385,88.3166154 103.123846,88.3166154 105.680385,90.813 L112.5,97.4721538 L119.319615,90.813 C121.876154,88.3166154 126.008462,88.3166154 128.565,90.813 C131.121538,93.3093846 131.121538,97.3444615 128.565,99.8408462 L121.745385,106.5 L128.565,113.159154 Z" id="Shape"></path>
        </g>
    </g>
</svg>